<?xml version="1.0" encoding="utf-8"?>
<!-- Generator: Adobe Illustrator 24.0.2, SVG Export Plug-In . SVG Version: 6.00 Build 0)  -->
<svg version="1.1" id="Capa_1" xmlns="http://www.w3.org/2000/svg" xmlns:xlink="http://www.w3.org/1999/xlink" x="0px" y="0px"
	 viewBox="0 0 140 140" style="enable-background:new 0 0 140 140;" xml:space="preserve">
<style type="text/css">
	.st0{fill:#505050;}
	.st1{fill:#FFFFFF;}
</style>
<rect class="st0" width="140" height="140"/>
<g>
	<path class="st1" d="M126.08,90.77c-0.9,0-1.8,0-2.76,0c-0.05,0.49-0.09,0.94-0.14,1.49c-2.82,0-5.61,0-8.46,0
		c-0.79,3.65-2.64,6.52-5.79,8.45c-2.11,1.29-4.42,1.94-6.88,1.75c-6.01-0.46-10.11-4.05-11.57-10.09c-9.09,0-18.19,0-27.34,0
		c-2.07,6.89-6.49,10.64-13.98,9.98c-4.89-0.43-8.87-4.32-10.37-10c-0.51-0.03-1.04-0.07-1.65-0.1c-0.05-0.48-0.1-0.94-0.16-1.54
		c-0.78,0-1.56,0-2.44,0c0-3.35,0-6.55,0-9.76c0-0.36,0-0.71,0-1.18c0.86,0,1.6,0,2.43,0c0-1.37,0-2.62,0-3.98
		c-7.62,0-15.19,0-23.05,0c1.13-1.5,2.23-2.72,3.04-4.12c1.11-1.93,2.57-2.52,4.79-2.43c4.66,0.19,9.34,0.06,14.01,0.06
		c0.39,0,0.78,0,1.24,0c0-1.64,0-3.15,0-4.79c-5.33,0-10.63,0-16.21,0c1.26-1.68,2.47-3.08,3.42-4.65s2.13-2.04,3.93-1.94
		c2.91,0.16,5.83,0.04,8.88,0.04c0-6.82,0-13.58,0-20.44c17.99,0,35.83,0,53.78,0c0,2.58,0,5.16,0,7.89c0.52,0,0.95,0,1.37,0
		c6.64,0,13.28,0.01,19.92-0.02c0.82,0,1.2,0.21,1.45,1.04c3.15,10.48,6.35,20.94,9.52,31.42c0.17,0.55,0.21,1.14,0.33,1.84
		c0.86,0.05,1.79,0.1,2.71,0.15C126.08,83.47,126.08,87.12,126.08,90.77z M96.66,65.76c5.55,0,11.03,0,16.54,0
		c-0.02-0.19,0-0.35-0.04-0.48c-1.37-4.48-2.76-8.95-4.09-13.45c-0.21-0.71-0.63-0.67-1.14-0.67c-3.13,0-6.27,0-9.4,0
		c-0.61,0-1.21,0-1.86,0C96.66,56.12,96.66,60.91,96.66,65.76z M57.35,90.23c0.01-3.59-2.85-6.47-6.41-6.48
		c-3.55-0.01-6.49,2.9-6.5,6.44c-0.01,3.51,2.94,6.48,6.46,6.49C54.45,96.69,57.35,93.8,57.35,90.23z M109.02,90.24
		c0.01-3.59-2.85-6.47-6.41-6.48c-3.55-0.01-6.49,2.9-6.51,6.43c-0.02,3.51,2.94,6.48,6.46,6.5
		C106.11,96.7,109.01,93.8,109.02,90.24z"/>
</g>
</svg>
