<?xml version="1.0" encoding="utf-8"?>
<!-- Generator: Adobe Illustrator 24.0.2, SVG Export Plug-In . SVG Version: 6.00 Build 0)  -->
<svg version="1.1" id="Capa_1" xmlns="http://www.w3.org/2000/svg" xmlns:xlink="http://www.w3.org/1999/xlink" x="0px" y="0px"
	 viewBox="0 0 140 140" style="enable-background:new 0 0 140 140;" xml:space="preserve">
<style type="text/css">
	.st0{fill:#505050;}
	.st1{fill:#FFFFFF;}
</style>
<rect class="st0" width="140" height="140"/>
<g>
	<path class="st1" d="M114.87,67.02c-0.71,1.01-1.67,1.33-2.9,1.07c0-5.41,0-10.78,0-16.15c1.27-0.36,2-0.09,2.9,1.06
		C114.87,57.67,114.87,62.35,114.87,67.02z"/>
	<path class="st1" d="M41.44,35.15c0,0.73,0,1.37,0,2c0,3.74,0,7.48,0,11.22c0,1.84,0.9,2.78,2.7,2.79c3.24,0.02,6.48,0.02,9.73,0
		c1.81-0.01,2.68-0.89,2.68-2.69c0.01-4.06,0-8.12,0-12.18c0-0.35,0-0.69,0-1.09c0.29-0.03,0.51-0.07,0.73-0.07
		c14.08,0,28.16-0.01,42.24,0c3.14,0,5.5,1.82,6.26,4.83c0.16,0.64,0.18,1.33,0.18,1.99c0.01,16.18-0.02,32.37,0.03,48.55
		c0.01,2.88-1.83,4.54-4.56,4.54c-24.36-0.03-48.72-0.01-73.08-0.02c-2.05,0-3.26-1.04-3.22-2.73c0.03-1.26,1.02-2.34,2.28-2.47
		c0.43-0.04,0.88-0.04,1.31-0.04c18.05,0,36.1,0,54.16-0.01c0.6,0,1.24-0.08,1.77-0.32c0.94-0.42,1.3-1.27,1.3-2.29
		c-0.01-7.07,0.02-14.14-0.01-21.21c-0.02-4.82-3.42-8.21-8.22-8.24c-5.87-0.03-11.74-0.03-17.61,0c-3.93,0.02-6.79,2.23-7.86,5.97
		c-0.17,0.58-0.24,1.2-0.29,1.81c-0.17,1.82-1.04,2.67-2.88,2.69c-1.66,0.02-3.33,0.01-4.99,0.01c-1.46,0-2.92,0-4.38,0
		c-3.09-0.01-4.65-1.41-5.09-4.48c-0.97-6.78-1.95-13.56-2.96-20.33c-0.61-4.09,2.43-7.92,6.6-8.2
		C39.27,35.09,40.29,35.15,41.44,35.15z M99.14,48.82c-0.03-4.54-3.68-8.16-8.22-8.12c-4.48,0.03-8.13,3.7-8.13,8.15
		c0,4.48,3.73,8.2,8.2,8.19C95.51,57.02,99.17,53.33,99.14,48.82z"/>
	<path class="st1" d="M66.18,99.63c12.27,0,24.53,0,36.8,0c1.85,0,3,1.05,2.97,2.68c-0.02,1.36-1.03,2.43-2.4,2.55
		c-0.29,0.02-0.58,0.01-0.88,0.01c-24.33,0-48.66,0-72.99,0c-0.41,0-0.83,0.02-1.22-0.06c-1.29-0.27-2.2-1.51-2.09-2.75
		c0.12-1.33,1.2-2.37,2.56-2.42c0.82-0.03,1.64-0.01,2.45-0.01C42.99,99.63,54.59,99.63,66.18,99.63z"/>
	<path class="st1" d="M51.87,46.47c-1.91,0-3.8,0-5.73,0c0-3.77,0-7.49,0-11.28c1.89,0,3.77,0,5.73,0
		C51.87,38.9,51.87,42.64,51.87,46.47z"/>
	<path class="st1" d="M38.98,71.61c1.87,0,3.64,0,5.54,0c0,0.53,0.01,1.04,0,1.55c-0.02,1.75,0.03,3.5-0.1,5.23
		c-0.1,1.35-1.18,2.25-2.51,2.35c-1.3,0.1-2.45-0.71-2.83-1.99c-0.05-0.17-0.09-0.34-0.09-0.51C38.98,76.07,38.98,73.89,38.98,71.61
		z"/>
	<path class="st1" d="M94.53,48.86c0-1.95-1.6-3.56-3.54-3.57c-1.93,0-3.58,1.62-3.59,3.55c-0.01,1.9,1.66,3.58,3.57,3.59
		C92.89,52.44,94.53,50.8,94.53,48.86z"/>
	<path class="st1" d="M94.53,48.86c0,1.93-1.64,3.58-3.56,3.57c-1.91-0.01-3.58-1.69-3.57-3.59c0.01-1.93,1.65-3.56,3.59-3.55
		C92.94,45.3,94.54,46.91,94.53,48.86z"/>
</g>
</svg>
