<?xml version="1.0" encoding="utf-8"?>
<!-- Generator: Adobe Illustrator 24.0.2, SVG Export Plug-In . SVG Version: 6.00 Build 0)  -->
<svg version="1.1" id="Capa_1" xmlns="http://www.w3.org/2000/svg" xmlns:xlink="http://www.w3.org/1999/xlink" x="0px" y="0px"
	 viewBox="0 0 140 140" style="enable-background:new 0 0 140 140;" xml:space="preserve">
<style type="text/css">
	.st0{fill:#505050;}
	.st1{fill:#FFFFFF;}
</style>
<rect class="st0" width="140" height="140"/>
<g>
	<path class="st1" d="M111.94,100.42c-4.23,0.8-8.34,1.58-12.45,2.36c-1.48,0.28-2.98,0.51-4.45,0.84
		c-0.32,0.07-0.66,0.42-0.84,0.73c-2.6,4.7-5.17,9.41-7.75,14.12c-0.13,0.23-0.26,0.46-0.43,0.77c-2.48-1.17-4.93-2.32-7.38-3.48
		c-2.67-1.26-5.32-2.54-8.01-3.76c-0.35-0.16-0.91-0.15-1.26,0.01c-4.98,2.32-9.95,4.69-14.92,7.04c-0.12,0.06-0.24,0.1-0.46,0.19
		c-0.43-0.77-0.85-1.51-1.26-2.27c-2.24-4.09-4.47-8.17-6.69-12.27c-0.36-0.66-0.76-1.02-1.59-1.17
		c-5.44-0.97-10.87-2.03-16.38-3.07c0.23-1.87,0.45-3.72,0.68-5.57c0.37-2.9,0.76-5.79,1.13-8.69c0.09-0.7,0.08-1.43,0.27-2.09
		c0.26-0.86,0-1.41-0.61-2.04C25.76,78.11,22,74.1,18.15,70.03c1.77-1.88,3.54-3.76,5.32-5.64c2.17-2.31,4.35-4.61,6.51-6.93
		c0.18-0.19,0.31-0.53,0.28-0.78c-0.55-4.3-1.14-8.59-1.7-12.89c-0.18-1.39-0.33-2.78-0.5-4.22c3.84-0.73,7.59-1.44,11.33-2.14
		c1.85-0.35,3.7-0.64,5.53-1.06c0.37-0.08,0.76-0.52,0.96-0.89c2.65-4.79,5.26-9.59,7.88-14.39c0.05-0.08,0.1-0.16,0.21-0.33
		c2.57,1.22,5.14,2.43,7.71,3.64c2.52,1.19,5.05,2.35,7.55,3.57c0.54,0.26,0.94,0.25,1.48-0.01c4.96-2.38,9.93-4.72,14.91-7.07
		c0.09-0.04,0.19-0.06,0.38-0.13c0.66,1.18,1.33,2.37,1.99,3.57c2.05,3.73,4.07,7.48,6.15,11.2c0.21,0.38,0.69,0.77,1.11,0.85
		c5.53,1.07,11.06,2.09,16.68,3.14c-0.23,1.86-0.46,3.68-0.69,5.5c-0.44,3.46-0.8,6.94-1.38,10.38c-0.23,1.39,0.27,2.2,1.16,3.12
		c3.63,3.75,7.19,7.58,10.84,11.45c-2.17,2.29-4.36,4.58-6.53,6.89c-1.76,1.86-3.51,3.73-5.24,5.62c-0.2,0.22-0.38,0.59-0.34,0.86
		c0.54,4.3,1.13,8.59,1.7,12.88C111.61,97.61,111.77,99,111.94,100.42z M70.15,36.02c-18.32,0.1-34.01,14.28-34.11,33.94
		c-0.09,18.16,14.08,33.74,33.7,33.97c18.27,0.22,33.98-14.04,34.21-33.67C104.17,51.9,89.77,36.43,70.15,36.02z"/>
	<path class="st1" d="M69.94,97.53C55.05,97.64,42.02,85.16,42.45,69.2c0.38-14.43,12.36-26.71,27.57-26.73
		c15.05-0.02,27.93,12.5,27.54,28.28C97.2,85.21,85.17,97.64,69.94,97.53z M69.45,82.77c6.2-7.62,12.33-15.15,18.51-22.75
		c-1.68-1.36-3.31-2.68-4.97-4.03c-4.85,5.96-9.62,11.82-14.42,17.72c-3.41-2.83-6.77-5.62-10.17-8.45
		c-1.38,1.65-2.71,3.24-4.09,4.9C59.37,74.37,64.38,78.54,69.45,82.77z"/>
</g>
</svg>
