<?xml version="1.0" encoding="utf-8"?>
<!-- Generator: Adobe Illustrator 24.0.2, SVG Export Plug-In . SVG Version: 6.00 Build 0)  -->
<svg version="1.1" id="Capa_1" xmlns="http://www.w3.org/2000/svg" xmlns:xlink="http://www.w3.org/1999/xlink" x="0px" y="0px"
	 viewBox="0 0 1920 201.89" style="enable-background:new 0 0 1920 201.89;" xml:space="preserve">
<style type="text/css">
	.st0{fill:#F6F6F6;}
	.st1{fill:#FFFFFF;}
	.st2{fill:#B2B2B2;}
	.st3{fill:#575756;}
	.st4{fill:#FEFFFF;}
</style>
<rect class="st0" width="1920" height="201.89"/>
<g>
	<path class="st1" d="M205.27,85.73c0.4,0,0.54,0.02,0.68,0c0.41-0.05,0.82-0.17,0.93-0.62c0.11-0.47-0.23-0.72-0.59-0.92
		c-0.3-0.17-0.6-0.32-0.9-0.49c-24.76-13.37-49.52-26.74-74.29-40.09c-2.81-1.51-2.11-1.59-5.24,0.1
		c-21.32,11.51-42.63,23.02-63.94,34.53c-3.64,1.97-7.29,3.93-10.94,5.89c-0.42,0.23-0.82,0.49-0.66,1.04
		c0.14,0.49,0.61,0.54,1.04,0.57c0.67,0.05,1.29-0.16,1.9-0.39c10.14-3.86,20.64-6.3,31.3-8.13c6.82-1.17,13.69-2.01,20.58-2.61
		c5.49-0.48,10.98-0.79,16.48-0.92c7.89-0.18,15.78-0.07,23.66,0.43c4.39,0.28,8.77,0.62,13.14,1.1c6.34,0.7,12.65,1.63,18.92,2.85
		c8.75,1.71,17.38,3.84,25.74,6.97C203.88,85.34,204.66,85.7,205.27,85.73z M181.06,102.29c0.05-0.01,0.1-0.01,0.15-0.02
		c0.11,0.2,0.22,0.39,0.32,0.59c2.2,4.19,4.4,8.37,6.58,12.58c0.25,0.48,0.52,0.63,1.04,0.62c1.5-0.03,3.01-0.01,4.51-0.01
		c1.63-0.01,2.5-0.84,2.5-2.45c0.01-7.58,0-15.16,0.02-22.73c0-0.52-0.15-0.68-0.67-0.67c-1.99,0.03-3.97,0.03-5.96,0
		c-0.56-0.01-0.72,0.15-0.72,0.71c0.02,4.48,0.01,8.97,0.01,13.45c0,0.22,0.12,0.47-0.09,0.71c-0.11-0.21-0.19-0.36-0.26-0.51
		c-2.25-4.54-4.51-9.08-6.76-13.63c-0.18-0.37-0.29-0.76-0.88-0.74c-1.53,0.04-3.07-0.02-4.6,0.02c-1.59,0.04-2.51,0.96-2.52,2.5
		c-0.01,7.55,0,15.1-0.02,22.65c0,0.59,0.2,0.71,0.74,0.7c1.79-0.03,3.58-0.01,5.37-0.01c1.24,0,1.24,0,1.24-1.27
		C181.06,110.61,181.06,106.45,181.06,102.29z M137.09,103.04c0,3.18,0,6.36,0,9.54c0,2.34,1.12,3.47,3.43,3.47
		c2.41,0,4.83,0.06,7.24-0.01c4.19-0.14,7.38-2,9.35-5.76c1.47-2.82,1.68-5.85,1.4-8.95c-0.53-5.99-4.05-9.82-9.95-10.84
		c-2.71-0.47-5.44-0.23-8.16-0.27c-2.33-0.03-3.32,0.97-3.32,3.29C137.08,96.68,137.09,99.86,137.09,103.04z M88.29,116.05
		c1.02,0,2.04-0.03,3.07,0.01c0.61,0.02,0.78-0.08,0.57-0.75c-2.49-8.15-4.95-16.31-7.4-24.47c-0.15-0.49-0.36-0.66-0.88-0.65
		c-1.84,0.03-3.69,0.01-5.53,0.01c-1.78,0-2.74,0.66-3.27,2.37c-2.36,7.6-4.69,15.2-7.05,22.8c-0.17,0.54-0.08,0.7,0.49,0.69
		c1.67-0.03,3.35-0.01,5.02-0.01c1.26,0,2.02-0.52,2.43-1.72c0.23-0.67,0.37-1.36,0.54-2.05c0.09-0.4,0.23-0.62,0.72-0.61
		c1.96,0.03,3.92,0.02,5.88,0c0.45,0,0.65,0.12,0.73,0.58c0.18,0.97,0.45,1.93,0.62,2.91c0.12,0.64,0.32,0.98,1.08,0.92
		C86.3,115.98,87.3,116.05,88.29,116.05z M130.85,116.05c1.05,0,2.1-0.03,3.15,0.01c0.59,0.02,0.71-0.11,0.53-0.71
		c-2.5-8.17-4.98-16.35-7.44-24.54c-0.16-0.54-0.43-0.62-0.91-0.62c-1.84,0.02-3.69,0.01-5.53,0.01c-1.68,0-2.69,0.72-3.21,2.35
		c-0.51,1.56-0.98,3.13-1.47,4.7c-1.85,6.01-3.68,12.02-5.56,18.01c-0.22,0.69-0.06,0.81,0.61,0.8c1.59-0.04,3.18-0.01,4.77-0.01
		c1.45,0,2.33-0.68,2.7-2.09c0.15-0.58,0.27-1.16,0.39-1.74c0.08-0.38,0.24-0.56,0.68-0.55c1.99,0.03,3.97,0.02,5.96,0
		c0.42,0,0.59,0.14,0.67,0.56c0.19,1.03,0.47,2.04,0.66,3.07c0.11,0.55,0.3,0.81,0.94,0.77C128.81,116,129.83,116.05,130.85,116.05z
		 M49.97,104.14c0,3.72,0.01,7.44-0.01,11.16c0,0.59,0.15,0.78,0.75,0.76c1.42-0.04,2.84,0,4.26-0.02c1.5-0.02,2.29-0.84,2.3-2.34
		c0.01-1.53,0.04-3.07-0.01-4.6c-0.02-0.68,0.13-0.94,0.87-0.91c1.36,0.06,2.73,0.06,4.09,0.01c2.71-0.1,4.78-1.29,6-3.78
		c1.09-2.23,1.17-4.59,0.82-6.99c-0.59-4.01-3.3-6.67-7.33-7.11c-2.88-0.31-5.79-0.08-8.68-0.12c-2.01-0.03-3.05,1.03-3.05,3.03
		C49.97,96.87,49.97,100.51,49.97,104.14z M94.42,103.98c0,3.78,0,7.55,0,11.33c0,0.42-0.03,0.75,0.59,0.75
		c3.86-0.03,7.72,0,11.59-0.02c1.39-0.01,2.19-0.86,2.2-2.26c0.01-1.19-0.02-2.39,0.01-3.58c0.01-0.5-0.16-0.62-0.63-0.61
		c-1.79,0.02-3.58-0.03-5.37,0.03c-0.82,0.03-1.09-0.14-1.08-1.04c0.05-5.85,0.01-11.7,0.04-17.54c0-0.67-0.17-0.88-0.85-0.85
		c-1.19,0.06-2.38,0.01-3.58,0.02c-2.04,0-2.92,0.87-2.92,2.88C94.42,96.72,94.42,100.35,94.42,103.98z M169.71,102.12
		c0-3.63-0.04-7.26,0.03-10.89c0.02-0.9-0.26-1.1-1.09-1.04c-1.05,0.07-2.1,0.02-3.15,0.02c-2.11,0-3.13,1.02-3.14,3.13
		c-0.01,2.01,0,4.03,0,6.04c0,5.28,0.01,10.55-0.01,15.83c0,0.65,0.15,0.89,0.84,0.86c1.36-0.06,2.72-0.01,4.09-0.02
		c1.25-0.01,2.1-0.7,2.33-1.93c0.09-0.44,0.1-0.9,0.11-1.35C169.72,109.21,169.71,105.67,169.71,102.12z"/>
	<path class="st2" d="M128.2,163.78c-17.02-9.18-34.04-18.37-51.06-27.55c-8.64-4.66-17.27-9.32-25.91-13.98
		c-0.2-0.11-0.41-0.2-0.59-0.34c-0.56-0.46-0.46-1.05,0.23-1.29c0.71-0.25,1.42-0.08,2.08,0.18c8.82,3.37,17.93,5.67,27.19,7.45
		c5.43,1.05,10.89,1.86,16.39,2.52c6.73,0.81,13.49,1.32,20.26,1.64c6.55,0.3,13.12,0.32,19.67,0.14
		c6.55-0.18,13.08-0.61,19.61-1.28c11.75-1.2,23.37-3.13,34.79-6.17c4.44-1.18,8.82-2.54,13.11-4.2c0.58-0.22,1.18-0.41,1.82-0.38
		c0.47,0.03,0.97,0.1,1.1,0.62c0.14,0.54-0.3,0.8-0.72,1.02c-4.52,2.43-9.04,4.86-13.56,7.3c-20.71,11.19-41.43,22.37-62.14,33.56
		c-0.47,0.25-0.94,0.5-1.41,0.76C128.77,163.78,128.48,163.78,128.2,163.78z"/>
	<path class="st3" d="M207.28,113.86c-0.27,0.12-0.24,0.42-0.35,0.63c-0.53,1.03-1.31,1.59-2.5,1.57c-1.19-0.02-2.38-0.05-3.57,0.01
		c-0.73,0.04-0.96-0.14-0.95-0.92c0.05-3.77,0.02-7.54,0.02-11.31c0-3.26,0-6.52,0-9.78c0-0.42,0-0.85,0.03-1.27
		c0.12-1.56,1.16-2.54,2.73-2.57c1.53-0.03,3.06-0.02,4.59-0.03C207.28,98.07,207.28,105.96,207.28,113.86z"/>
	<path class="st2" d="M205.27,85.73c-0.61-0.03-1.39-0.39-2.19-0.69c-8.36-3.13-16.99-5.26-25.74-6.97
		c-6.26-1.22-12.57-2.15-18.92-2.85c-4.37-0.48-8.75-0.83-13.14-1.1c-7.88-0.5-15.77-0.61-23.66-0.43
		c-5.5,0.13-10.99,0.44-16.48,0.92c-6.9,0.6-13.76,1.43-20.58,2.61c-10.66,1.83-21.16,4.28-31.3,8.13c-0.61,0.23-1.23,0.44-1.9,0.39
		c-0.43-0.03-0.9-0.08-1.04-0.57c-0.16-0.55,0.24-0.82,0.66-1.04c3.65-1.96,7.29-3.92,10.94-5.89
		c21.31-11.51,42.63-23.03,63.94-34.53c3.13-1.69,2.43-1.62,5.24-0.1c24.77,13.35,49.53,26.73,74.29,40.09
		c0.3,0.16,0.6,0.32,0.9,0.49c0.36,0.2,0.71,0.46,0.59,0.92c-0.11,0.45-0.52,0.56-0.93,0.62C205.81,85.75,205.67,85.73,205.27,85.73
		z"/>
	<path class="st3" d="M181.06,102.29c0,4.16,0,8.32,0,12.48c0,1.27,0,1.27-1.24,1.27c-1.79,0-3.58-0.02-5.37,0.01
		c-0.54,0.01-0.74-0.11-0.74-0.7c0.02-7.55,0.01-15.1,0.02-22.65c0-1.54,0.92-2.46,2.52-2.5c1.53-0.04,3.07,0.02,4.6-0.02
		c0.59-0.02,0.69,0.37,0.88,0.74c2.25,4.54,4.51,9.08,6.76,13.63c0.08,0.15,0.16,0.3,0.26,0.51c0.21-0.24,0.09-0.5,0.09-0.71
		c0.01-4.48,0.01-8.97-0.01-13.45c0-0.56,0.16-0.72,0.72-0.71c1.99,0.03,3.97,0.03,5.96,0c0.52-0.01,0.68,0.15,0.67,0.67
		c-0.02,7.58,0,15.16-0.02,22.73c0,1.61-0.88,2.44-2.5,2.45c-1.5,0.01-3.01-0.02-4.51,0.01c-0.52,0.01-0.79-0.14-1.04-0.62
		c-2.17-4.2-4.38-8.39-6.58-12.58c-0.1-0.2-0.22-0.39-0.32-0.59C181.16,102.28,181.11,102.28,181.06,102.29z"/>
	<path class="st3" d="M137.09,103.04c0-3.18,0-6.36,0-9.54c0-2.32,0.99-3.32,3.32-3.29c2.72,0.04,5.45-0.2,8.16,0.27
		c5.89,1.02,9.42,4.86,9.95,10.84c0.27,3.1,0.07,6.13-1.4,8.95c-1.97,3.76-5.16,5.63-9.35,5.76c-2.41,0.08-4.83,0.02-7.24,0.01
		c-2.31,0-3.43-1.13-3.43-3.47C137.08,109.4,137.09,106.22,137.09,103.04z M144.05,103.18c0,2.04-0.01,4.09,0.01,6.13
		c0,0.24-0.16,0.61,0.32,0.63c2.33,0.09,4.5-0.26,6.02-2.27c1.8-2.38,1.72-6.88-0.15-9.2c-1.36-1.69-3.25-2.02-5.27-2.07
		c-0.71-0.02-0.98,0.12-0.95,0.91C144.09,99.26,144.05,101.22,144.05,103.18z"/>
	<path class="st3" d="M88.29,116.05c-0.99,0-1.99-0.07-2.98,0.02c-0.77,0.07-0.97-0.27-1.08-0.92c-0.18-0.97-0.45-1.93-0.62-2.91
		c-0.08-0.46-0.29-0.59-0.73-0.58c-1.96,0.02-3.92,0.03-5.88,0c-0.49-0.01-0.63,0.22-0.72,0.61c-0.16,0.69-0.31,1.38-0.54,2.05
		c-0.41,1.2-1.17,1.72-2.43,1.72c-1.67,0-3.35-0.02-5.02,0.01c-0.57,0.01-0.66-0.15-0.49-0.69c2.36-7.6,4.69-15.2,7.05-22.8
		c0.53-1.71,1.49-2.37,3.27-2.37c1.84,0,3.69,0.02,5.53-0.01c0.52-0.01,0.74,0.17,0.88,0.65c2.45,8.16,4.91,16.32,7.4,24.47
		c0.2,0.66,0.04,0.77-0.57,0.75C90.34,116.02,89.32,116.05,88.29,116.05z M82.51,106.19c-0.87-3.26-1.71-6.42-2.6-9.79
		c-0.85,3.19-1.63,6.14-2.43,9.09c-0.12,0.45-0.17,0.73,0.48,0.71C79.43,106.16,80.9,106.19,82.51,106.19z"/>
	<path class="st3" d="M130.85,116.05c-1.02,0-2.05-0.05-3.06,0.02c-0.63,0.04-0.83-0.22-0.94-0.77c-0.2-1.03-0.47-2.04-0.66-3.07
		c-0.08-0.42-0.25-0.56-0.67-0.56c-1.99,0.02-3.97,0.02-5.96,0c-0.44-0.01-0.6,0.18-0.68,0.55c-0.12,0.58-0.24,1.16-0.39,1.74
		c-0.37,1.41-1.24,2.09-2.7,2.09c-1.59,0-3.18-0.03-4.77,0.01c-0.66,0.02-0.82-0.11-0.61-0.8c1.87-6,3.71-12.01,5.56-18.01
		c0.48-1.57,0.96-3.14,1.47-4.7c0.53-1.63,1.53-2.35,3.21-2.35c1.84,0,3.69,0.01,5.53-0.01c0.48-0.01,0.75,0.08,0.91,0.62
		c2.46,8.19,4.94,16.37,7.44,24.54c0.18,0.6,0.06,0.73-0.53,0.71C132.96,116.02,131.9,116.05,130.85,116.05z M122.49,96.37
		c-0.26,1.02-0.46,1.81-0.67,2.6c-0.55,2.08-1.11,4.15-1.67,6.23c-0.26,0.98-0.26,0.98,0.79,0.98c0.74,0,1.47,0,2.21,0
		c1.95,0,1.96,0,1.45-1.92C123.92,101.7,123.23,99.14,122.49,96.37z"/>
	<path class="st3" d="M49.97,104.14c0-3.63,0-7.27,0-10.9c0-2,1.04-3.06,3.05-3.03c2.89,0.04,5.8-0.2,8.68,0.12
		c4.03,0.44,6.74,3.1,7.33,7.11c0.35,2.4,0.27,4.76-0.82,6.99c-1.22,2.49-3.28,3.68-6,3.78c-1.36,0.05-2.73,0.06-4.09-0.01
		c-0.74-0.04-0.89,0.22-0.87,0.91c0.05,1.53,0.02,3.07,0.01,4.6c-0.01,1.5-0.8,2.32-2.3,2.34c-1.42,0.02-2.84-0.03-4.26,0.02
		c-0.61,0.02-0.76-0.17-0.75-0.76C49.98,111.58,49.97,107.86,49.97,104.14z M56.88,99.52c0,0.23-0.01,0.45,0,0.68
		c0.06,0.81-0.37,1.96,0.19,2.34c0.73,0.49,1.87,0.17,2.82,0.02c1.61-0.26,2.41-1.41,2.36-3.21c-0.05-1.65-0.94-2.68-2.56-2.85
		c-0.73-0.08-1.47-0.04-2.21-0.09c-0.51-0.04-0.62,0.2-0.61,0.65C56.9,97.88,56.88,98.7,56.88,99.52z"/>
	<path class="st3" d="M94.42,103.98c0-3.63,0-7.27,0-10.9c0-2.01,0.88-2.88,2.92-2.88c1.19,0,2.39,0.04,3.58-0.02
		c0.68-0.03,0.85,0.18,0.85,0.85c-0.03,5.85,0.01,11.7-0.04,17.54c-0.01,0.9,0.26,1.07,1.08,1.04c1.79-0.06,3.58,0,5.37-0.03
		c0.47-0.01,0.65,0.11,0.63,0.61c-0.03,1.19,0,2.38-0.01,3.58c-0.01,1.4-0.81,2.25-2.2,2.26c-3.86,0.02-7.72,0-11.59,0.02
		c-0.62,0-0.59-0.33-0.59-0.75C94.43,111.54,94.42,107.76,94.42,103.98z"/>
	<path class="st3" d="M169.71,102.12c0,3.55,0,7.09,0,10.64c0,0.45-0.02,0.91-0.11,1.35c-0.24,1.23-1.08,1.92-2.33,1.93
		c-1.36,0.01-2.73-0.04-4.09,0.02c-0.69,0.03-0.84-0.2-0.84-0.86c0.03-5.28,0.01-10.55,0.01-15.83c0-2.01-0.01-4.03,0-6.04
		c0.01-2.11,1.03-3.13,3.14-3.13c1.05,0,2.1,0.05,3.15-0.02c0.83-0.06,1.11,0.14,1.09,1.04C169.68,94.86,169.71,98.49,169.71,102.12
		z"/>
</g>
<path class="st3" d="M443.32,113.89c0.35-1.37,0.71-2.73,1.06-4.1c3.59-13.84,7.17-27.68,10.76-41.52c0.23-0.9,0.24-0.9,1.18-0.9
	c7.18-0.03,14.36-0.06,21.54-0.09c4.2-0.02,8.4-0.03,12.6-0.05c0.17,0,0.33,0,0.52,0c0,27.97,0,55.9,0,83.86
	c-8.03,0-16.05,0-24.19,0c0-0.9,0-1.79,0-2.68c0.01-5.36-0.02-10.72,0.03-16.09c0.09-8.67,0.33-17.33,0.1-26
	c-0.06-2.06-0.16-4.11-0.25-6.16c0-0.12-0.03-0.24-0.14-0.36c-0.21,0.83-0.42,1.66-0.62,2.49c-3.96,16.13-7.91,32.26-11.86,48.39
	c-0.08,0.32-0.19,0.45-0.56,0.45c-6.71-0.01-13.42-0.01-20.14,0c-0.34,0-0.46-0.12-0.53-0.43c-3.69-14.97-7.39-29.94-11.08-44.91
	c-0.51-2.05-1.03-4.09-1.54-6.14c-0.03-0.12-0.07-0.23-0.11-0.34c-0.04,0-0.07,0.01-0.11,0.01c-0.05,17.24-0.09,34.48-0.14,51.76
	c-7.95,0-15.87,0-23.83,0c0-5.14,0-10.27,0-15.39c-0.04-0.02-0.07-0.03-0.11-0.05c-0.08,0.13-0.17,0.26-0.25,0.39
	c-1.08,1.86-2.27,3.63-3.71,5.23c-2.66,2.95-5.82,5.21-9.39,6.91c-3.97,1.9-8.14,3.13-12.52,3.61c-2.35,0.26-4.72,0.38-7.09,0.46
	c-5.32,0.17-10.56-0.4-15.7-1.78c-3.54-0.95-6.9-2.31-9.94-4.39c-6.01-4.09-9.75-9.73-11.43-16.77c-0.87-3.63-1.4-7.29-1.29-11.03
	c0-0.15,0-0.31,0-0.5c8.03,0,16.02,0,24.06,0c0.07,0.72,0.13,1.43,0.2,2.15c0.25,2.66,0.8,5.24,2.2,7.56c1.81,3,4.51,4.63,7.96,5.03
	c2.27,0.26,4.52,0.03,6.66-0.79c2.83-1.09,4.44-3.3,5.22-6.14c1-3.64-0.66-7.37-3.97-9c-1.42-0.7-2.94-1.06-4.5-1.19
	c-2.4-0.2-4.81-0.3-7.22-0.45c-0.32-0.02-0.65-0.04-1-0.06c0-5.36,0-10.69,0-16.06c0.14-0.01,0.27-0.03,0.41-0.03
	c3.13-0.09,6.27-0.18,9.4-0.25c2.09-0.05,4.03-0.62,5.83-1.63c2.02-1.14,2.95-2.86,2.72-5.6c-0.23-2.79-1.84-4.67-4.39-5.66
	c-3.49-1.36-7.06-1.4-10.62-0.2c-2.91,0.98-4.83,2.94-5.66,5.91c-0.32,1.14-0.56,2.3-0.85,3.48c-7.73,0-15.5,0-23.31,0
	c0.09-1.08,0.14-2.14,0.28-3.19c0.46-3.59,1.47-7.03,2.91-10.35c1.81-4.17,4.81-7.31,8.52-9.83c3.75-2.55,7.9-4.1,12.36-4.87
	c4.98-0.86,10-1.22,15.04-0.9c5.35,0.34,10.57,1.31,15.51,3.49c5.52,2.44,9.49,6.45,12.03,11.9c0.46,0.99,0.86,2,1.29,3
	c0.06,0.14,0.13,0.27,0.29,0.38c0-5.73,0-11.47,0-17.27c0.24,0,0.42,0,0.6,0c11.45,0,22.9,0,34.35-0.01c0.47,0,0.65,0.13,0.76,0.59
	c1.66,6.69,3.34,13.38,5.02,20.07c2.14,8.54,4.27,17.09,6.41,25.63c0.03,0.13,0.08,0.26,0.12,0.39
	C443.26,113.89,443.29,113.89,443.32,113.89z M387.21,106.22c1.6,1.32,3.23,2.49,4.64,3.88c1.42,1.4,2.62,3.03,3.98,4.64
	c0.23-6.18,0.12-12.31,0.08-18.44c-0.18,0.22-0.31,0.45-0.43,0.69c-0.82,1.57-1.61,3.16-2.78,4.51c-1.17,1.35-2.59,2.41-3.99,3.49
	C388.21,105.37,387.73,105.79,387.21,106.22z"/>
<g>
	<path class="st3" d="M727.77,94.13c0.54-0.26,1.06-0.55,1.61-0.78c3.6-1.47,6.25-3.96,8.22-7.31c3.33-5.68,7.67-10.38,13.59-13.46
		c3.91-2.03,8.09-3.22,12.44-3.71c3.55-0.4,7.15-0.36,10.7-0.72c3.85-0.39,6.67,1.22,8.99,4.08c2.98,3.68,3.04,3.78-0.12,7.32
		c-1.48,1.65-3.25,3.06-4.98,4.46c-0.62,0.5-1.54,0.64-2.32,0.95c-0.08-0.13-0.16-0.26-0.24-0.39c0.15-0.26,0.31-0.51,0.44-0.77
		c0.54-1.11,1.29-2.18,1.58-3.36c1.1-4.51-1-8.02-5.54-9.13c-6.4-1.56-12.08,0.27-16.8,4.6c-3.78,3.47-6.77,7.68-9.29,12.17
		c-1.27,2.27-1.13,2.6,1.47,2.62c4.31,0.03,8.62-0.15,12.93-0.17c3-0.02,6.01,0.07,9.01,0.12c0.16,0,0.35-0.01,0.48,0.06
		c0.48,0.25,0.95,0.54,1.42,0.81c-0.28,0.42-0.5,0.9-0.85,1.24c-0.4,0.39-0.89,0.73-1.4,0.96c-4.46,2.05-7.37,5.68-9.8,9.73
		c-3.18,5.3-5.63,10.93-6.67,17.05c-0.36,2.13-0.43,4.38-0.19,6.53c0.36,3.12,2.82,4.18,5.55,2.63c2.51-1.43,4.27-3.65,5.85-5.96
		c4.06-5.93,7.01-12.37,8.41-19.45c0.34-1.75,0.46-3.54,0.57-5.33c0.12-2,0.57-2.88,2.5-3.41c4.19-1.15,8.41-2.21,12.64-3.2
		c2.17-0.51,4.39-0.83,6.59-1.15c0.87-0.13,1.8-0.14,2.67-0.01c1.83,0.27,2.69,1.14,2.48,2.97c-0.33,2.89-0.96,5.75-1.47,8.62
		c-0.07,0.41-0.17,0.81-0.26,1.21c0.09,0.06,0.18,0.12,0.27,0.18c0.35-0.23,0.74-0.41,1.04-0.7c2.58-2.48,5.09-5.02,7.71-7.45
		c2.43-2.25,5.1-4.17,8.35-5.1c2.38-0.68,4.68-0.46,6.87,0.64c1.26,0.63,2.13,1.77,1.87,3.15c-0.52,2.78-1.01,5.62-2.04,8.24
		c-2.46,6.28-5.36,12.39-7.82,18.67c-1.46,3.73-2.47,7.63-3.57,11.49c-0.3,1.07-0.15,2.26-0.26,3.4c-0.08,0.89-0.15,1.79-0.35,2.65
		c-0.35,1.53-1.09,1.89-2.34,1.02c-5-3.48-6.71-6.36-5.71-12.33c0.9-5.39,3.21-10.29,5.34-15.26c1.84-4.29,3.65-8.6,5.42-12.93
		c0.36-0.87,0.93-1.97-0.07-2.69c-0.95-0.69-1.84,0.16-2.45,0.79c-2.53,2.57-5.13,5.09-7.41,7.88c-5.69,6.96-10.05,14.77-14.3,22.65
		c-0.81,1.5-1.81,2.89-2.73,4.33c-1.2,1.87-2.99,2.68-5.14,2.79c-0.85,0.04-1.71,0.04-2.56-0.01c-1.37-0.07-1.52-0.27-1.06-1.54
		c1.65-4.5,3.34-8.99,4.99-13.49c2.3-6.26,4.61-12.51,6.83-18.79c0.44-1.24,0.59-2.62,0.66-3.94c0.07-1.26-0.7-1.98-1.94-1.74
		c-1.9,0.37-3.81,0.85-5.61,1.55c-0.64,0.25-1.38,1.25-1.4,1.93c-0.09,3.57-1.49,6.73-2.86,9.89c-2.29,5.26-4.83,10.42-8.26,15.05
		c-3.88,5.24-8.86,9.02-15.31,10.62c-2.2,0.54-4.43,0.6-6.65,0.11c-3.51-0.77-5.62-3.34-5.97-7.24c-0.42-4.69,0.63-9.13,2.24-13.48
		c2.55-6.9,6.72-12.67,12.25-17.49c0.61-0.53,1.15-1.14,1.71-1.73c0.04-0.04,0.02-0.15,0.03-0.31c-0.99,0-1.98-0.05-2.96,0.01
		c-3.7,0.2-7.39,0.47-11.09,0.64c-0.81,0.04-1,0.5-1.22,1.09c-2.45,6.77-4.84,13.55-7.37,20.29c-3.04,8.11-6.16,16.19-10.35,23.8
		c-0.51,0.92-1.09,1.81-1.65,2.71c-2.69,4.33-7.11,5.51-11.68,6.4c-0.33,0.06-0.7-0.04-1.22-0.08c2.21-4.21,4.53-8.19,6.43-12.35
		c1.91-4.18,3.42-8.55,5.1-12.83c-0.09-0.07-0.17-0.14-0.26-0.21c-0.7,0.51-1.38,1.04-2.09,1.52c-3.43,2.31-6.73,4.87-10.34,6.85
		c-4.3,2.36-9.01,3.55-14,2.52c-4.49-0.93-7.55-4.45-7.99-9c-0.49-4.94,0.75-9.54,2.78-13.95c2.87-6.24,6.65-11.85,12.06-16.19
		c4.01-3.21,8.38-5.74,13.6-6.43c0.04-0.01,0.08-0.02,0.12-0.02c2.43-0.23,4.81-0.11,6.39,2.08c1.57,2.17,1.26,4.53,0.2,6.83
		c-1.33,2.88-3.37,5.26-5.55,7.51c-3.36,3.47-7.25,6.26-11.31,8.84c-2.59,1.64-5.04,3.45-6.72,6.1c-1.6,2.51-1.51,5.49,0.2,7.91
		c0.76,1.07,1.76,1.65,3.1,1.61c3.5-0.11,6.55-1.61,9.46-3.3c8.32-4.84,13.72-12.18,17.3-20.95c1.22-2.97,2.19-6.04,3.36-9.03
		c0.45-1.15,0.12-1.64-1.02-1.86c-1.09-0.21-2.17-0.5-3.25-0.76C727.79,94.38,727.78,94.26,727.77,94.13z M699.69,115.19
		c1.11-0.79,2.23-1.57,3.32-2.39c3.87-2.92,7.54-6.05,10.33-10.07c1.32-1.9,2.53-3.9,2.51-6.35c-0.01-1.49-1.04-2.41-2.48-2.05
		c-0.95,0.23-1.91,0.71-2.7,1.31c-3.31,2.5-5.5,5.92-7.45,9.51C701.53,108.25,700.33,111.55,699.69,115.19z"/>
	<path class="st3" d="M846.67,91.22c-0.7,1.76-1.37,3.54-2.11,5.28c-3.36,7.89-6.78,15.75-10.07,23.67c-0.8,1.93-1.3,4.02-1.7,6.09
		c-0.48,2.52,0.82,3.62,3.24,2.74c3.33-1.22,6-3.37,7.96-6.35c0.2-0.3,0.37-0.66,0.41-1.01c0.76-5.84,3.65-10.79,6.56-15.74
		c3.68-6.25,8.74-10.98,15.49-13.74c4.45-1.82,9.05-2.77,13.77-1c3.41,1.28,4.17,4.27,1.88,7.1c-1.53,1.89-3.44,3.33-5.64,4.36
		c-0.43,0.2-1,0.1-1.51,0.13c0.01-0.5-0.05-1.01,0.05-1.49c0.3-1.42,0.88-2.82,0.97-4.25c0.14-2.26-1.43-3.36-3.59-2.69
		c-2.81,0.86-4.86,2.83-6.64,4.99c-5.76,6.97-9.3,14.93-10.16,23.98c-0.12,1.31,0.05,2.69,0.34,3.98c0.53,2.36,2.19,3.24,4.5,2.58
		c4.53-1.3,8.23-3.96,11.18-7.5c2.27-2.73,4.25-5.75,6.05-8.81c2.83-4.81,5.77-9.52,9.74-13.49c5.1-5.11,11.2-8.23,18.43-8.71
		c3.84-0.25,7.71-0.07,11.56,0.03c2.01,0.06,2.42,0.62,1.72,2.54c-1.5,4.12-3.18,8.17-4.76,12.26c-3.21,8.31-6.19,16.7-7.66,25.52
		c-0.41,2.48-0.49,5.01-0.75,7.52c-0.05,0.5-0.25,0.99-0.38,1.48c-4.63-1.19-7.74-5.41-7.44-9.87c0.08-1.26,0.07-2.52,0.06-3.78
		c0-0.4-0.08-0.81-0.22-1.18c-0.08-0.22-0.37-0.54-0.54-0.53c-0.27,0.02-0.71,0.24-0.76,0.45c-0.73,3.25-3.51,4.58-5.95,6.07
		c-2.27,1.38-4.75,2.51-7.26,3.38c-4.27,1.47-10.56-1.76-10.34-7.26c0.01-0.32-0.17-0.91-0.32-0.93c-0.34-0.05-0.78,0.1-1.07,0.32
		c-2.07,1.57-4.01,3.32-6.18,4.74c-3.02,1.98-6.38,3.19-10.04,3.41c-4.23,0.26-7.68-1.24-10.52-4.37c-1.87-2.06-1.94-2-4.18-0.41
		c-3.2,2.28-6.5,4.37-10.56,4.67c-1.24,0.09-2.53,0.06-3.76-0.16c-3.75-0.7-5.84-3.6-4.96-7.31c0.83-3.5,1.82-7.01,3.22-10.32
		c2.92-6.92,6.16-13.71,9.24-20.56c1.34-2.98,3.52-4.78,6.82-5.2c1.88-0.24,3.74-0.63,5.6-0.95C846.49,91,846.58,91.11,846.67,91.22
		z M884.4,126.13c0,0.33-0.01,0.65,0,0.98c0.1,2.1,1.26,2.83,3.18,1.99c0.48-0.21,0.95-0.48,1.37-0.79
		c2.59-1.87,4.92-4.04,6.54-6.81c3.31-5.69,6.61-11.38,9.72-17.17c1.51-2.81,2.62-5.85,3.79-8.83c0.43-1.08-0.04-1.58-1.21-1.62
		c-0.36-0.01-0.73,0.04-1.09,0.13c-3.74,0.93-6.9,2.91-9.5,5.68c-4.33,4.61-7.4,10.06-9.96,15.81
		C885.74,118.88,884.58,122.37,884.4,126.13z"/>
	<path class="st3" d="M640.09,72.86c-1.52,0.08-3.05,0.14-4.57,0.26c-4.99,0.37-9.98,0.68-14.95,1.18
		c-5.36,0.54-10.63,1.62-15.43,4.2c-6.54,3.51-10.15,8.94-10.39,16.44c-0.03,0.84,0.28,1.68,0.37,2.52
		c0.14,1.37-0.57,1.98-1.73,1.34c-5.14-2.82-9.07-7.92-5.38-14.41c3.88-6.85,9.74-11.36,17.46-13.23c7.44-1.8,15.05-2.13,22.65-2.36
		c15.98-0.49,31.96-0.83,47.94-1.22c1.16-0.03,2.32,0,3.5,0.14c-1.82,1.95-3.93,3.46-6.49,3.85c-4.01,0.61-8.06,0.95-12.1,1.31
		c-3.16,0.28-6.33,0.4-9.49,0.64c-3.88,0.3-6.79,2.28-8.65,5.59c-2.17,3.85-4.38,7.73-6.06,11.81
		c-4.95,12.06-9.61,24.24-14.44,36.35c-2.23,5.58-4.52,11.14-8.11,16.05c-3.45,4.72-8.48,5.79-13.84,6.16
		c-0.26,0.02-0.53-0.12-1.06-0.25c0.67-0.99,1.26-1.84,1.82-2.7c0.88-1.36,1.95-2.64,2.59-4.1c3.71-8.48,7.34-17,10.95-25.53
		c3.48-8.23,6.86-16.51,10.35-24.74c3.01-7.1,7.49-13.08,13.74-17.68c0.51-0.38,0.96-0.84,1.44-1.26
		C640.16,73.1,640.12,72.98,640.09,72.86z"/>
	<path class="st3" d="M667.24,124.78c-1.68,1.28-3.06,2.34-4.44,3.38c-3.62,2.73-7.41,5.16-11.81,6.46
		c-4.07,1.2-8.13,1.44-11.82-1.12c-3.01-2.09-4.71-4.75-4.27-8.76c0.98-9.02,4.26-16.96,10.15-23.84
		c4.29-5.01,9.42-8.82,15.81-10.74c1.01-0.3,2.04-0.56,3.08-0.71c3.35-0.49,5.52,1.1,7.18,4.11c0.8,1.44,0.19,3.03-0.45,4.46
		c-1.62,3.6-4.37,6.33-7.13,9.03c-4.21,4.12-8.92,7.57-14.2,10.21c-2.24,1.12-3.25,2.98-3.13,5.46c0.08,1.66,0.13,3.33,0.32,4.98
		c0.24,2.05,1.1,2.77,3.18,2.7c3-0.1,5.58-1.43,7.99-3.04c5.81-3.89,10.51-8.89,13.7-15.11c3.72-7.26,7.12-14.69,10.69-22.04
		c1.92-3.94,3.87-7.87,5.86-11.78c1.26-2.49,3.31-3.95,6.1-4.34c1.35-0.19,2.7-0.42,4.37-0.67c-0.22,0.96-0.29,1.67-0.54,2.31
		c-1.86,4.81-3.7,9.63-5.66,14.4c-4.61,11.24-9.36,22.42-13.9,33.69c-1.68,4.16-2.61,8.55-2.56,13.09c0.01,0.89-0.11,1.79-0.26,2.66
		c-0.14,0.8-0.58,1.17-1.49,0.84c-3.93-1.42-6.7-5.21-6.77-9.39C667.21,129.07,667.24,127.13,667.24,124.78z M664.05,97.62
		c0.08-3.04-1.88-4.29-3.99-3.12c-0.66,0.37-1.36,0.81-1.82,1.4c-1.91,2.41-3.98,4.74-5.52,7.38c-1.73,2.95-2.98,6.19-4.37,9.33
		c-0.17,0.37,0.14,0.96,0.23,1.44c0.49-0.11,1.07-0.09,1.44-0.36c1.37-1.01,2.72-2.06,3.98-3.2c3.31-3,6.7-5.94,8.88-9.94
		C663.46,99.46,663.81,98.24,664.05,97.62z"/>
	<path class="st3" d="M844.52,78.93c0.16-1.8,0.66-3.72,2.68-4.84c1.41-0.78,2.85-0.98,4.24,0.03c1.18,0.85,1.61,2.51,1.07,4.2
		c-0.56,1.74-1.71,3.05-3.32,3.87C846.31,83.64,844.5,82.46,844.52,78.93z"/>
</g>
<g>
	<path class="st3" d="M1108.37,108.84c-0.43,1-0.85,2-1.28,3c-0.72,1.67-1.41,3.34-2.17,4.99c-0.97,2.1-1.96,4.2-3.02,6.26
		c-1.53,2.96-3.11,5.9-5.13,8.56c-0.92,1.21-2.06,2.16-3.63,2.5c-1.24,0.27-2.53-0.21-3.25-1.27c-0.55-0.82-0.89-1.71-0.83-2.71
		c0.12-1.8,0.28-3.6,0.43-5.41c0.11-1.27,0.22-2.54,0.34-3.8c0.09-0.88,0.19-1.75,0.23-2.66c-0.14,0.32-0.28,0.64-0.43,0.95
		c-1.22,2.51-2.37,5.07-3.69,7.53c-1.28,2.4-2.7,4.72-4.12,7.04c-0.88,1.44-2.08,2.6-3.62,3.35c-0.67,0.33-1.37,0.56-2.18,0.43
		c-1.4-0.23-2.04-1.18-2.38-2.4c-0.39-1.42-0.45-2.87-0.24-4.34c0.36-2.59,0.67-5.18,1.03-7.77c0.36-2.61,0.74-5.21,1.11-7.81
		c0.41-2.82,0.81-5.65,1.23-8.47c0.4-2.73,0.82-5.46,1.21-8.19c0.35-2.48,0.67-4.96,1.02-7.44c0.25-1.76,0.53-3.52,0.79-5.28
		c3.43-0.73,6.82-1.45,10.2-2.17c0.04-0.01,0.1,0.04,0.16,0.06c-0.2,1.3-0.4,2.58-0.59,3.87c-0.21,1.38-0.41,2.77-0.61,4.15
		c-0.22,1.49-0.43,2.99-0.64,4.48c-0.2,1.42-0.39,2.85-0.59,4.27c-0.21,1.48-0.42,2.95-0.63,4.43c-0.2,1.42-0.4,2.85-0.6,4.27
		c-0.21,1.44-0.42,2.88-0.63,4.32c-0.2,1.37-0.4,2.73-0.6,4.1c-0.09,0.64-0.16,1.28-0.25,1.92c-0.01,0.07-0.07,0.15-0.05,0.21
		c0.12,0.32,0.16,0.76,0.39,0.91c0.37,0.25,0.72-0.1,1.02-0.35c1.08-0.91,1.62-2.17,2.14-3.41c0.78-1.83,1.53-3.69,2.12-5.59
		c0.61-1.95,1.11-3.94,1.49-5.94c0.41-2.22,0.62-4.48,0.93-6.73c0.28-1.95,0.59-3.89,0.87-5.84c0.25-1.73,0.46-3.47,0.69-5.2
		c0.22-1.59,0.43-3.17,0.69-4.75c0.03-0.16,0.29-0.37,0.48-0.42c2.26-0.5,4.54-0.98,6.8-1.46c1.01-0.21,2.01-0.43,3.13-0.67
		c-0.1,0.84-0.18,1.62-0.28,2.4c-0.17,1.28-0.36,2.55-0.53,3.83c-0.25,1.82-0.51,3.65-0.75,5.47c-0.17,1.24-0.32,2.49-0.48,3.73
		c-0.19,1.44-0.4,2.88-0.6,4.32c-0.17,1.2-0.35,2.41-0.52,3.61c-0.2,1.42-0.38,2.85-0.59,4.27c-0.24,1.6-0.53,3.2-0.75,4.8
		c-0.15,1.11-0.23,2.24-0.34,3.36c-0.01,0.09-0.03,0.2,0,0.28c0.15,0.33,0.25,0.77,0.51,0.92c0.19,0.11,0.67-0.11,0.91-0.32
		c1.07-0.89,1.73-2.1,2.2-3.36c1.31-3.45,2.56-6.93,3.77-10.42c0.91-2.63,1.71-5.3,2.17-8.05c0.37-2.21,0.69-4.44,1.02-6.66
		c0.31-2.07,0.6-4.15,0.88-6.23c0.14-1.02,0.22-2.05,0.36-3.07c0.02-0.15,0.18-0.39,0.31-0.42c3.31-0.72,6.62-1.42,9.94-2.12
		c0.02,0,0.04,0.01,0.14,0.03c-0.04,0.38-0.06,0.77-0.11,1.16c-0.29,2.02-0.59,4.05-0.87,6.07c-0.24,1.72-0.45,3.43-0.69,5.15
		c-0.24,1.7-0.51,3.39-0.75,5.08c-0.21,1.44-0.39,2.89-0.59,4.33c-0.21,1.46-0.43,2.91-0.64,4.37c-0.2,1.44-0.39,2.88-0.59,4.33
		c-0.21,1.46-0.45,2.91-0.62,4.38c-0.06,0.52,0.01,1.07,0.13,1.58c0.12,0.5,0.62,0.67,0.99,0.3c0.6-0.59,1.23-1.21,1.6-1.94
		c0.85-1.64,1.63-3.33,2.31-5.05c1.56-3.93,2.8-7.97,3.72-12.1c0.59-2.62,1.09-5.26,1.54-7.9c0.46-2.68,0.84-5.38,1.23-8.07
		c0.29-1.99,0.52-3.98,0.8-5.96c0.32-2.24,0.67-4.48,0.98-6.72c0.21-1.49,0.38-3,0.58-4.49c0.14-1.02,0.28-2.04,0.46-3.06
		c0.02-0.14,0.22-0.33,0.37-0.36c3.13-0.68,6.27-1.33,9.4-1.99c0.1-0.02,0.21,0,0.4,0c-0.09,0.63-0.17,1.24-0.26,1.85
		c-0.25,1.7-0.49,3.39-0.74,5.09c-0.25,1.7-0.51,3.39-0.75,5.08c-0.21,1.46-0.38,2.92-0.59,4.39c-0.24,1.7-0.5,3.39-0.75,5.09
		c-0.21,1.44-0.39,2.89-0.59,4.33c-0.21,1.46-0.43,2.92-0.64,4.38c-0.2,1.42-0.39,2.85-0.59,4.27c-0.25,1.79-0.51,3.57-0.76,5.36
		c-0.2,1.46-0.38,2.93-0.58,4.39c-0.19,1.41-0.43,2.81-0.6,4.21c-0.16,1.34-0.28,2.68-0.4,4.02c-0.02,0.19,0.02,0.42,0.11,0.59
		c0.16,0.33,0.33,0.84,0.58,0.9c0.28,0.06,0.71-0.23,0.98-0.47c1.06-0.98,1.65-2.28,2.15-3.59c1.57-4.16,3.14-8.33,4.62-12.53
		c0.4-1.13,0.5-2.37,0.7-3.57c0.26-1.62,0.48-3.24,0.72-4.86c0.21-1.38,0.43-2.76,0.63-4.15c0.2-1.38,0.38-2.77,0.58-4.16
		c0.21-1.4,0.45-2.8,0.64-4.2c0.07-0.5,0.21-0.74,0.78-0.86c3.03-0.61,6.05-1.3,9.07-1.96c0.09-0.02,0.18,0,0.42,0
		c-0.42,2.76-0.84,5.48-1.25,8.2c0.03,0.02,0.05,0.04,0.08,0.06c0.23-0.34,0.46-0.69,0.7-1.03c1.32-1.84,2.61-3.71,3.98-5.52
		c1.34-1.76,2.96-3.26,4.92-4.33c0.93-0.51,1.93-0.89,3.07-0.65c1.14,0.25,1.79,0.98,2.19,2c0.51,1.29,0.67,2.65,0.67,4.03
		c0,0.89,0,1.77,0.12,2.68c0.59-0.97,1.13-1.98,1.78-2.91c1.12-1.6,2.28-3.18,3.47-4.73c1.09-1.42,2.43-2.6,3.97-3.52
		c1.3-0.77,2.69-1.29,4.23-0.85c1.58,0.46,2.26,1.72,2.63,3.17c0.4,1.53,0.31,3.09,0.09,4.64c-0.22,1.63-0.5,3.24-0.75,4.87
		c-0.37,2.39-0.74,4.77-1.1,7.16c-0.28,1.88-0.53,3.76-0.81,5.64c-0.27,1.82-0.59,3.64-0.85,5.47c-0.19,1.35-0.39,2.71-0.46,4.07
		c-0.03,0.52,0.23,1.07,0.43,1.57c0.14,0.34,0.48,0.44,0.78,0.19c0.35-0.29,0.75-0.59,0.94-0.98c0.87-1.78,1.7-3.57,2.49-5.38
		c1.08-2.46,1.36-5.12,1.88-7.72c0.86-4.24,1.94-8.41,3.51-12.45c1.11-2.84,2.41-5.57,4.16-8.07c1.99-2.84,4.38-5.22,7.57-6.68
		c1.54-0.7,3.15-1.12,4.86-1.23c1.31-0.08,2.56,0.05,3.78,0.54c1.47,0.59,2.54,1.62,3.36,2.95c1.06,1.71,1.65,3.6,1.83,5.58
		c0.18,1.9,0.3,3.82,0.21,5.71c-0.14,2.82-0.86,5.51-2.05,8.1c-1.22,2.65-2.83,4.99-5,6.93c-1.49,1.33-3.23,2.3-5.09,3.02
		c-1.88,0.73-3.84,1.19-5.85,1.38c-0.15,0.01-0.37,0.19-0.4,0.33c-0.14,0.74-0.27,1.49-0.34,2.24c-0.17,1.58-0.36,3.16-0.43,4.74
		c-0.09,1.85-0.19,3.73,0.68,5.46c0.83,1.65,2.13,2.99,4.13,2.82c1.18-0.1,2.28-0.53,3.19-1.3c1.75-1.46,3.07-3.3,4.41-5.11
		c0.14-0.19,0.17-0.53,0.11-0.77c-0.41-1.61-0.6-3.25-0.5-4.89c0.11-1.79,0.83-3.36,2-4.72c1.1-1.29,2.44-2.23,4.12-2.54
		c0.89-0.16,1.82-0.12,2.89-0.18c1.3-2.19,2.71-4.57,4.11-6.94c0.32-0.54,0.67-1.07,0.94-1.64c0.12-0.25,0.17-0.62,0.07-0.86
		c-0.87-2.05-1.64-4.13-2.13-6.31c-0.42-1.86-0.65-3.74-0.76-5.65c-0.1-1.74,0.03-3.43,0.37-5.12c0.41-1.97,1.22-3.75,2.57-5.29
		c1.53-1.75,3.42-2.85,5.69-3.33c1.8-0.38,3.52-0.23,4.96,1.03c0.84,0.74,1.25,1.77,1.46,2.87c0.36,1.87-0.14,3.63-0.76,5.36
		c-0.84,2.32-2,4.49-3.33,6.58c-0.18,0.28-0.19,0.53-0.05,0.87c1.17,2.97,2.38,5.93,3.45,8.94c0.86,2.43,1.53,4.94,1.78,7.51
		c0.31,3.05,0.01,6.06-1.17,8.94c-1.16,2.84-2.9,5.25-5.19,7.26c-2.86,2.5-6.19,4.07-9.93,4.74c-0.87,0.16-1.75,0.32-2.63,0.32
		c-3.13,0.03-5.48-1.32-6.95-4.12c-0.08-0.14-0.16-0.28-0.28-0.49c-0.53,0.68-1.03,1.32-1.53,1.95c-1.8,2.26-3.74,4.35-6.42,5.6
		c-2.34,1.09-4.77,1.72-7.36,1.52c-1.41-0.11-2.66-0.62-3.77-1.57c-2.39-2.05-3.5-4.78-4.13-7.73c-0.34-1.56-0.41-3.18-0.58-4.77
		c-0.08-0.75-0.11-1.5-0.25-2.3c-0.27,0.65-0.53,1.3-0.81,1.94c-0.98,2.22-1.94,4.45-2.95,6.66c-1.34,2.9-2.82,5.72-4.63,8.36
		c-1,1.46-2.07,2.85-3.54,3.87c-1.06,0.73-2.21,1.17-3.5,0.82c-1.5-0.41-2.16-1.61-2.52-2.99c-0.43-1.66-0.26-3.34,0.01-5.01
		c0.26-1.58,0.5-3.16,0.76-4.74c0.29-1.82,0.59-3.63,0.87-5.45c0.24-1.6,0.46-3.21,0.7-4.81c0.24-1.56,0.51-3.12,0.75-4.69
		c0.28-1.86,0.53-3.72,0.81-5.57c0.27-1.82,0.6-3.63,0.85-5.45c0.15-1.1,0.19-2.21,0.26-3.31c0.01-0.21-0.07-0.44-0.15-0.64
		c-0.24-0.59-0.65-0.78-1.13-0.38c-0.63,0.53-1.24,1.13-1.67,1.82c-1.7,2.74-2.79,5.72-3.26,8.92c-0.37,2.52-0.75,5.04-1.12,7.56
		c-0.32,2.15-0.67,4.3-0.99,6.46c-0.35,2.41-0.67,4.82-1.03,7.23c-0.35,2.39-0.74,4.78-1.09,7.17c-0.25,1.66-0.48,3.32-0.72,5.06
		c-3.42,0.72-6.85,1.45-10.39,2.2c0.05-0.51,0.07-0.94,0.13-1.36c0.29-2.02,0.58-4.04,0.88-6.06c0.32-2.13,0.67-4.25,0.98-6.38
		c0.28-1.91,0.53-3.83,0.8-5.74c0.24-1.64,0.5-3.27,0.75-4.91c0.21-1.4,0.39-2.81,0.59-4.21c0.2-1.38,0.43-2.76,0.63-4.15
		c0.21-1.4,0.4-2.81,0.6-4.21c0.2-1.42,0.44-2.84,0.61-4.26c0.05-0.43,0.03-0.89-0.08-1.31c-0.18-0.66-0.68-0.84-1.3-0.54
		c-0.86,0.42-1.46,1.13-1.99,1.9c-1.52,2.21-2.29,4.71-2.69,7.34c-0.29,1.95-0.59,3.9-0.87,5.85c-0.28,1.95-0.53,3.91-0.81,5.87
		c-0.28,1.95-0.59,3.9-0.87,5.85c-0.31,2.19-0.6,4.39-0.92,6.58c-0.24,1.64-0.51,3.28-0.76,4.92c-0.27,1.79-0.54,3.57-0.79,5.36
		c-0.05,0.39-0.21,0.58-0.6,0.66c-3.01,0.62-6.02,1.26-9.03,1.89c-0.31,0.07-0.63,0.15-1,0.23c1.07-7.29,2.13-14.5,3.19-21.71
		c-0.02,0-0.03-0.01-0.05-0.01c-0.51,1.34-1,2.7-1.55,4.03c-0.87,2.1-1.77,4.2-2.7,6.28c-1.71,3.81-3.73,7.46-6.11,10.89
		c-0.98,1.41-2.08,2.7-3.6,3.55c-1.15,0.65-2.38,0.97-3.64,0.29c-0.95-0.51-1.52-1.37-1.6-2.4c-0.1-1.18-0.02-2.39,0.06-3.58
		c0.07-1.06,0.23-2.12,0.35-3.19c0.12-1.02,0.25-2.05,0.37-3.07c0.13-1.1,0.27-2.19,0.41-3.29c0.17-1.35,0.35-2.7,0.52-4.05
		c0.05-0.4,0.08-0.8,0.06-1.22c-0.21,0.51-0.43,1.02-0.63,1.53c-1.53,3.99-3.33,7.85-5.33,11.61c-1.32,2.48-2.81,4.87-4.29,7.26
		c-0.95,1.53-2.07,2.94-3.66,3.88c-1.14,0.67-2.33,1-3.56,0.25c-0.97-0.59-1.4-1.55-1.64-2.61c-0.31-1.4-0.05-2.8,0.13-4.19
		c0.17-1.26,0.35-2.51,0.53-3.77c0.22-1.55,0.44-3.1,0.65-4.65c0.2-1.48,0.39-2.96,0.58-4.44c0.08-0.58,0.15-1.16,0.23-1.74
		C1108.46,108.84,1108.41,108.84,1108.37,108.84z M1201.9,89.52c0.49-0.08,0.88-0.11,1.25-0.21c0.78-0.21,1.63-0.31,2.29-0.72
		c1.56-0.97,2.13-2.58,2.38-4.32c0.2-1.4,0.41-2.81,0.62-4.21c0.21-1.4,0.41-2.81,0.61-4.21c0.21-1.42,0.41-2.85,0.61-4.27
		c0.2-1.42,0.42-2.84,0.61-4.27c0.19-1.35,0.37-2.7,0.52-4.06c0.1-0.92,0.14-1.85-0.38-2.7c-0.35-0.57-0.98-0.94-1.59-0.8
		c-0.9,0.21-1.69,0.6-2.25,1.4c-0.64,0.9-0.96,1.92-1.15,2.97c-0.24,1.32-0.4,2.66-0.59,3.99c-0.22,1.53-0.44,3.06-0.65,4.59
		c-0.2,1.41-0.38,2.81-0.58,4.22c-0.25,1.82-0.51,3.65-0.77,5.47c-0.17,1.24-0.35,2.48-0.52,3.72
		C1202.17,87.24,1202.04,88.35,1201.9,89.52z M1215.62,100.97c0.03,0.11,0.03,0.2,0.07,0.25c0.56,0.68,1.08,1.42,1.72,2.02
		c0.81,0.77,1.85,1.16,2.96,1.25c1.85,0.17,3.62-0.24,5.26-1.08c3.23-1.66,5.19-4.34,6.11-7.81c0.36-1.37,0.38-2.76,0.26-4.18
		c-0.12-1.53-0.3-3.03-0.88-4.44c-0.89-2.16-1.87-4.28-2.81-6.42c-0.03-0.07-0.1-0.13-0.19-0.24c-1.62,2.68-3.21,5.32-4.76,7.89
		c0.5,0.52,0.99,0.96,1.38,1.47c1.11,1.47,1.33,3.19,1.09,4.92c-0.35,2.58-1.64,4.66-3.88,6.04
		C1219.94,101.88,1217.84,102.08,1215.62,100.97z M1233.83,66.61c0.12-0.17,0.19-0.24,0.23-0.32c0.83-2.08,1.71-4.14,2.47-6.24
		c0.39-1.09,0.57-2.27,0.25-3.44c-0.55-2.06-2.29-2.34-3.71-1.43c-1.06,0.68-1.41,1.76-1.5,2.94c-0.13,1.73,0.3,3.38,0.85,4.99
		C1232.82,64.26,1233.33,65.38,1233.83,66.61z"/>
	<path class="st3" d="M1026.91,165.7c0.09-0.91,0.1-1.84,0.29-2.73c0.41-1.91,0.78-3.84,1.41-5.68c1.3-3.79,3.85-6.48,7.64-7.91
		c0.16-0.06,0.31-0.13,0.46-0.2c0.06-0.03,0.11-0.06,0.16-0.09c-1.01-0.42-2.02-0.78-2.97-1.26c-2.68-1.33-4.87-3.26-6.83-5.5
		c-1.8-2.05-3.18-4.36-4.32-6.82c-1.18-2.54-1.97-5.21-2.5-7.96c-0.45-2.34-0.78-4.69-0.79-7.08c-0.01-1.45-0.15-2.9-0.08-4.34
		c0.1-2.08,0.33-4.15,0.53-6.23c0.36-3.81,1.09-7.55,2.15-11.21c0.79-2.71,1.76-5.37,2.77-8.01c1.15-3.02,2.71-5.84,4.49-8.53
		c0.99-1.49,2.1-2.9,3.23-4.29c0.88-1.07,1.83-2.1,2.83-3.06c2.6-2.49,5.5-4.54,8.85-5.92c0.16-0.07,0.33-0.09,0.65-0.18
		c-0.48,0.56-0.84,1-1.23,1.41c-1.7,1.8-3.09,3.82-4.3,5.97c-1.19,2.12-2.35,4.25-3.39,6.44c-1.22,2.56-2.16,5.23-2.84,7.98
		c-0.62,2.52-1.16,5.06-1.66,7.61c-0.26,1.34-0.32,2.71-0.49,4.06c-0.35,2.84-0.4,5.7-0.31,8.55c0.05,1.6,0.27,3.2,0.43,4.79
		c0.25,2.49,0.83,4.9,1.66,7.26c0.75,2.14,1.79,4.12,3.38,5.74c1.33,1.36,2.95,2.24,4.91,2.44c2.27,0.23,4.34-0.43,6.36-1.32
		c2.56-1.13,4.66-2.89,6.5-4.95c1.58-1.77,2.87-3.75,4-5.84c2.06-3.82,3.5-7.86,4.46-12.08c0.45-1.97,0.76-3.97,1.1-5.97
		c0.65-3.73,0.67-7.49,0.53-11.25c-0.13-3.26-0.51-6.52-1.77-9.58c-0.65-1.58-1.5-3.05-3.04-3.97c-1.48-0.89-2.99-0.83-4.51-0.15
		c-2.4,1.08-4.03,2.95-5.26,5.21c-0.37,0.68-0.66,1.39-0.93,2.13c0.92-0.63,1.86-0.98,2.97-0.96c1.62,0.03,2.84,0.81,3.83,1.96
		c1.57,1.84,2.23,4.08,2.64,6.43c0.35,2.06,0.41,4.14,0.29,6.2c-0.18,3.32-0.68,6.6-1.66,9.79c-0.82,2.65-1.92,5.17-3.55,7.43
		c-1.5,2.07-3.25,3.87-5.73,4.73c-2.25,0.78-4.36,0.52-6.23-1.04c-1.89-1.57-2.76-3.7-3.36-5.98c-0.42-1.61-0.68-3.25-0.68-4.92
		c0-0.78-0.14-1.56-0.09-2.33c0.1-1.8,0.19-3.62,0.45-5.4c0.4-2.77,0.85-5.53,1.46-8.26c0.68-3.03,1.72-5.95,3.06-8.77
		c1.01-2.13,2.2-4.15,3.6-6.04c2.25-3.04,5-5.49,8.48-7.06c2.58-1.17,5.18-1.06,7.76-0.05c2.29,0.89,4.17,2.4,5.78,4.23
		c1.84,2.09,3.15,4.52,4.14,7.11c1.03,2.66,1.71,5.42,2.01,8.26c0.22,2.02,0.36,4.05,0.44,6.08c0.07,1.74,0.07,3.48,0,5.21
		c-0.07,1.55-0.25,3.09-0.43,4.63c-0.24,1.99-0.45,3.99-0.81,5.97c-0.37,2.06-0.79,4.13-1.39,6.14c-0.93,3.09-1.93,6.17-3.07,9.19
		c-1.6,4.22-3.77,8.16-6.57,11.72c-0.94,1.19-1.96,2.33-3.05,3.38c-1.89,1.83-3.96,3.46-6.32,4.66c-1.76,0.89-3.57,1.68-5.45,2.56
		c1.19,0.1,2.35,0.3,3.52,0.27c1.21-0.03,2.42-0.23,3.62-0.43c1.2-0.2,2.31-0.68,3.29-1.39c0.96-0.7,1.85-1.51,2.88-2.37
		c-0.23,1.38-0.38,2.69-0.67,3.97c-0.56,2.5-1.59,4.81-3.18,6.84c-1.94,2.46-4.44,4.07-7.51,4.67c-1.37,0.27-2.79,0.32-4.19,0.35
		c-1.69,0.03-3.38-0.13-5.06-0.08c-2.17,0.07-4.35,0.23-6.44,0.93c-2.24,0.74-4.1,2.03-5.5,3.96c-0.23,0.31-0.45,0.62-0.68,0.93
		C1027.02,165.72,1026.97,165.71,1026.91,165.7z M1052.01,90.63c-0.09-0.45-0.12-1.2-0.41-1.84c-0.66-1.49-1.83-2.21-3.26-0.78
		c-1.61,1.6-2.23,4.67-1.24,6.75c0.78,1.65,2.11,1.84,3.33,0.48C1051.52,94.03,1051.91,92.51,1052.01,90.63z"/>
	<path class="st3" d="M1118.52,74.04c-2.72,0.18-4.72-2-5.13-4.46c-0.54-3.27,1.39-6.65,4.19-7.91c2.03-0.92,4.01-0.81,5.79,0.6
		c1.01,0.8,1.57,1.93,1.78,3.19c0.45,2.7-0.4,4.99-2.36,6.89C1121.83,73.26,1120.3,74.14,1118.52,74.04z"/>
</g>
<g>
	<path class="st3" d="M1426.02,51.35c0.32,0,0.55,0,0.77,0c9.49,0,18.97,0,28.46,0.01c2.44,0,4.87,0.11,7.28,0.57
		c4.31,0.83,7.42,3.25,9.3,7.21c1.59,3.35,1.64,6.83,0.48,10.28c-2.15,6.39-6.56,10.38-13.17,11.85c-2.03,0.45-4.12,0.53-6.19,0.54
		c-5.78,0.03-11.56,0.01-17.34,0.01c-0.27,0-0.54,0-0.89,0c-0.69,5.24-1.38,10.44-2.06,15.62c-0.55,0.19-12.02,0.2-12.68,0.01
		C1421.98,82.11,1424,66.76,1426.02,51.35z M1437.5,60.55c-0.53,3.99-1.04,7.93-1.57,11.91c0.24,0.02,0.42,0.05,0.59,0.05
		c5.06,0,10.12,0.02,15.17-0.03c1.01-0.01,2.02-0.2,3.01-0.39c1.23-0.23,2.2-0.91,2.93-1.91c1.22-1.67,1.78-3.52,1.63-5.59
		c-0.15-2.02-1.43-3.46-3.44-3.78c-1-0.16-2.02-0.25-3.03-0.26c-4.83-0.03-9.66-0.01-14.5-0.01
		C1438.06,60.55,1437.82,60.55,1437.5,60.55z"/>
	<path class="st3" d="M1489.18,69.91c10.08,0,19.98,0,29.94,0c-0.41,3.12-0.81,6.15-1.23,9.26c-9.98,0-19.91,0-29.85,0
		c-0.04,0.18-0.08,0.29-0.08,0.39c0.02,1.46,0.24,2.88,0.84,4.21c0.89,1.95,2.47,3.05,4.47,3.62c1.83,0.52,3.72,0.78,5.61,0.81
		c5.62,0.08,11.24,0.08,16.86,0.11c0.29,0,0.57,0,0.94,0c-0.41,3.12-0.81,6.15-1.21,9.22c-0.27,0.01-0.49,0.03-0.71,0.03
		c-4.99,0-9.98,0.04-14.97-0.01c-2.57-0.03-5.14-0.14-7.71-0.33c-2.63-0.2-5.24-0.61-7.73-1.58c-3.73-1.46-6.43-4-8.17-7.59
		c-1.36-2.8-2-5.77-2.08-8.88c-0.09-3.76,0.38-7.42,1.6-10.98c1.82-5.3,5.12-9.48,9.69-12.68c2.58-1.81,5.39-3.09,8.51-3.65
		c1.94-0.35,3.89-0.5,5.86-0.5c7.09-0.01,14.18-0.01,21.27-0.01c0.13,0,0.26,0.03,0.48,0.06c-0.4,3.06-0.79,6.08-1.2,9.15
		c-0.26,0-0.46,0-0.66,0c-4.81,0-9.62-0.01-14.43,0c-2.39,0-4.78,0.12-7.16,0.4c-2.69,0.33-4.96,1.42-6.7,3.54
		c-0.75,0.91-1.19,1.96-1.55,3.05C1489.61,68.27,1489.44,69.01,1489.18,69.91z"/>
	<path class="st3" d="M1387.53,69.91c9.96,0,19.85,0,29.82,0c-0.41,3.11-0.81,6.14-1.22,9.25c-0.36,0-0.67,0-0.98,0
		c-9.13,0-18.25,0-27.38,0c-0.2,0-0.41,0-0.61,0c-1.01,0-1.08,0.04-0.97,1.02c0.1,0.87,0.23,1.75,0.47,2.58
		c0.66,2.3,2.2,3.77,4.47,4.52c1.38,0.46,2.81,0.63,4.25,0.8c1.95,0.22,3.92,0.24,5.88,0.24c4.27-0.01,8.54,0,12.81,0
		c0.26,0,0.53,0,0.86,0c-0.41,3.13-0.81,6.15-1.22,9.25c-0.3,0-0.55,0-0.79,0c-4.92,0-9.85,0.04-14.77-0.02
		c-2.66-0.03-5.33-0.15-7.98-0.34c-2.29-0.16-4.57-0.54-6.76-1.27c-4.6-1.54-7.7-4.64-9.51-9.09c-1.06-2.6-1.53-5.32-1.55-8.12
		c-0.03-3.45,0.4-6.84,1.48-10.13c1.68-5.16,4.76-9.32,9.09-12.57c2.58-1.93,5.4-3.36,8.56-4.04c2.26-0.49,4.56-0.64,6.86-0.64
		c6.75-0.01,13.51-0.01,20.26-0.01c0.36,0,0.71,0,1.17,0c-0.36,3.08-0.79,6.1-1.19,9.21c-0.27,0-0.51,0-0.75,0
		c-5.1,0-10.21-0.03-15.31,0.01c-2.35,0.02-4.69,0.13-7.01,0.53c-2.8,0.49-4.99,1.91-6.49,4.32c-0.78,1.26-1.14,2.69-1.48,4.12
		C1387.51,69.62,1387.53,69.71,1387.53,69.91z"/>
	<path class="st3" d="M1514.79,104.29c-0.09,0.69-0.17,1.28-0.26,1.92c-0.84,0.13-1.63,0.26-2.43,0.38c-2.7,0.4-5.4,0.79-8.1,1.19
		c-1.94,0.28-3.88,0.56-5.83,0.85c-2.7,0.4-5.4,0.79-8.1,1.19c-2.88,0.42-5.76,0.83-8.64,1.26c-3.3,0.48-6.6,0.98-9.91,1.46
		c-3.57,0.52-7.14,1.02-10.71,1.54c-4.15,0.61-8.3,1.23-12.45,1.84c-3.55,0.52-7.1,1.02-10.65,1.54c-3.12,0.45-6.25,0.9-9.37,1.38
		c-0.36,0.06-0.74,0.21-1.05,0.41c-2.91,1.85-5.82,3.72-8.71,5.6c-0.4,0.26-0.73,0.31-1.19,0.17c-3.94-1.29-7.89-2.55-11.84-3.83
		c-6.78-2.19-13.56-4.37-20.34-6.56c-4.61-1.49-9.22-2.98-13.83-4.46c-0.19-0.06-0.38-0.14-0.64-0.23c0.05-0.37,0.1-0.74,0.16-1.16
		c0.27,0,0.49,0,0.71,0c13.08,0,26.16,0,39.23,0.01c0.8,0,1.5-0.17,2.19-0.54c2.32-1.26,4.66-2.49,7-3.71
		c0.25-0.13,0.55-0.17,0.83-0.22c0.18-0.03,0.36-0.01,0.54-0.01c30.76,0,61.53,0,92.29,0
		C1514.05,104.29,1514.38,104.29,1514.79,104.29z"/>
	<path class="st3" d="M1408,138.77c0.06-0.29,0.13-0.6,0.2-0.95c0.45,0,0.89,0,1.4,0c0,0.26,0.03,0.52,0,0.77
		c-0.35,2.68-0.69,5.36-1.07,8.04c-0.2,1.41-0.84,2.57-2.12,3.29c-0.97,0.55-2.06,0.65-3.15,0.63c-0.97-0.01-1.92-0.19-2.9-0.61
		c0.11-0.47,0.21-0.94,0.33-1.47c0.38,0.15,0.69,0.27,0.99,0.4c0.7,0.3,1.44,0.39,2.18,0.38c1.63-0.03,2.78-1.12,3.07-2.87
		c0.04-0.22,0.04-0.45,0.05-0.67c0-0.03-0.05-0.07-0.11-0.14c-0.15,0.1-0.31,0.21-0.47,0.32c-0.93,0.64-1.96,0.9-3.08,0.76
		c-1.33-0.17-2.17-0.93-2.55-2.2c-0.63-2.13,0.32-4.86,2.14-6.14c1.16-0.82,2.45-0.9,3.75-0.47
		C1407.14,137.98,1407.52,138.42,1408,138.77z M1407.57,141.64c-0.09-0.46-0.14-0.94-0.29-1.38c-0.3-0.88-0.97-1.33-1.9-1.36
		c-0.69-0.02-1.29,0.22-1.76,0.72c-1.01,1.09-1.46,2.37-1.21,3.85c0.28,1.64,1.72,2.36,3.2,1.6c0.39-0.2,0.75-0.51,1.04-0.84
		C1407.29,143.5,1407.51,142.61,1407.57,141.64z"/>
	<path class="st3" d="M1435.82,146.64c-0.55,0-1,0-1.49,0c0-0.33,0-0.63,0-1.03c-0.25,0.18-0.43,0.31-0.6,0.44
		c-0.94,0.69-1.98,0.92-3.13,0.79c-1.16-0.13-1.91-0.77-2.34-1.8c-0.72-1.69-0.44-4.89,1.45-6.48c1.26-1.06,2.69-1.2,4.19-0.7
		c0.44,0.15,0.81,0.54,1.29,0.87c0.24-1.71,0.48-3.38,0.72-5.1c0.54,0,1.02,0,1.61,0C1436.96,137.98,1436.39,142.3,1435.82,146.64z
		 M1429.63,142.94c-0.02,0.5,0.1,1.18,0.5,1.79c0.4,0.6,0.97,0.86,1.67,0.84c0.55-0.02,1.06-0.2,1.5-0.55
		c1.32-1.01,1.91-3.34,1.22-4.86c-0.36-0.78-0.96-1.23-1.84-1.26c-1.06-0.04-1.82,0.44-2.35,1.31
		C1429.85,140.99,1429.65,141.84,1429.63,142.94z"/>
	<path class="st3" d="M1369.28,141.1c-0.18,1.37-0.34,2.63-0.51,3.97c0.33,0.04,0.56,0.08,0.8,0.08c1.15,0.01,2.3,0,3.45,0.01
		c0.24,0,0.49,0.02,0.81,0.04c-0.07,0.51-0.13,0.96-0.2,1.44c-2.28,0-4.5,0-6.8,0c0.53-4.05,1.05-8.06,1.58-12.09
		c2.29,0,4.51,0,6.81,0c-0.07,0.5-0.13,0.96-0.19,1.45c-0.22,0.01-0.39,0.03-0.57,0.03c-1.29,0-2.57,0-3.86,0
		c-0.6,0-0.63,0.03-0.72,0.64c-0.13,0.93-0.25,1.87-0.39,2.87c0.28,0.03,0.49,0.06,0.71,0.06c1.15,0,2.3,0,3.45-0.01
		c0.41,0,0.47,0.05,0.41,0.46c-0.05,0.33-0.1,0.66-0.16,1.05C1372.37,141.1,1370.87,141.1,1369.28,141.1z"/>
	<path class="st3" d="M1458.57,134.74c-0.16,0.55-0.29,1.02-0.44,1.55c-0.29-0.09-0.52-0.17-0.74-0.24c-0.79-0.25-1.59-0.32-2.4-0.1
		c-0.24,0.06-0.47,0.16-0.68,0.29c-0.97,0.61-1.02,1.89-0.08,2.54c0.5,0.34,1.07,0.58,1.58,0.91c0.53,0.34,1.04,0.71,1.52,1.1
		c0.46,0.38,0.64,0.91,0.7,1.49c0.22,2.08-0.92,3.78-2.95,4.34c-1.31,0.36-2.63,0.36-3.93-0.1c-0.14-0.05-0.28-0.13-0.45-0.21
		c0.12-0.5,0.23-0.98,0.36-1.51c0.42,0.13,0.8,0.25,1.18,0.36c0.87,0.24,1.74,0.28,2.58-0.1c0.74-0.34,1.25-0.88,1.35-1.73
		c0.07-0.6-0.1-1.14-0.62-1.48c-0.54-0.36-1.13-0.65-1.68-1c-0.51-0.32-1.03-0.65-1.5-1.03c-0.48-0.39-0.67-0.95-0.7-1.56
		c-0.09-1.64,0.81-3.03,2.39-3.63C1455.54,134.1,1457.02,134.22,1458.57,134.74z"/>
	<path class="st3" d="M1465.03,141.16c0.39-1.24-0.19-2.12-1.42-2.23c-1.08-0.09-2.05,0.21-2.99,0.8c-0.16-0.46-0.02-0.89,0.05-1.31
		c0.01-0.08,0.16-0.15,0.26-0.2c1.3-0.66,2.67-0.83,4.07-0.51c1.15,0.26,1.77,1.04,1.8,2.22c0.02,0.69-0.05,1.39-0.13,2.08
		c-0.18,1.52-0.38,3.03-0.59,4.59c-0.46,0-0.92,0-1.42,0c0-0.26,0-0.52,0-0.87c-0.2,0.12-0.35,0.19-0.47,0.3
		c-1.09,0.87-2.35,1.03-3.65,0.7c-1.39-0.36-1.94-1.24-1.63-2.92c0.17-0.94,0.78-1.55,1.59-1.98c0.87-0.46,1.82-0.65,2.8-0.68
		C1463.86,141.15,1464.43,141.16,1465.03,141.16z M1464.87,142.54c-1.04-0.26-2.39-0.13-3.28,0.33c-0.2,0.1-0.4,0.22-0.55,0.38
		c-0.34,0.38-0.55,0.82-0.39,1.36c0.16,0.53,0.55,0.8,1.07,0.91c0.13,0.03,0.27,0.06,0.4,0.05
		C1464.16,145.5,1464.99,143.99,1464.87,142.54z"/>
	<path class="st3" d="M1490.09,141.16c0.41-1.13-0.14-2.08-1.25-2.21c-0.95-0.11-1.84,0.07-2.67,0.52
		c-0.14,0.08-0.28,0.15-0.42,0.22c-0.02,0.01-0.04-0.01-0.13-0.03c0.02-0.34,0.01-0.69,0.08-1.03c0.03-0.15,0.17-0.32,0.31-0.39
		c1.31-0.68,2.7-0.86,4.13-0.5c1.09,0.28,1.69,1,1.74,2.13c0.03,0.71-0.05,1.44-0.13,2.15c-0.17,1.52-0.38,3.03-0.58,4.6
		c-0.46,0-0.92,0-1.43,0c0-0.22,0-0.46,0-0.81c-0.22,0.11-0.37,0.17-0.5,0.27c-1,0.76-2.12,0.95-3.33,0.73
		c-1.92-0.35-2.18-1.61-1.93-2.96c0.16-0.84,0.67-1.46,1.4-1.9c0.94-0.56,1.97-0.75,3.04-0.79
		C1488.98,141.15,1489.54,141.16,1490.09,141.16z M1489.96,142.49c-0.87-0.13-1.7-0.12-2.51,0.09c-0.38,0.1-0.78,0.25-1.1,0.47
		c-0.5,0.33-0.75,0.84-0.64,1.45c0.1,0.56,0.53,0.92,1.19,1.02c0.17,0.03,0.36,0.03,0.53,0.01
		C1489.09,145.36,1490,144.28,1489.96,142.49z"/>
	<path class="st3" d="M1513.41,142.61c-2.09,0-4.16,0-6.2,0c-0.47,1.2,0.59,2.69,1.88,2.88c0.95,0.14,1.83-0.11,2.7-0.46
		c0.2-0.08,0.4-0.18,0.69-0.31c-0.07,0.56-0.1,1-0.18,1.44c-0.02,0.11-0.2,0.23-0.34,0.28c-1.46,0.54-2.96,0.65-4.45,0.17
		c-1.3-0.41-1.96-1.43-2.13-2.72c-0.2-1.54,0.04-3.02,0.95-4.33c1.17-1.69,2.98-2.32,5.13-1.83c0.82,0.19,1.4,0.72,1.72,1.5
		C1513.63,140.31,1513.64,141.42,1513.41,142.61z M1511.76,141.29c0.27-1.12-0.36-2.17-1.41-2.34c-1.43-0.23-2.77,0.8-2.97,2.27
		C1507.81,141.42,1511,141.47,1511.76,141.29z"/>
	<path class="st3" d="M1421.73,146.65c-0.49,0-0.94,0-1.42,0c0-0.28,0-0.54,0-0.89c-0.21,0.13-0.37,0.21-0.5,0.32
		c-0.97,0.75-2.07,0.96-3.26,0.74c-1.81-0.33-2.26-1.41-1.96-2.99c0.21-1.07,0.96-1.7,1.91-2.13c0.82-0.36,1.68-0.5,2.57-0.52
		c0.54-0.01,1.08,0,1.61,0c0.44-1.15-0.11-2.1-1.27-2.24c-0.9-0.1-1.75,0.06-2.56,0.46c-0.18,0.09-0.35,0.19-0.6,0.33
		c-0.05-0.43,0-0.81,0.06-1.16c0.02-0.12,0.18-0.24,0.31-0.31c1.22-0.65,2.53-0.81,3.88-0.55c1.28,0.25,1.94,1.08,1.97,2.38
		c0.01,0.56-0.06,1.12-0.12,1.68C1422.16,143.37,1421.95,144.97,1421.73,146.65z M1420.57,142.54c-1.01-0.28-2.41-0.11-3.32,0.3
		c-0.66,0.3-1.12,1.14-0.95,1.76c0.18,0.64,0.91,1.05,1.74,0.96C1419.75,145.39,1420.62,144.19,1420.57,142.54z"/>
	<path class="st3" d="M1439.68,142.59c-0.28,1.42,0.57,2.67,1.88,2.91c0.92,0.17,1.79-0.05,2.64-0.39c0.23-0.09,0.45-0.19,0.78-0.33
		c-0.06,0.54-0.11,0.99-0.16,1.54c-0.4,0.13-0.82,0.29-1.24,0.39c-0.98,0.24-1.97,0.27-2.95,0.06c-1.56-0.33-2.45-1.25-2.67-2.84
		c-0.26-1.9,0.13-3.65,1.54-5.04c1.31-1.3,2.92-1.54,4.64-1.07c0.75,0.2,1.28,0.75,1.58,1.47c0.43,1.06,0.43,2.15,0.23,3.31
		C1443.84,142.59,1441.78,142.59,1439.68,142.59z M1444.3,141.32c0.28-1.04-0.22-2.05-1.15-2.34c-1.46-0.45-3.15,0.73-3.25,2.27
		C1440.35,141.44,1443.5,141.49,1444.3,141.32z"/>
	<path class="st3" d="M1393.52,142.6c-2.05,0-4.11,0-6.15,0c-0.39,1.3,0.45,2.62,1.77,2.89c0.76,0.16,1.48,0.03,2.19-0.21
		c0.4-0.13,0.79-0.31,1.27-0.5c-0.06,0.48-0.08,0.9-0.17,1.3c-0.03,0.14-0.21,0.29-0.35,0.35c-1.44,0.54-2.9,0.63-4.37,0.17
		c-1.1-0.34-1.8-1.13-2.04-2.24c-0.38-1.77-0.15-3.47,0.96-4.95c1.19-1.59,2.85-2.05,4.75-1.72c1.07,0.19,1.74,0.88,2.09,1.9
		C1393.71,140.34,1393.74,141.68,1393.52,142.6z M1391.97,141.29c0.25-1.37-0.52-2.36-1.83-2.39c-1.47-0.03-2.49,1.23-2.65,2.33
		c0,0.03,0.04,0.08,0.06,0.11C1388.37,141.47,1391.49,141.44,1391.97,141.29z"/>
	<path class="st3" d="M1500.57,136.07c-0.15,1.21-0.29,2.29-0.44,3.45c1.54,0.09,2.99-0.03,4.5,0.08c-0.07,0.53-0.12,0.97-0.19,1.5
		c-1.48,0.06-2.96,0-4.52,0.04c-0.25,1.84-0.49,3.63-0.74,5.49c-0.55,0-1.1,0-1.66,0c-0.11-0.71,0.85-8.55,1.48-12.03
		c0.48-0.15,5.58-0.19,6.49-0.03c-0.06,0.47-0.13,0.94-0.2,1.46c-0.82,0-1.59,0-2.35,0
		C1502.17,136.04,1501.41,136.06,1500.57,136.07z"/>
	<path class="st3" d="M1476.02,146.64c-0.57,0-1.06,0-1.64,0c0.09-0.75,0.17-1.46,0.26-2.17c0.12-1.01,0.26-2.01,0.36-3.02
		c0.04-0.42,0.03-0.86-0.03-1.28c-0.11-0.75-0.63-1.2-1.38-1.23c-1.06-0.05-1.88,0.38-2.46,1.27c-0.46,0.69-0.69,1.46-0.79,2.28
		c-0.15,1.14-0.29,2.28-0.44,3.42c-0.03,0.24-0.09,0.48-0.14,0.74c-0.52,0-1.01,0-1.49,0c-0.09-0.55,0.77-7.61,1.07-8.82
		c0.49,0,1,0,1.54,0c-0.03,0.34-0.06,0.65-0.11,1.06c0.2-0.13,0.33-0.19,0.43-0.28c1.07-1,2.36-1.18,3.73-0.9
		c0.99,0.2,1.66,0.97,1.77,1.98c0.06,0.49,0.08,0.99,0.02,1.48C1476.5,142.97,1476.26,144.77,1476.02,146.64z"/>
	<path class="st3" d="M1377.21,146.65c-0.56,0-1.03,0-1.49,0c-0.09-0.54,0.73-7.33,1.07-8.82c0.47,0,0.95,0,1.49,0
		c-0.03,0.37-0.05,0.72-0.09,1.17c0.2-0.16,0.34-0.26,0.46-0.37c1.05-1,2.31-1.18,3.66-0.92c1.05,0.2,1.64,0.91,1.8,1.95
		c0.07,0.49,0.09,0.99,0.04,1.48c-0.19,1.66-0.42,3.31-0.63,4.96c-0.02,0.17-0.07,0.35-0.11,0.54c-0.52,0-1,0-1.54,0
		c0.01-0.26,0.01-0.48,0.04-0.69c0.19-1.45,0.4-2.9,0.56-4.36c0.05-0.51,0.02-1.04-0.07-1.54c-0.13-0.7-0.62-1.07-1.34-1.11
		c-1.06-0.06-1.89,0.36-2.48,1.24c-0.48,0.71-0.7,1.51-0.82,2.34C1377.58,143.87,1377.4,145.23,1377.21,146.65z"/>
	<path class="st3" d="M1483.14,145.38c-0.04,0.36-0.03,0.72-0.12,1.05c-0.04,0.15-0.26,0.31-0.43,0.35
		c-0.66,0.14-1.34,0.19-2.01,0.03c-1.04-0.25-1.61-1.11-1.47-2.25c0.19-1.5,0.39-2.99,0.58-4.49c0.04-0.29,0.05-0.58,0.09-0.96
		c-0.66,0-1.28,0-1.97,0c0.07-0.49,0.12-0.87,0.18-1.33c0.66,0,1.28,0,1.96,0c0.11-0.71,0.22-1.37,0.33-2.07
		c0.54-0.17,1.07-0.33,1.7-0.53c-0.1,0.86-0.19,1.65-0.29,2.49c0.76,0.19,1.51,0,2.3,0.14c-0.05,0.42-0.09,0.81-0.14,1.26
		c-0.77,0-1.51,0-2.25,0c-0.06,0.18-0.13,0.3-0.15,0.42c-0.2,1.52-0.4,3.03-0.58,4.55c-0.03,0.26-0.01,0.55,0.08,0.79
		c0.16,0.43,0.51,0.7,0.99,0.68C1482.31,145.51,1482.68,145.43,1483.14,145.38z"/>
	<path class="st3" d="M1396.2,146.63c-0.56,0-1.05,0-1.62,0c0.38-2.95,0.76-5.84,1.15-8.8c0.48,0,0.93,0,1.44,0c0,0.3,0,0.6,0,1.02
		c0.72-0.53,1.29-1.16,2.14-1.22c0.42-0.03,0.85-0.01,1.28-0.01c0.16,0.53-0.04,0.95-0.08,1.47c-0.26-0.03-0.5-0.08-0.73-0.08
		c-0.87-0.01-1.56,0.36-2.09,1.05c-0.56,0.74-0.82,1.6-0.95,2.5C1396.55,143.89,1396.38,145.23,1396.2,146.63z"/>
	<path class="st3" d="M1412.01,137.81c0.57,0,1.05,0,1.62,0c-0.39,2.96-0.77,5.88-1.16,8.82c-0.54,0-1.03,0-1.61,0
		C1411.21,143.69,1411.63,140.78,1412.01,137.81z"/>
	<path class="st3" d="M1415.36,134.06c-0.76,0.81-1.44,1.56-2.15,2.28c-0.35,0.36-0.79,0.12-1.19,0.18
		c-0.02-0.04-0.05-0.08-0.07-0.12c0.55-0.73,1.1-1.47,1.66-2.19c0.06-0.08,0.19-0.14,0.29-0.14
		C1414.38,134.06,1414.87,134.06,1415.36,134.06z"/>
</g>
<g>
	<path class="st3" d="M1852.87,105.8c-1.41,2.22-2.96,4.18-4.48,6.17c-1.58,2.06-3.36,3.91-5.79,5c-2.16,0.97-4.43,1.2-6.74,0.74
		c-2.26-0.46-3.84-1.97-5.17-3.75c-0.94-1.25-1.6-2.66-2.26-4.12c-0.27,0.2-0.35,0.46-0.48,0.69c-1.17,2.07-2.41,4.1-4.31,5.58
		c-2.87,2.24-6.19,3.04-9.79,2.9c-3.27-0.13-5.88-1.66-8.2-3.81c-3.1-2.88-4.62-6.54-5.21-10.65c-0.26-1.81-0.52-3.63-0.54-5.46
		c-0.01-0.93,0.12-1.85,0.22-2.77c0.03-0.34,0.05-0.67,0.01-1.04c-1,1.22-2.24,2.22-3,3.63c-2.44,4.51-5.05,8.92-6.83,13.75
		c-0.31,0.85-0.77,1.63-1.33,2.35c-1.45,1.87-4.58,2.36-6.08-0.52c-0.82-1.57-1.17-3.27-1.37-5c-0.48-4.09-1.5-8.06-2.52-12.03
		c-0.28-1.07-0.79-2.07-1.48-3.07c-0.43,0.71-0.56,1.44-0.72,2.14c-0.29,1.27-0.41,2.56-0.4,3.86c0.01,1.47-0.24,2.91-0.44,4.35
		c-0.23,1.68-0.07,3.39-0.19,5.07c-0.15,2.08-0.03,4.18-0.51,6.23c-0.75,3.22-2.88,5.01-6.2,5.17c-4.91,0.24-8.15-1.82-10.11-6.52
		c-1.78-4.25-1.72-8.57-0.36-12.92c0.06-0.18,0.12-0.36,0.21-0.51c1.36-2.23,2.67-4.47,4.4-6.48c3.32-3.86,7.29-7.08,10.5-11.03
		c0.71-0.87,1.71-1.26,2.83-1.26c1.3-0.01,2.21,0.64,2.73,1.98c0.23,0.61,0.58,1.06,1.1,1.47c1.49,1.16,2.36,2.79,3.07,4.49
		c1.44,3.46,2.51,7.02,2.99,10.75c0.01,0.06,0.05,0.12,0.09,0.22c0.28-0.12,0.34-0.38,0.46-0.58c2.45-4.08,4.92-8.15,7.97-11.82
		c1.07-1.28,2.05-2.64,3.41-3.66c0.99-0.74,2.08-1.23,3.32-1.28c1.74-0.07,3.3,1.05,4.1,2.92c0.64,1.5,0.77,3.09,0.84,4.7
		c0.12,2.74-0.09,5.47-0.18,8.21c-0.11,3.57,1.05,6.6,3.38,9.22c1.13,1.27,2.62,1.58,4.24,1.49c0.47-0.03,0.26-0.34,0.21-0.55
		c-0.4-1.8-0.58-3.6-0.46-5.45c0.28-4.1,1.64-7.74,4.53-10.72c1.66-1.72,3.35-3.41,5.11-5.02c1.33-1.22,2.9-2.07,4.73-2.36
		c1.71-0.27,2.93,0.4,3.44,2.07c0.63,2.08,0.87,4.22,0.42,6.38c-0.07,0.32-0.14,0.63-0.2,0.95c-0.07,0.4-0.03,0.74,0.29,1.07
		c0.86,0.92,0.81,2.13,0.94,3.27c0.23,1.94,0.63,3.84,1.44,5.63c0.11,0.23,0.23,0.45,0.36,0.67c1.48,2.49,3.57,2.98,5.98,1.37
		c1.43-0.95,2.56-2.21,3.6-3.55c1.58-2.03,2.97-4.21,4.4-6.35c1.53-2.29,2.17-4.88,2.69-7.54c1.04-5.28,3.06-10.19,5.66-14.89
		c1.12-2.03,2.28-4.03,3.68-5.9c0.8-1.07,1.86-1.3,3.06-1.21c0.88,0.07,1.52,0.7,1.74,1.56c0.6,2.36,0.01,4.62-0.71,6.81
		c-1.71,5.25-3.93,10.3-6.19,15.34c-0.4,0.89-0.72,1.81-0.92,2.76c-0.41,1.9,0.23,3.61,0.9,5.33c1.1,2.81,2.98,4.75,5.93,5.62
		c1.15,0.34,2.28,0.79,3.41,1.2c0.35,0.13,0.7,0.26,1.03,0.42c2.47,1.23,2.65,3.91,0.37,5.5c-0.72,0.5-1.54,0.74-2.4,0.86
		c-3.11,0.41-6.11,0.2-8.82-1.62c-2.19-1.47-3.82-3.43-5.02-5.76C1853.14,106.31,1853.03,106.11,1852.87,105.8z M1825.66,96.55
		c-0.54,0.5-1.09,1-1.63,1.5c-1.85,1.69-3.4,3.6-4.3,5.98c-0.36,0.96-0.62,1.94-0.48,2.98c0.15,1.06,0.6,1.26,1.49,0.65
		c1.09-0.75,1.62-1.88,2.1-3.04c0.47-1.13,0.92-2.27,1.45-3.37C1825,99.76,1825.47,98.19,1825.66,96.55
		C1825.65,96.54,1825.66,96.55,1825.66,96.55z M1770.77,96.97c-1.68,2.15-3.48,4.21-5.29,6.26c-0.23,0.26-0.43,0.57-0.52,0.9
		c-0.46,1.72-1.09,3.4-1.38,5.16c-0.31,1.93,0.67,3.71,2.33,4.38c1.49,0.6,2.85,0.03,3.48-1.45c0.27-0.64,0.4-1.33,0.53-2.01
		c0.52-2.75,0.53-5.53,0.61-8.31C1770.58,100.25,1770.68,98.61,1770.77,96.97L1770.77,96.97z"/>
	<path class="st3" d="M1671.79,75.53c1.18-1.52,2.33-2.96,3.58-4.34c2.98-3.28,6.4-5.92,10.68-7.29c0.78-0.25,1.57-0.41,2.38-0.47
		c1.1-0.09,2.12,0.16,3.02,0.82c2.41,1.76,3.64,4.23,4.09,7.1c0.54,3.36-0.44,6.48-1.8,9.5c-2.52,5.61-6.53,9.97-11.4,13.62
		c-2.86,2.14-5.68,4.34-8.93,5.9c-1.13,0.54-2.26,1.06-3.48,1.39c-0.47,0.13-0.92,0.32-1.38,0.47c-1.09,0.35-1.67,1.06-1.73,2.24
		c-0.1,2.11-1.01,4.04-1.42,6.08c-0.49,2.51-0.88,5.02-0.91,7.58c-0.03,2.69-2.83,4.79-5.32,4.06c-1.04-0.3-1.72-1.03-2.16-1.94
		c-1.12-2.33-1.81-4.7-0.76-7.29c0.57-1.4,0.67-2.93,0.89-4.42c0.31-2.06,1.25-3.93,1.66-5.95c0.54-2.66,1.52-5.2,2.08-7.86
		c1.09-5.24,1.93-10.52,2.92-15.78c0.46-2.44,0.19-4.73-0.53-7.03c-0.36-1.15-0.3-2.3,0.03-3.43c0.48-1.63,1.99-2.41,3.69-1.96
		c1.39,0.37,2.32,1.31,3.04,2.5c1.03,1.71,1.38,3.62,1.56,5.57C1671.61,74.89,1671.55,75.18,1671.79,75.53z M1668.65,95.06
		c0.97-0.37,1.72-0.73,2.41-1.2c2.88-1.94,5.88-3.7,8.44-6.1c1.64-1.54,3.46-2.87,4.84-4.68c2.07-2.7,3.32-5.83,4.69-8.89
		c0.14-0.31,0.2-0.67,0.24-1.01c0.15-1.46-0.82-2.28-2.25-1.91c-0.91,0.24-1.71,0.72-2.46,1.27c-2.58,1.89-4.85,4.13-6.82,6.62
		c-2.26,2.86-4.1,6.01-5.93,9.16C1670.58,90.43,1669.71,92.7,1668.65,95.06z"/>
	<path class="st3" d="M1692.83,112.46c1.44,0.95,2.94,1.28,4.5,1.35c4.06,0.17,7.56-1.16,10.39-4.12c2.44-2.55,4.53-5.34,5.84-8.65
		c0.39-0.97,0.59-2,0.78-3.02c0.31-1.59,1.09-2.74,2.79-3.07c0.97-0.18,1.85,0.05,2.62,0.64c0.37,0.28,0.54,0.25,0.81-0.12
		c0.94-1.29,1.85-2.61,2.91-3.81c3.33-3.78,8.64-4.46,12.89-2.77c1.3,0.52,2.36,1.41,3.05,2.64c0.93,1.63,0.28,3.29-1.5,3.91
		c-1.05,0.37-2.16,0.39-3.23,0.23c-3.04-0.46-5.26,0.82-7.03,3.15c-0.72,0.94-1.35,1.95-1.88,3.01c-1.37,2.76-2.79,5.5-4.26,8.21
		c-1.18,2.17-2.03,4.47-2.57,6.88c-0.24,1.07-0.61,2.09-1.28,2.98c-1.43,1.93-4.21,2.18-5.95,0.53c-0.49-0.46-0.77-1.03-0.75-1.73
		c0.02-0.64,0.06-1.28-0.23-1.91c-0.18-0.4-0.3-0.44-0.7-0.25c-1.58,0.78-3.05,1.77-4.72,2.37c-5.12,1.83-10.17,2-15.04-0.77
		c-2.03-1.15-3.83-2.6-4.74-4.83c-0.85-2.06-1.22-4.23-1.38-6.49c-0.31-4.35,1.14-8.12,3.38-11.67c1.77-2.8,4.55-4.46,7.38-5.98
		c1.67-0.9,3.5-1.28,5.42-1.3c3.19-0.03,5.3,1.53,6.63,4.31c1.46,3.06,1.15,6.02-0.58,8.89c-1.3,2.16-3.05,3.9-4.94,5.53
		c-2.23,1.92-4.39,3.94-7.12,5.18C1693.88,111.98,1693.4,112.2,1692.83,112.46z M1690.68,105.13c-0.03,1.16-0.03,1.16,0.73,0.84
		c0.9-0.39,1.73-0.89,2.52-1.46c1.93-1.42,3.58-3.15,5.32-4.78c0.84-0.79,1.72-1.56,2.41-2.5c1-1.36,0.47-2.77-1.16-3.11
		c-0.5-0.1-1.02-0.1-1.52,0.02c-2.3,0.56-4.12,1.92-5.67,3.6C1691.32,99.89,1691.31,102.82,1690.68,105.13z"/>
	<path class="st3" d="M1748.16,94.44c0.1,2.83,0.89,5.38,1.67,7.93c1.02,3.37,2.33,6.65,3.04,10.11c0.37,1.81,0.49,3.63-0.03,5.44
		c-0.52,1.83-1.62,3.22-3.27,4.15c-2.82,1.59-5.88,2.09-9.06,1.85c-3-0.23-5.68-1.3-7.91-3.37c-3.18-2.96-3.88-7.94-1.66-11.68
		c0.73-1.23,1.76-2.16,3.01-2.83c1.59-0.84,2.91-0.04,2.98,1.75c0.03,0.86-0.19,1.67-0.54,2.42c-0.57,1.23-0.28,2.51-0.25,3.76
		c0.01,0.41,0.31,0.73,0.64,0.96c2.42,1.64,5.73,1.68,8.04,0.25c1.35-0.84,1.64-2.11,1.38-3.57c-0.21-1.17-0.67-2.26-1.12-3.36
		c-1.59-3.89-2.86-7.89-3.47-12.06c-0.69-4.7-0.12-9.16,3.07-12.91c2.76-3.24,6.24-5.23,10.63-5.24c1.13,0,2.2,0.3,3.15,0.96
		c1.32,0.93,1.61,2.37,1.89,3.82c0.22,1.18-0.02,2.31-0.5,3.39c-1.28,2.85-2.13,5.83-2.71,8.89c-0.33,1.75-1.14,3.15-3.04,3.57
		c-2.04,0.45-3.64-0.71-3.94-2.78c-0.22-1.54,0.11-3,0.64-4.42c0.54-1.45,1.16-2.88,1.73-4.32c0.08-0.21,0.27-0.48,0.08-0.65
		c-0.19-0.17-0.42,0.07-0.62,0.16c-0.4,0.2-0.75,0.48-1.03,0.82C1749.26,89.53,1748.24,91.86,1748.16,94.44z"/>
	<path class="st3" d="M1825.66,96.55C1825.66,96.55,1825.65,96.54,1825.66,96.55C1825.65,96.54,1825.66,96.55,1825.66,96.55z"/>
	<path class="st3" d="M1770.77,96.97C1770.77,96.97,1770.76,96.97,1770.77,96.97C1770.76,96.97,1770.77,96.97,1770.77,96.97z"/>
</g>
<g>
	<path class="st4" d="M1622.4-315.91c-0.19-0.32-0.55-0.57-0.79-0.3c-0.31,0.34,0.22,0.48,0.39,0.7c3.12,3.57,7.39,4.47,11.8,4.75
		c12.33,0.79,21.14-6.89,21.86-17.1c0.65-9.13-3-16.63-10.18-22.28c-10.21-8.04-26.16-6.93-34.29,2.49
		c2.19-0.72,4.09-1.43,6.03-1.97c5.73-1.6,11.37-1.95,16.81,1.15c6.69,3.81,9.79,9.65,10.58,17.13c0.82,7.81-4.37,15.07-12.07,16.7
		C1628.94-313.87,1625.7-314.82,1622.4-315.91z M1690.58-334.48c0.21,0.02,0.41,0.03,0.62,0.05c0.27,0.84,0.56,1.67,0.81,2.51
		c2.3,7.55,4.57,15.1,6.91,22.64c1.17,3.75,3.24,5.14,6.67,4.69c2.7-0.36,3.86-2.27,4.67-4.56c2.83-8.03,5.68-16.05,8.49-24.08
		c1.7-4.85,3.7-9.61,4.92-14.61c0.87-3.57-1.06-6.11-4.73-6.46c-3.38-0.32-5.3,1.08-6.5,4.97c-2.22,7.2-4.35,14.43-6.55,21.63
		c-0.33,1.1-0.46,2.32-1.49,3.4c-0.29-0.73-0.51-1.21-0.66-1.7c-2.35-7.81-4.66-15.62-7.05-23.42c-1.08-3.51-2.84-4.93-5.77-4.92
		c-3,0-4.69,1.39-5.77,4.9c-1.33,4.32-2.58,8.66-3.9,12.99c-1.23,4.03-2.49,8.05-3.78,12.21c-0.92-0.8-0.98-1.64-1.21-2.39
		c-2.32-7.63-4.6-15.28-6.94-22.9c-1.22-3.97-4.27-5.71-7.73-4.52c-3.1,1.07-4.34,4.18-3.07,7.92c1.49,4.36,3.03,8.71,4.57,13.05
		c2.8,7.94,5.59,15.89,8.44,23.82c1.29,3.58,2.89,4.79,5.93,4.73c2.85-0.05,4.33-1.35,5.49-4.88c0.55-1.68,1.03-3.39,1.55-5.09
		C1686.52-321.16,1688.55-327.82,1690.58-334.48z M1558.53-325.04c0-4.88,0.06-9.77-0.03-14.65c-0.03-1.76,0.61-2.36,2.34-2.28
		c2.32,0.11,4.64,0.07,6.96,0.04c3.84-0.05,5.9-1.83,5.9-5.03c0-3.16-2.03-4.89-5.94-4.97c-2.41-0.05-4.82-0.05-7.23,0
		c-1.48,0.03-1.97-0.58-2.03-2.06c-0.33-8.61,6.72-13.72,15.11-10.89c3.47,1.17,6.14,0.1,7.19-2.89c0.9-2.57-0.6-5.15-3.79-6.32
		c-12.02-4.43-29.44,0.13-30,20.15c-0.41,14.38-0.13,28.77-0.09,43.16c0.01,3.96,2.41,6.37,6.01,6.33c3.31-0.03,5.57-2.6,5.6-6.47
		C1558.56-315.63,1558.53-320.34,1558.53-325.04z M1584.32-340.07C1584.31-340.07,1584.31-340.07,1584.32-340.07
		c-0.01,9.6-0.02,19.2,0,28.79c0.01,4.1,2.18,6.64,5.62,6.72c3.52,0.08,5.76-2.28,5.98-6.4c0.09-1.68,0.02-3.38,0.02-5.06
		c0-17.42-0.01-34.84,0.01-52.26c0-2.41-0.4-4.64-2.55-6.11c-1.83-1.25-3.81-1.46-5.83-0.44c-2.44,1.24-3.26,3.38-3.26,5.96
		C1584.32-359.27,1584.32-349.67,1584.32-340.07z M1648.13-311.61c-1.28,0.55-2.22,0.97-3.17,1.36
		c-12.99,5.28-28.25-0.19-30.49-15.76c-1.8-12.5,8.62-21.55,20.64-17.57c0.65,0.21,1.3,1.03,2.18,0.29
		c-0.13-0.26-0.2-0.52-0.37-0.71c-0.29-0.33-0.61-0.66-0.96-0.92c-6.87-4.91-14.15-5.54-21.64-1.69
		c-7.36,3.79-11.66,9.82-11.08,18.22c1.45,21.1,22.43,30.12,39.92,22.05C1645.28-307.3,1647.28-308.68,1648.13-311.61z"/>
	<path class="st3" d="M1690.58-334.48c-2.03,6.66-4.06,13.33-6.09,19.99c-0.52,1.7-1,3.4-1.55,5.09c-1.15,3.53-2.64,4.83-5.49,4.88
		c-3.04,0.05-4.64-1.15-5.93-4.73c-2.85-7.93-5.64-15.87-8.44-23.82c-1.53-4.35-3.08-8.69-4.57-13.05
		c-1.27-3.74-0.04-6.86,3.07-7.92c3.45-1.19,6.51,0.56,7.73,4.52c2.34,7.62,4.63,15.27,6.94,22.9c0.23,0.75,0.3,1.59,1.21,2.39
		c1.29-4.16,2.56-8.18,3.78-12.21c1.32-4.32,2.56-8.67,3.9-12.99c1.08-3.51,2.77-4.9,5.77-4.9c2.93,0,4.69,1.41,5.77,4.92
		c2.39,7.79,4.7,15.61,7.05,23.42c0.15,0.49,0.37,0.97,0.66,1.7c1.03-1.08,1.16-2.31,1.49-3.4c2.2-7.21,4.33-14.43,6.55-21.63
		c1.2-3.89,3.12-5.29,6.5-4.97c3.67,0.35,5.6,2.88,4.73,6.46c-1.22,5-3.22,9.76-4.92,14.61c-2.81,8.03-5.66,16.05-8.49,24.08
		c-0.81,2.28-1.96,4.2-4.67,4.56c-3.43,0.45-5.51-0.94-6.67-4.69c-2.34-7.53-4.61-15.09-6.91-22.64c-0.26-0.84-0.54-1.67-0.81-2.51
		C1690.99-334.45,1690.79-334.46,1690.58-334.48z"/>
	<path class="st3" d="M1558.53-325.04c0,4.71,0.03,9.41-0.01,14.12c-0.03,3.87-2.29,6.43-5.6,6.47c-3.6,0.04-6-2.37-6.01-6.33
		c-0.04-14.39-0.32-28.78,0.09-43.16c0.57-20.02,17.98-24.58,30-20.15c3.19,1.17,4.69,3.75,3.79,6.32
		c-1.05,2.98-3.72,4.06-7.19,2.89c-8.39-2.84-15.44,2.28-15.11,10.89c0.06,1.48,0.55,2.09,2.03,2.06c2.41-0.05,4.82-0.05,7.23,0
		c3.91,0.08,5.95,1.8,5.94,4.97c0,3.2-2.06,4.97-5.9,5.03c-2.32,0.03-4.64,0.07-6.96-0.04c-1.73-0.08-2.37,0.52-2.34,2.28
		C1558.59-334.81,1558.53-329.93,1558.53-325.04z"/>
	<path class="st3" d="M1584.32-340.07c0-9.6,0-19.2,0-28.79c0-2.58,0.82-4.72,3.26-5.96c2.02-1.03,4-0.81,5.83,0.44
		c2.15,1.47,2.55,3.7,2.55,6.11c-0.02,17.42-0.01,34.84-0.01,52.26c0,1.69,0.07,3.38-0.02,5.06c-0.22,4.12-2.46,6.49-5.98,6.4
		c-3.44-0.08-5.61-2.62-5.62-6.72C1584.29-320.88,1584.31-330.48,1584.32-340.07C1584.31-340.07,1584.31-340.07,1584.32-340.07z"/>
	<path class="st3" d="M1648.13-311.61c-0.85,2.92-2.86,4.31-4.97,5.28c-17.5,8.08-38.48-0.95-39.92-22.05
		c-0.58-8.4,3.73-14.43,11.08-18.22c7.49-3.86,14.77-3.22,21.64,1.69c0.36,0.26,0.67,0.59,0.96,0.92c0.16,0.19,0.24,0.45,0.37,0.71
		c-0.87,0.74-1.53-0.08-2.18-0.29c-12.03-3.99-22.45,5.06-20.64,17.57c2.24,15.57,17.5,21.03,30.49,15.76
		C1645.92-310.63,1646.85-311.05,1648.13-311.61z"/>
	<path class="st3" d="M1622.4-315.91c3.3,1.09,6.54,2.04,10.16,1.27c7.7-1.64,12.89-8.89,12.07-16.7
		c-0.79-7.48-3.89-13.32-10.58-17.13c-5.45-3.1-11.08-2.75-16.81-1.15c-1.94,0.54-3.84,1.25-6.03,1.97
		c8.13-9.41,24.07-10.53,34.29-2.49c7.18,5.65,10.82,13.15,10.18,22.28c-0.72,10.21-9.53,17.89-21.86,17.1
		c-4.41-0.28-8.67-1.18-11.8-4.75C1622.14-315.64,1622.27-315.77,1622.4-315.91z"/>
	<path class="st3" d="M1622-315.51c-0.18-0.22-0.71-0.36-0.39-0.7c0.24-0.27,0.6-0.02,0.79,0.3
		C1622.27-315.77,1622.14-315.64,1622-315.51z"/>
</g>
</svg>
