<?xml version="1.0" encoding="utf-8"?>
<!-- Generator: Adobe Illustrator 24.0.2, SVG Export Plug-In . SVG Version: 6.00 Build 0)  -->
<svg version="1.1" id="Capa_1" xmlns="http://www.w3.org/2000/svg" xmlns:xlink="http://www.w3.org/1999/xlink" x="0px" y="0px"
	 viewBox="0 0 1920 201.89" style="enable-background:new 0 0 1920 201.89;" xml:space="preserve">
<style type="text/css">
	.st0{fill:#F6F6F6;}
	.st1{fill:#FEFFFF;}
	.st2{fill:#575756;}
	.st3{fill:#B1B1B1;}
</style>
<rect class="st0" width="1920" height="201.89"/>
<g>
	<path class="st1" d="M1079.55,128.54c-0.22-0.37-0.64-0.67-0.92-0.35c-0.36,0.4,0.26,0.56,0.46,0.82
		c3.65,4.17,8.64,5.22,13.79,5.55c14.41,0.92,24.71-8.05,25.55-19.98c0.76-10.67-3.51-19.44-11.9-26.04
		c-11.93-9.4-30.57-8.1-40.07,2.91c2.56-0.84,4.78-1.67,7.05-2.3c6.7-1.87,13.29-2.28,19.65,1.34c7.82,4.45,11.44,11.28,12.36,20.02
		c0.96,9.13-5.11,17.61-14.11,19.52C1087.2,130.92,1083.41,129.81,1079.55,128.54z M1159.23,106.83c0.25,0.02,0.48,0.04,0.72,0.06
		c0.32,0.98,0.65,1.95,0.95,2.93c2.69,8.82,5.34,17.65,8.08,26.46c1.37,4.38,3.79,6.01,7.8,5.48c3.16-0.42,4.51-2.65,5.46-5.33
		c3.31-9.38,6.64-18.76,9.92-28.14c1.99-5.67,4.32-11.23,5.75-17.07c1.02-4.17-1.24-7.14-5.53-7.55c-3.95-0.37-6.19,1.26-7.6,5.81
		c-2.59,8.41-5.08,16.86-7.66,25.28c-0.39,1.29-0.54,2.71-1.74,3.97c-0.34-0.85-0.6-1.41-0.77-1.99
		c-2.75-9.13-5.45-18.26-8.24-27.37c-1.26-4.1-3.32-5.76-6.74-5.75c-3.51,0-5.48,1.62-6.74,5.73c-1.55,5.05-3.02,10.12-4.56,15.18
		c-1.44,4.71-2.91,9.41-4.42,14.27c-1.08-0.93-1.15-1.92-1.41-2.79c-2.71-8.92-5.38-17.86-8.11-26.76
		c-1.43-4.64-4.99-6.67-9.03-5.28c-3.62,1.25-5.07,4.89-3.59,9.26c1.74,5.1,3.54,10.18,5.34,15.25c3.27,9.28,6.53,18.57,9.86,27.84
		c1.51,4.18,3.38,5.6,6.93,5.53c3.33-0.06,5.06-1.58,6.42-5.7c0.64-1.96,1.2-3.96,1.81-5.95
		C1154.49,122.4,1156.86,114.62,1159.23,106.83z M1004.91,117.87c0-5.7,0.07-11.42-0.04-17.12c-0.04-2.06,0.71-2.76,2.73-2.66
		c2.71,0.13,5.42,0.08,8.13,0.05c4.49-0.06,6.9-2.14,6.9-5.88c0-3.69-2.37-5.71-6.94-5.81c-2.82-0.06-5.63-0.06-8.45,0
		c-1.73,0.04-2.3-0.68-2.37-2.41c-0.39-10.06,7.85-16.03,17.66-12.73c4.06,1.37,7.18,0.12,8.4-3.38c1.05-3-0.7-6.02-4.43-7.39
		c-14.05-5.18-34.41,0.15-35.06,23.55c-0.48,16.81-0.15,33.62-0.11,50.44c0.01,4.63,2.82,7.44,7.02,7.4
		c3.87-0.04,6.51-3.04,6.54-7.56C1004.94,128.86,1004.91,123.36,1004.91,117.87z M1035.05,100.3
		C1035.04,100.3,1035.04,100.3,1035.05,100.3c-0.01,11.22-0.02,22.44,0,33.65c0.01,4.79,2.55,7.76,6.57,7.85
		c4.11,0.09,6.73-2.66,6.99-7.48c0.11-1.96,0.02-3.95,0.02-5.91c0-20.36-0.01-40.72,0.01-61.08c0-2.82-0.47-5.42-2.98-7.14
		c-2.14-1.46-4.45-1.71-6.81-0.51c-2.85,1.45-3.81,3.95-3.81,6.97C1035.05,77.86,1035.05,89.08,1035.05,100.3z M1109.62,133.56
		c-1.5,0.64-2.59,1.13-3.7,1.59c-15.18,6.17-33.02-0.22-35.63-18.42c-2.1-14.61,10.07-25.19,24.12-20.53
		c0.76,0.25,1.52,1.2,2.55,0.34c-0.15-0.3-0.23-0.61-0.43-0.83c-0.34-0.39-0.71-0.77-1.12-1.08c-8.03-5.74-16.54-6.47-25.29-1.98
		c-8.6,4.43-13.63,11.48-12.95,21.29c1.69,24.66,26.21,35.2,46.65,25.77C1106.29,138.6,1108.63,136.99,1109.62,133.56z"/>
	<path class="st2" d="M1159.23,106.83c-2.37,7.78-4.74,15.58-7.12,23.36c-0.61,1.99-1.17,3.97-1.81,5.95
		c-1.34,4.13-3.09,5.64-6.42,5.7c-3.55,0.06-5.42-1.34-6.93-5.53c-3.33-9.27-6.59-18.55-9.86-27.84c-1.79-5.08-3.6-10.16-5.34-15.25
		c-1.48-4.37-0.05-8.02,3.59-9.26c4.03-1.39,7.61,0.65,9.03,5.28c2.73,8.91,5.41,17.85,8.11,26.76c0.27,0.88,0.35,1.86,1.41,2.79
		c1.51-4.86,2.99-9.56,4.42-14.27c1.54-5.05,2.99-10.13,4.56-15.18c1.26-4.1,3.24-5.73,6.74-5.73c3.42,0,5.48,1.65,6.74,5.75
		c2.79,9.1,5.49,18.24,8.24,27.37c0.18,0.57,0.43,1.13,0.77,1.99c1.2-1.26,1.36-2.7,1.74-3.97c2.57-8.43,5.06-16.86,7.66-25.28
		c1.4-4.55,3.65-6.18,7.6-5.81c4.29,0.41,6.54,3.37,5.53,7.55c-1.43,5.84-3.76,11.41-5.75,17.07c-3.28,9.38-6.61,18.76-9.92,28.14
		c-0.95,2.66-2.29,4.91-5.46,5.33c-4.01,0.53-6.44-1.1-7.8-5.48c-2.73-8.8-5.39-17.64-8.08-26.46c-0.3-0.98-0.63-1.95-0.95-2.93
		C1159.71,106.87,1159.48,106.86,1159.23,106.83z"/>
	<path class="st2" d="M1004.91,117.87c0,5.5,0.04,11-0.01,16.5c-0.04,4.52-2.68,7.51-6.54,7.56c-4.21,0.05-7.01-2.77-7.02-7.4
		c-0.05-16.82-0.37-33.64,0.11-50.44c0.67-23.4,21.01-28.73,35.06-23.55c3.73,1.37,5.48,4.38,4.43,7.39
		c-1.23,3.48-4.35,4.74-8.4,3.38c-9.81-3.32-18.04,2.66-17.66,12.73c0.07,1.73,0.64,2.44,2.37,2.41c2.82-0.06,5.63-0.06,8.45,0
		c4.57,0.09,6.95,2.1,6.94,5.81c0,3.74-2.41,5.81-6.9,5.88c-2.71,0.04-5.42,0.08-8.13-0.05c-2.02-0.09-2.77,0.61-2.73,2.66
		C1004.98,106.45,1004.91,112.15,1004.91,117.87z"/>
	<path class="st2" d="M1035.05,100.3c0-11.22,0-22.44,0-33.65c0-3.02,0.96-5.52,3.81-6.97c2.36-1.2,4.67-0.95,6.81,0.51
		c2.51,1.72,2.98,4.32,2.98,7.14c-0.02,20.36-0.01,40.72-0.01,61.08c0,1.98,0.08,3.95-0.02,5.91c-0.26,4.82-2.88,7.58-6.99,7.48
		c-4.02-0.09-6.56-3.06-6.57-7.85C1035.01,122.73,1035.04,111.51,1035.05,100.3C1035.04,100.3,1035.04,100.3,1035.05,100.3z"/>
	<path class="st2" d="M1109.62,133.56c-0.99,3.41-3.34,5.04-5.81,6.17c-20.45,9.44-44.97-1.11-46.65-25.77
		c-0.68-9.82,4.36-16.86,12.95-21.29c8.75-4.51,17.26-3.76,25.29,1.98c0.42,0.3,0.78,0.69,1.12,1.08c0.19,0.22,0.28,0.53,0.43,0.83
		c-1.02,0.86-1.79-0.09-2.55-0.34c-14.06-4.66-26.24,5.91-24.12,20.53c2.62,18.2,20.45,24.58,35.63,18.42
		C1107.04,134.71,1108.13,134.22,1109.62,133.56z"/>
	<path class="st2" d="M1079.55,128.54c3.86,1.27,7.64,2.38,11.87,1.48c9-1.92,15.06-10.39,14.11-19.52
		c-0.92-8.74-4.55-15.57-12.36-20.02c-6.37-3.62-12.95-3.21-19.65-1.34c-2.27,0.63-4.49,1.46-7.05,2.3
		c9.5-11,28.13-12.31,40.07-2.91c8.39,6.6,12.65,15.37,11.9,26.04c-0.84,11.93-11.14,20.91-25.55,19.98
		c-5.15-0.33-10.13-1.38-13.79-5.55C1079.25,128.85,1079.4,128.7,1079.55,128.54z"/>
	<path class="st2" d="M1079.08,129.01c-0.21-0.26-0.83-0.42-0.46-0.82c0.28-0.32,0.7-0.02,0.92,0.35
		C1079.4,128.7,1079.25,128.85,1079.08,129.01z"/>
</g>
<g>
	<path class="st2" d="M201.94,82.38c0.04,12.51-2.38,24.56-6.99,36.17c-0.25,0.63-0.89,1.27-1.51,1.57
		c-10.93,5.24-22.46,8.27-34.53,9.42c-11.19,1.06-22.24,0.25-33.17-2.23c-7.23-1.64-14.19-4.08-20.85-7.33
		c-0.57-0.28-1.1-0.93-1.34-1.54c-5.23-13.15-7.5-26.83-6.85-40.95c0.5-10.95,2.82-21.54,6.95-31.7c0.25-0.62,0.92-1.23,1.55-1.52
		c11.62-5.52,23.86-8.65,36.7-9.57c11.89-0.85,23.61,0.17,35.04,3.48c5.54,1.61,10.89,3.91,16.28,6.01c0.74,0.29,1.5,1.11,1.8,1.86
		C199.66,57.7,202.02,69.81,201.94,82.38z M148.56,38.05c-14.34,0.38-27.52,3.07-40.02,8.79c-0.76,0.35-1.62,1.05-1.9,1.79
		c-2.92,7.7-4.88,15.65-5.7,23.85c-1.46,14.79,0.36,29.17,5.62,43.07c0.29,0.76,1.03,1.58,1.77,1.92c9.02,4.13,18.47,6.82,28.3,8.01
		c9.41,1.14,18.82,1.03,28.21-0.44c8.83-1.38,17.3-3.87,25.42-7.55c0.7-0.32,1.4-1.08,1.68-1.8c2.95-7.59,4.8-15.47,5.64-23.56
		c1.56-14.89-0.37-29.36-5.64-43.36c-0.29-0.76-1.04-1.56-1.77-1.9C176.76,40.77,162.62,38.03,148.56,38.05z"/>
	<path class="st3" d="M159.14,144.48c-4.32-0.64-8.78-0.33-13.18-0.45c-1.08-0.03-0.9,0.77-0.9,1.4c-0.01,3.38-0.01,6.76-0.01,10.14
		c0.01,0,0.01,0,0.02,0c0,3.38,0.01,6.76-0.01,10.14c0,0.78,0.14,1.27,1.08,1.25c3.94-0.08,7.9,0.07,11.83-0.23
		c5.79-0.44,10.04-4.77,10.34-10.14C168.68,150.07,165.45,145.41,159.14,144.48z M157.9,163.11c-2.53,0.32-5.12,0.2-7.68,0.29
		c-0.83,0.03-1.03-0.41-1.02-1.15c0.02-4.51,0.02-9.03,0-13.54c0-0.79,0.27-1.12,1.07-1.09c1.08,0.04,2.15,0.01,3.23,0.01
		c0-0.04,0.01-0.08,0.01-0.12c1.58,0.14,3.18,0.16,4.73,0.45c3.89,0.74,6.08,3.56,6.03,7.56
		C164.22,159.7,161.91,162.61,157.9,163.11z"/>
	<path class="st3" d="M224.81,160.14c0.27-0.19,0.42-0.33,0.6-0.41c3.13-1.49,4.28-3.62,3.64-6.75c-0.53-2.62-2.74-4.24-5.95-4.31
		c-2-0.04-4-0.01-6-0.01c-2.09,0-4.18,0-6.38,0c0,6.24,0,12.17,0,18.16c1.39,0,2.69,0,4.13,0c0-2.23,0-4.32,0-6.46
		c2.85-0.27,5.56-0.72,7.08,2.46c0.37,0.77,1.05,1.38,1.58,2.08c1.66,2.19,3.42,2.71,6.23,1.78
		C228.1,164.49,226.48,162.34,224.81,160.14z M223.34,156.56c-2.55,0.1-5.11,0.08-7.66,0.04c-0.26,0-0.72-0.45-0.75-0.72
		c-0.09-0.96-0.12-1.95,0.02-2.9c0.04-0.3,0.65-0.71,1.02-0.74c1.17-0.1,2.35-0.04,3.52-0.04c0,0.01,0,0.02,0,0.03
		c1.23,0,2.45-0.05,3.68,0.01c1.28,0.06,2.15,0.71,2.19,2.07C225.4,155.65,224.64,156.51,223.34,156.56z"/>
	<path class="st3" d="M134.07,166.77c-2.37,0.46-4.24,0.32-5.88-1.83c-2.45-3.21-5.3-6.12-7.96-9.17c-0.33-0.38-0.56-0.84-0.83-1.26
		c-0.18,0.11-0.36,0.22-0.54,0.32c0,3.95,0,7.9,0,12.1c-1.27,0-2.33,0.08-3.37-0.05c-0.3-0.04-0.76-0.67-0.76-1.03
		c-0.05-5.38-0.05-10.76,0.02-16.15c0-0.36,0.65-0.94,1.08-1.02c1.94-0.35,3.42,0.23,4.77,1.88c2.88,3.52,6.02,6.82,9.3,10.48
		c0.09-0.68,0.18-1.04,0.18-1.39c0.01-3.08,0.08-6.15-0.02-9.23c-0.05-1.42,0.4-1.98,1.82-1.8c0.69,0.09,1.4,0.01,2.19,0.01
		C134.07,154.78,134.07,160.7,134.07,166.77z"/>
	<path class="st3" d="M248.99,163.41c0,1.27,0,2.31,0,3.56c-1.25,0-2.42,0-3.59,0c-3.85,0-7.7-0.03-11.55,0.02
		c-1.09,0.02-1.57-0.23-1.56-1.43c0.05-5.18,0.03-10.36,0.03-15.54c0-0.68-0.04-1.37,0.98-1.37c5.17,0.01,10.35,0.01,15.42,0.01
		c0.16,0.22,0.26,0.29,0.27,0.38c0.37,3.17,0.36,3.17-2.74,3.17c-3.22,0-6.45,0-9.77,0c0,1.28,0,2.43,0,3.77c3.21,0,6.37,0,9.65,0
		c0,1.28,0,2.37,0,3.61c-3.2,0-6.36,0-9.64,0c0,1.3,0,2.45,0,3.82C240.64,163.41,244.76,163.41,248.99,163.41z"/>
	<path class="st3" d="M81.29,148.62c-2.27-0.41-4.74-0.44-7,0c-5.84,1.13-8.86,6.91-6.84,12.51c1.48,4.09,5.02,6.24,10.29,6.35
		c1.16-0.15,2.35-0.22,3.49-0.46c4.6-0.99,7.41-4.44,7.44-9.06C88.7,153.03,86.07,149.48,81.29,148.62z M79.66,163.7
		c-0.65,0.11-1.33,0.11-1.64,0.13c-4.35-0.05-6.74-1.94-7.04-5.3c-0.33-3.65,1.45-6.07,5.09-6.58c1.43-0.2,2.98-0.13,4.39,0.18
		c2.77,0.61,4.3,2.99,4.15,6.01C84.47,161.15,82.66,163.2,79.66,163.7z"/>
	<path class="st3" d="M184.62,159.63c-2.7,0-5.3-0.03-7.9,0.02c-0.61,0.01-1.68,0.18-1.73,0.44c-0.19,0.98-0.12,2.03,0.03,3.02
		c0.03,0.18,0.9,0.32,1.38,0.32c3.13,0.03,6.26,0.02,9.39,0.02c0.55,0,1.1,0,1.56,0c0.15,0.26,0.23,0.34,0.24,0.43
		c0.26,3.09,0.26,3.09-2.86,3.09c-4.15,0-8.31-0.04-12.46,0.02c-1.17,0.02-1.48-0.39-1.47-1.51c0.05-5.08,0.07-10.15,0.01-15.23
		c-0.02-1.29,0.4-1.64,1.66-1.63c4.97,0.07,9.94,0.03,15.17,0.03c0,1.01,0.13,1.93-0.06,2.79c-0.08,0.34-0.86,0.73-1.33,0.74
		c-3.28,0.06-6.57,0.11-9.85,0c-1.55-0.05-1.59,0.74-1.59,1.89c0.01,1.17-0.04,2.1,1.64,2c2.15-0.14,4.31,0.07,6.46-0.06
		c1.55-0.1,2.04,0.49,1.83,1.92C184.65,158.41,184.66,158.91,184.62,159.63z"/>
	<path class="st3" d="M207.33,148.65c0.54,3.56,0.54,3.56-2.63,3.56c-2.82,0-5.64,0.03-8.47-0.01c-1-0.02-1.47,0.2-1.46,1.34
		c0.02,2.49-0.04,2.49,2.5,2.49c2.4,0,4.8,0,7.3,0c0,1.24,0,2.29,0,3.6c-1.61,0-3.23,0-4.85,0c-0.92,0-1.85-0.05-2.77,0.01
		c-0.69,0.04-1.89,0.07-1.96,0.34c-0.25,0.96-0.18,2.02-0.05,3.03c0.03,0.2,0.84,0.42,1.3,0.43c3.13,0.04,6.26,0.02,9.39,0.02
		c0.55,0,1.11,0,1.79,0c0,1.21,0,2.25,0,3.41c-5.51,0-10.97,0-16.5,0c-0.05-0.49-0.13-0.89-0.13-1.29
		c-0.01-5.13,0.03-10.26-0.02-15.39c-0.01-1.22,0.39-1.57,1.59-1.56C197.32,148.68,202.29,148.65,207.33,148.65z"/>
	<path class="st3" d="M91.49,166.95c0-6.14,0-12.07,0-18.29c1.11,0,2.22-0.07,3.31,0.05c0.29,0.03,0.72,0.65,0.73,1.02
		c0.08,1.64,0.08,3.28,0.02,4.92c-0.03,0.97,0.26,1.4,1.29,1.38c2.97-0.04,5.95-0.03,8.93,0c0.86,0.01,1.18-0.3,1.16-1.17
		c-0.05-1.99-0.02-3.98-0.02-6.09c1.42,0,2.66,0,4,0c0,6.03,0,12.01,0,18.09c-1.29,0-2.54,0-4,0c0-1.99-0.06-3.93,0.02-5.86
		c0.04-1.08-0.31-1.42-1.39-1.39c-2.87,0.07-5.75,0.07-8.62,0c-1.1-0.02-1.43,0.38-1.38,1.43c0.07,1.59-0.01,3.18,0.04,4.77
		c0.03,0.86-0.29,1.21-1.16,1.16C93.47,166.91,92.5,166.95,91.49,166.95z"/>
	<path class="st3" d="M60.15,144.12c1.34,0,2.55,0,3.76,0c0.07,0.08,0.2,0.16,0.2,0.24c0.02,4.97,0.22,9.94-0.03,14.9
		c-0.27,5.32-3.04,7.85-8.36,8.06c-2.09,0.08-4.19-0.17-6.28-0.24c-1.1-0.03-1.57-0.5-1.46-1.63c0.08-0.81,0.02-1.62,0.02-2.16
		c2.64,0.07,5.17,0.31,7.69,0.16c2.96-0.18,4.24-1.59,4.31-4.54c0.1-4.3,0.05-8.6,0.07-12.91
		C60.07,145.41,60.12,144.81,60.15,144.12z"/>
	<path class="st2" d="M134.88,105.05c-1.2-1.89-1.9-4.1-4.62-4.79c-2.73-0.69-4.65-2.75-6.3-4.95c-0.94-1.25-1.74-2.6-2.81-4.2
		c3.19,0.03,5.86,0.63,8.49,1.46c1.56,0.49,3.13,0.97,4.68,1.53c4.62,1.66,9.32,1.65,14.13,1.09c3.5-0.41,7.05-0.51,10.58-0.64
		c0.62-0.02,1.48,0.29,1.85,0.75c3.13,3.88,7.29,6.05,11.93,7.49c2.11,0.65,4.16,1.52,6.29,2.02c2.29,0.54,3.97,1.77,5.31,3.63
		c1.49,2.07,2.99,4.12,4.7,6.46c-2.8,1.13-5.22,2.21-7.71,3.08c-11.71,4.08-23.77,5.92-36.16,5.39c-11.96-0.51-23.45-3.13-34.4-8
		c-0.74-0.33-1.5-1.13-1.78-1.89c-4.72-13.02-6.61-26.39-5.15-40.22c0.8-7.54,2.48-14.84,4.96-21.99c0.46-1.32,1.22-2.01,2.41-2.52
		c10.74-4.52,21.9-7.15,33.57-7.67c14.65-0.65,28.7,1.86,42.21,7.53c1.36,0.57,2.2,1.34,2.71,2.8c4.37,12.36,6.16,25.06,5.08,38.13
		c-0.57,6.97-1.9,13.8-4.09,20.46c-0.17,0.51-0.39,1.01-0.69,1.78c-1.58-2.54-2.96-4.85-4.45-7.1c-0.46-0.7-1.11-1.37-1.83-1.79
		c-7.52-4.36-6.34-2.87-8.65-10.35c-0.86-2.79-2.33-5.39-3.58-8.19c0.07-0.04,0.47-0.25,0.87-0.42c1.96-0.84,2-0.86,1.23-2.78
		c-1.56-3.9-4.53-6.46-8.23-8.41c1.57,3.19,4.01,6.09,3.1,10.17c-1.02-0.2-2-0.49-2.98-0.56c-5.01-0.33-10.02-0.59-15.03-0.89
		c-1.48-0.09-2.98-0.07-4.43-0.32c-2.07-0.36-3.42-1.82-3.59-3.87c-0.32-3.86,0.74-7.53,1.83-11.16c0.1-0.32,1.02-0.64,1.49-0.56
		c3.66,0.65,5.18-2.36,7.57-3.87c-0.07-0.2-0.14-0.4-0.22-0.6c-2.38,0.38-4.76,0.75-7.36,1.16c1.25-5.58,2.06-11.03-4.32-14.23
		c0.61,1.36,1.44,2.66,1.75,4.09c0.3,1.38,0.07,2.88,0.07,4.42c-2.14-0.24-3.69-0.29-4.59-2.35c-0.95-2.19-3.65-3.73-5.52-3.72
		c1.51,1.67,3.19,3.17,3.26,5.59c-1.24,0.31-2.41,0.67-3.61,0.87c-0.34,0.06-0.82-0.27-1.13-0.54c-1.35-1.21-2.91-1.84-4.96-1.92
		c1.24,1.08,2.31,2,3.52,3.05c-1.87,1.28-3.46,2.36-5.05,3.45c0.09,0.17,0.18,0.35,0.27,0.52c0.45-0.12,0.89-0.26,1.34-0.36
		c3.34-0.77,6.66-1.61,10.02-2.24c1.06-0.2,2.25,0.05,3.34,0.26c1.08,0.21,1.91,0.89,1.85,2.12c-0.05,1.14-0.51,1.91-1.83,2.26
		c-3.81,1.02-7.57,2.22-11.34,3.4c-0.44,0.14-1.1,0.65-1.08,0.95c0.05,0.77,0.23,1.56,1.35,1.73c1.86,0.29,3.7,0.77,5.63,1.2
		c-0.09,0.43-0.09,0.74-0.21,0.99c-1.99,4.1-3.26,8.41-3.9,12.91c-0.16,1.09-0.6,1.33-1.65,1.47c-3.96,0.53-7.91,1.13-11.83,1.9
		c-2,0.39-2.34,1.58-0.91,3.14c2.03,2.22,4.09,4.49,6.46,6.33c3.43,2.66,7.15,4.95,10.76,7.39c0.32,0.22,0.71,0.32,1.07,0.48
		C134.66,105.27,134.77,105.16,134.88,105.05z"/>
</g>
<g>
	<path class="st3" d="M360.61,148.96c-2.53-0.76-5.08-1.46-7.59-2.28c-13.14-4.32-20.83-15.14-21.03-28.93
		c-0.12-8.49,1.72-16.29,6.54-23.32c0.5-0.73,1.07-1.43,1.68-2.08c1.88-1.99,1.9-1.98,0.85-4.47c2.26-0.49,4.78-0.32,6.58-2.95
		c-2,0-3.72,0-5.45,0c-0.63,0-1.26,0-1.89,0.02c-1.31,0.04-1.85-1.05-1.87-1.88c-0.02-0.95,1.12-0.55,1.76-0.56
		c2.87-0.06,5.75-0.14,8.62-0.04c2,0.07,3.59-0.62,5.46-2.27c-5.28,0-10.06-0.1-14.84,0.05c-2.11,0.06-3.45-0.46-3.83-3.09
		c1.06,0,2.08,0,3.1,0c6.64,0,13.29,0,19.93,0c1.24,0,2.52,0.1,3.64-1.42c-4.11,0-7.95,0.01-11.78,0
		c-4.76-0.01-9.52-0.05-14.27-0.07c-0.45,0-0.91,0.03-1.34-0.05c-1.21-0.21-1.61-1.27-1.63-2.18c-0.02-1.3,1.21-0.72,1.85-0.72
		c11.76-0.04,23.53-0.11,35.29,0.02c3.58,0.04,6.99-0.87,11.33-1.52c-6.69,5.14-8.83,11.41-7.49,18.71
		c1.38,7.56,6.67,11.7,13.64,13.86c-0.18,1.1-0.88,1.02-1.42,1.22c-2.03,0.71-4,1.65-6.07,2.15c-4.84,1.16-7.06,3.95-6.38,8.98
		c0.09,0.68,0.48,2.21-0.87,2.02c-1.05-0.15-2.62-0.56-2.66-2.17c-0.03-1.24,0.2-2.49,0.28-3.74c0.03-0.48,0.36-1.18-0.41-1.31
		c-0.79-0.14-1.09,0.46-1.14,1.16c-0.05,0.62-0.02,1.26-0.1,1.88c-0.07,0.58,0.22,1.45-0.59,1.59c-0.79,0.13-1.91-0.22-2.05-0.95
		c-0.5-2.56-1.74-1.25-2.74-0.59c-6.27,4.07-9.03,11.96-6.22,17.69c3.33,6.79,11,9.87,18.49,7.41c2.05-0.67,4.04-1.55,5.77-2.84
		c4.76-3.54,10.14-6.06,15.21-9.1c0.62-0.37,1.5-1.6,2.21-0.3c0.48,0.87,0.13,1.92-0.87,2.55c-2.35,1.49-4.68,2.99-7.02,4.49
		c-0.53,0.34-1.08,0.64-1.58,1.02c-0.73,0.56-2.24,0.98-1.52,2.08c0.72,1.09,1.61-0.25,2.31-0.66c2.17-1.26,4.23-2.69,6.4-3.95
		c0.67-0.39,1.54-1.71,2.17-0.68c0.55,0.9,0.78,2.48-0.55,3.37c-1.34,0.89-2.76,1.67-4.13,2.53c-0.72,0.45-1.65,0.66-2.02,1.8
		c2.02,0.01,3.39-1.28,5.02-1.84c0.56-0.2,1.3-0.8,1.66-0.09c0.33,0.66,0.2,1.56,0.21,2.35c0.01,0.79-0.49,1.08-1.23,1.07
		c-1.26-0.01-2.51-0.02-3.77,0.02c-0.49,0.01-1.25-0.16-1.3,0.54c-0.06,0.96,0.84,0.71,1.39,0.75c0.98,0.06,1.99,0.13,2.96,0
		c2.26-0.31,3.78,0.61,5,3c-3.63,0-7.06-0.04-10.48,0.03c-0.73,0.02-2.14-0.64-2.08,0.79c0.05,1.29,1.41,0.75,2.2,0.76
		c3.14,0.06,6.29,0.13,9.43-0.01c2-0.09,3.49,0.48,4.53,2.19C390.79,148.96,375.7,148.96,360.61,148.96z"/>
	<path class="st3" d="M405.88,95.22c-2.23,2.14-4.33,4.4-7.29,5.68c-6.84,2.95-14.88,1.35-19.44-4.03
		c-8.36-9.87-3.05-24.34,9.96-27.35c9.75-2.25,19.03-0.51,28.15,2.94c0.79,0.3,1.49,0.59,1.45,1.64c-0.04,0.91-0.63,1.24-1.36,1.41
		c-4.72,1.09-6.85,4.68-8.16,8.79c-1.16,3.63-1.96,7.37-3.34,10.94L405.88,95.22z M400.61,76.12c-1.35,0.19-2.28,0.98-2.25,2.43
		c0.03,1.45,0.94,2.26,2.43,2.26c1.54,0,2.35-0.95,2.32-2.35C403.08,77.05,402.18,76.19,400.61,76.12z"/>
	<path class="st2" d="M426.91,84.47c-0.3-0.88-1.16,0.07-1.57-0.48c1.65-1.83,3.02-3.84,5.33-5.08c1.43-0.76,0.95-2.59,0.5-3.95
		c-0.82-2.45-1.75-4.87-2.72-7.27c-2.1-5.17-0.63-10.47,7.61-10.9c-0.87,1.98-0.96,3.84-0.04,5.92c1.34,3,2.56,6.11,3.34,9.29
		c0.56,2.31,0.48,4.86-2.46,6.32c5.23,0.76,8.63-3.3,7.05-8.16c-0.99-3.04-2.48-5.92-3.69-8.9c-2.17-5.33-0.42-9.79,4.8-12.16
		c2.42-1.1,4.92-1.98,7.84-2.15c-3.46,2.63-3.84,3.7-2.64,7.91c1.27,4.46,2.59,8.91,3.97,13.34c0.91,2.92-0.17,5-2.47,6.72
		c-0.49,0.37-1.42,0.52-1.15,1.51l0.04-0.02c-0.75-0.42-1.39-0.48-1.65,0.55l0.04-0.02c-3.92-0.1-7.3,1.9-10.9,2.95
		c-2.2,0.64-4.72,1-6.37,2.98l0.03-0.02c-0.84-0.68-1.37-0.45-1.65,0.55l0.03-0.01c-0.84-0.68-1.37-0.45-1.65,0.55l0.03-0.01
		c-0.84-0.67-1.38-0.46-1.65,0.55L426.91,84.47z"/>
	<path class="st2" d="M513.59,140.91c-1.22,0-2.2,0.07-3.18-0.02c-1.03-0.09-1.59-0.73-1.57-1.8c0.01-0.96,0.55-1.59,1.44-1.63
		c2.05-0.08,4.12-0.1,6.17,0.03c1.02,0.06,1.48,0.92,1.49,1.92c0.01,2.32,0,4.65,0.01,6.97c0.01,0.92-0.39,1.55-1.24,1.86
		c-0.79,0.28-1.43-0.06-1.85-0.71c-0.42-0.66-0.63-0.98-1.61-0.5c-7.32,3.64-13.39-0.05-13.92-8.36c-0.5-7.98,6.8-13.37,13.92-10.28
		c1.44,0.63,2.63,1.52,3.31,2.98c0.52,1.12,0.38,2.14-0.67,2.83c-0.94,0.62-1.82,0.36-2.67-0.4c-2.98-2.67-5.96-2.88-7.83-0.6
		c-2.31,2.82-1.8,8.98,0.89,10.79C509.07,145.87,512.3,144.65,513.59,140.91z"/>
	<path class="st2" d="M450.59,76.44c2.48,0.28,4.71-0.75,6.8-1.74c1.24-0.59,1.68-2.28,1.24-3.8c-0.64-2.23-1.29-4.46-2.04-6.65
		c-1.64-4.74-0.54-7.01,4.27-8.48c1.35-0.41,2.74-0.71,4.64-1.19c-3.16,2.37-3.23,4.98-2.02,7.9c0.65,1.56,1.16,3.19,1.67,4.8
		c1.11,3.52-0.1,6.24-3.62,7.41c-11.96,3.99-23.97,7.86-35.96,11.77c-0.15,0.05-0.34-0.01-0.52-0.02c-0.27-1.51,2.04-0.59,1.87-1.99
		c0,0-0.03,0.03-0.03,0.03c0.75,0.4,1.42,0.58,1.65-0.55c0,0-0.03,0.01-0.03,0.01c0.74,0.38,1.41,0.55,1.65-0.55
		c0,0-0.03,0.01-0.03,0.01c0.73,0.34,1.41,0.57,1.65-0.55c0,0-0.03,0.02-0.03,0.02c0.24,0.08,0.52,0.28,0.72,0.22
		c5.45-1.82,10.89-3.66,16.32-5.53c0.14-0.05,0.16-0.41,0.24-0.62c0,0-0.04,0.02-0.04,0.02c0.77,0.45,1.41,0.55,1.65-0.55
		L450.59,76.44z"/>
	<path class="st2" d="M485.06,140.74c0.12,1.69,0.19,3.38,0.39,5.06c0.12,0.98,0.06,1.78-0.9,2.29c-0.91,0.48-1.95,0.39-2.44-0.39
		c-0.83-1.33-1.53-0.84-2.46-0.25c-1.42,0.9-3.02,1.2-4.65,0.76c-1.87-0.51-3.17-1.69-3.34-3.73c-0.18-2.14,0.85-3.69,2.84-4.35
		c1.42-0.47,2.98-0.56,4.47-0.83c0.88-0.16,1.93-0.21,1.88-1.44c-0.05-1.33-1.1-1.42-2.14-1.48c-1.18-0.07-2.03,0.5-2.84,1.27
		c-0.82,0.78-1.78,1.44-2.78,0.36c-1.05-1.13-0.36-2.15,0.48-3.04c1.8-1.91,5.81-2.44,8.85-1.32c2.84,1.05,2.84,3.35,2.73,5.74
		c-0.02,0.45,0,0.89,0,1.34C485.13,140.73,485.09,140.73,485.06,140.74z M480.93,142.36c0.06-0.76-0.8-0.51-1.45-0.39
		c-1.4,0.28-3.32-0.04-3.59,1.93c-0.18,1.34,1.14,1.69,2.25,1.57C479.69,145.3,480.81,144.55,480.93,142.36z"/>
	<path class="st2" d="M532.96,141.88c0.1,1.33,0.15,2.67,0.31,3.99c0.12,0.98-0.02,1.77-0.97,2.26c-0.82,0.43-1.76,0.32-2.23-0.31
		c-0.93-1.25-1.68-0.99-2.78-0.26c-1.31,0.86-2.87,1.08-4.4,0.66c-1.86-0.5-3.18-1.62-3.34-3.7c-0.17-2.13,0.76-3.62,2.75-4.4
		c1.6-0.63,3.32-0.69,5-0.9c0.71-0.09,1.44-0.32,1.45-1.27c0.01-1.01-0.65-1.43-1.52-1.54c-1.43-0.19-2.62,0.28-3.63,1.32
		c-0.83,0.86-1.81,1.26-2.78,0.19c-0.86-0.94-0.35-1.84,0.26-2.65c2.09-2.77,8.66-2.98,10.99-0.38c0.69,0.77,0.99,1.66,0.96,2.69
		c-0.04,1.43-0.01,2.86-0.01,4.28C533.02,141.87,532.99,141.88,532.96,141.88z M528.81,142.86c-0.08-0.53,0.11-1.26-0.96-0.99
		c-1.54,0.4-3.66-0.14-4.16,1.98c-0.25,1.07,0.93,1.65,1.98,1.62C527.33,145.44,528.57,144.75,528.81,142.86z"/>
	<path class="st2" d="M446.85,140.68c0.03-4.65,2.83-7.64,7.13-7.62c4.43,0.02,7.37,3.14,7.34,7.79c-0.03,4.69-2.93,7.6-7.52,7.51
		C449.32,148.27,446.82,145.51,446.85,140.68z M457.14,140.87c0.05-3.36-1.69-5.22-4.1-4.38c-1.76,0.61-2.58,3.08-1.98,5.82
		c0.39,1.77,1.3,3.1,3.26,2.8C456.67,144.76,457.09,142.88,457.14,140.87z"/>
	<path class="st2" d="M540.92,148.41c-2.17-0.19-4.02-0.48-5.52-1.79c-0.97-0.84-1.56-1.9-0.66-3.04c1-1.26,2.08-0.63,2.97,0.27
		c0.93,0.94,1.95,1.55,3.33,1.41c0.74-0.07,1.52-0.16,1.69-1.01c0.19-0.95-0.61-1.17-1.31-1.36c-1.29-0.37-2.62-0.65-3.88-1.08
		c-1.95-0.67-3.25-1.95-3.21-4.13c0.03-2.16,1.36-3.45,3.29-4.1c2.61-0.88,5.14-0.64,7.44,0.92c1.02,0.69,1.77,1.66,0.78,2.92
		c-0.9,1.14-1.86,0.72-2.79-0.04c-0.34-0.28-0.7-0.63-1.1-0.74c-1.2-0.31-2.87-0.78-3.27,0.66c-0.37,1.32,1.36,1.25,2.31,1.54
		c0.85,0.26,1.74,0.45,2.59,0.72c2.06,0.67,3.43,1.87,3.3,4.27c-0.13,2.3-1.49,3.55-3.56,4.16
		C542.45,148.22,541.55,148.3,540.92,148.41z"/>
	<path class="st2" d="M417.58,137.63c0-2.23,0.03-4.46-0.01-6.69c-0.04-1.73,0.44-3.2,2.4-3.13c1.87,0.06,2.42,1.54,2.41,3.25
		c-0.02,3.57,0.09,7.14-0.04,10.7c-0.07,1.81,0.57,2.37,2.3,2.25c1.6-0.11,3.22-0.05,4.83,0.02c1.22,0.06,2.09,0.73,2.1,1.99
		c0.01,1.29-0.89,1.94-2.1,1.96c-3.13,0.05-6.26,0.07-9.39,0c-1.77-0.04-2.48-1.18-2.48-2.85
		C417.59,142.62,417.59,140.12,417.58,137.63z"/>
	<path class="st2" d="M439.79,141.23c-0.36-1.86,1.02-4.3-1.98-5.51c-0.85-0.34-0.41-1.93,0.56-2.09c1.63-0.27,1.38-1.29,1.41-2.33
		c0.03-1.2,0.45-2.14,1.81-2.22c1.43-0.09,2.26,0.78,2.25,2.09c-0.01,1.45,0.3,2.34,1.93,2.47c0.51,0.04,0.91,0.57,0.95,1.17
		c0.04,0.72-0.36,1.33-1.01,1.39c-1.96,0.19-1.85,1.5-1.79,2.88c0.05,1.25,0.05,2.5,0,3.75c-0.04,1.16,0.01,2.13,1.55,2.24
		c0.78,0.05,1.3,0.65,1.26,1.48c-0.04,0.81-0.63,1.24-1.32,1.54c-2.62,1.17-5.44-0.45-5.61-3.29
		C439.73,143.65,439.79,142.49,439.79,141.23z"/>
	<path class="st2" d="M487.27,137.95c0-2.5,0.04-5-0.02-7.49c-0.03-1.42,0.32-2.62,1.9-2.67c1.52-0.05,2.18,0.99,2.18,2.47
		c-0.01,5.17,0,10.35-0.01,15.52c0,1.41-0.5,2.55-2.1,2.53c-1.64-0.02-1.98-1.18-1.96-2.6C487.3,143.13,487.28,140.54,487.27,137.95
		z"/>
	<path class="st2" d="M466.72,135.15c0.33-0.48,0.52-0.91,0.84-1.21c0.94-0.89,2.01-1.16,3.17-0.42c0.77,0.49,1.01,1.23,0.88,2.09
		c-0.2,1.31-1.16,1.82-2.3,1.81c-2.05-0.03-2.34,1.42-2.45,2.85c-0.16,1.95-0.12,3.93-0.1,5.89c0.01,1.32-0.67,2.05-1.89,2.15
		c-1.37,0.11-2.28-0.65-2.31-2.03c-0.07-3.75-0.04-7.5-0.01-11.26c0.01-1.01,0.6-1.69,1.6-1.88
		C465.48,132.89,465.97,133.95,466.72,135.15z"/>
	<path class="st2" d="M432.53,140.69c0-1.79-0.01-3.58,0-5.37c0.01-1.38,0.66-2.28,2.1-2.2c1.24,0.06,1.93,0.86,1.93,2.14
		c0,3.67,0.01,7.34,0,11.01c0,1.3-0.77,2.03-2.01,2.05c-1.44,0.03-2.05-0.87-2.04-2.26c0.01-1.79,0-3.58,0-5.37
		C432.52,140.69,432.52,140.69,432.53,140.69z"/>
	<path class="st3" d="M405.85,95.25c1.72,0.35,1.76-1.25,2.05-2.08c0.42-1.25,0.97-1.71,2.26-1.67c2.41,0.08,4.83,0.01,7.25,0.03
		c0.58,0.01,1.43-0.27,1.57,0.55c0.06,0.37-0.45,0.96-0.84,1.26c-3.83,2.94-8.21,4.38-12.93,4.85c-0.4-1.33,1.62-1.74,0.67-2.98
		C405.88,95.22,405.85,95.25,405.85,95.25z"/>
	<path class="st2" d="M436.56,129.73c-0.03,1.44-0.82,2.27-2.15,2.25c-1.18-0.02-2.06-0.85-2.04-2.08c0.01-1.3,0.78-2.27,2.17-2.23
		C435.73,127.72,436.48,128.49,436.56,129.73z"/>
</g>
<g>
	<path class="st2" d="M1533.06,100.48c-1.78-0.07-3.54-0.25-4.16,2.09c-3.07-3.42-5.84-3.93-9.61-1.58
		c-2.2,1.37-4.29,2.98-6.19,4.75c-6.06,5.63-10.36,12.62-14.86,19.47c-1.86,2.82-4.02,5.45-6.17,8.07c-0.74,0.9-2,2.06-3.08,1.11
		c-0.76-0.66-0.74-2.23-1.04-3.41c-0.04-0.16,0.06-0.36,0.11-0.53c1.5-4.46,2.96-8.95,4.55-13.38c0.3-0.83,1.05-1.63,1.79-2.17
		c12.11-8.77,22.19-19.53,31.11-31.44c0.37-0.49,0.66-1.03,1.03-1.63c-2.03-0.35-3.12,0.39-4.21,1.8
		c-7.03,9.1-14.88,17.43-23.77,24.76c-0.66,0.54-1.4,0.98-2.1,1.47c0.11-1.09,0.46-1.91,0.9-2.68c2.81-4.88,5.51-9.84,8.49-14.61
		c5.95-9.54,12.34-18.76,20.79-26.33c1.48-1.33,3.09-2.53,4.73-3.67c0.46-0.32,1.22-0.21,1.85-0.3c0.04,0.58,0.27,1.23,0.1,1.73
		c-0.74,2.16-1.6,4.28-2.62,6.95c1.35-0.62,2.83-0.82,3.14-1.54c1.02-2.35,1.96-4.84,2.26-7.36c0.31-2.58-1.5-3.93-4.11-3.38
		c-1.69,0.36-3.52,0.87-4.86,1.88c-4.34,3.28-8.77,6.52-12.66,10.31c-12.85,12.5-22.14,27.53-29.98,43.51
		c-1.17,2.38-2.37,3.05-5.29,2.87c0.56-1.3,1.14-2.55,1.64-3.83c1.16-2.96,2.03-5.97,1.63-9.21c-0.39-3.15-2.2-4.73-5.39-4.66
		c-3.13,0.06-5.77,1.5-8.14,3.3c-9.2,6.99-15.51,16.1-18.93,27.12c-0.67,2.15-0.84,4.55-0.76,6.82c0.15,4.4,3.55,6.78,7.67,5.23
		c2.45-0.92,4.78-2.37,6.86-3.99c5.26-4.09,9.09-9.46,12.23-15.22c1.44-2.63,3.34-3.04,6.05-2.97c-0.71,2.21-1.55,4.28-2.01,6.43
		c-0.74,3.41-1.69,6.87-1.71,10.31c-0.03,5.06,4.29,7.42,8.6,4.8c2.54-1.55,4.64-3.83,6.89-5.84c0.35-0.31,0.44-0.92,0.64-1.4
		c0.22,0.19,0.43,0.38,0.65,0.57c0,0.97-0.09,1.95,0.02,2.9c0.41,3.58,3.02,5.54,6.37,4.61c1.48-0.41,2.9-1.25,4.17-2.14
		c1.71-1.21,3.26-2.66,4.94-4.06c0,0.26,0.02,0.44,0,0.61c-0.21,1.94-0.17,3.9,1.56,5.12c1.78,1.25,3.78,0.85,5.5-0.22
		c2.2-1.37,4.47-2.73,6.37-4.47c4.96-4.53,8.78-10.02,12.37-15.66c0.15-0.24,0.21-0.53,0.31-0.82c-1.77-0.56-2.92-0.12-3.81,1.49
		c-0.88,1.58-1.92,3.12-3.12,4.46c-2.14,2.38-4.41,4.64-6.73,6.85c-0.48,0.46-1.39,0.47-2.1,0.68c0.05-0.78-0.07-1.62,0.17-2.34
		c0.34-1.02,0.89-1.99,1.43-2.93c5.08-8.96,10.19-17.91,15.28-26.86c0.22-0.39,0.38-0.81,0.69-1.46
		C1536.54,100.49,1534.8,100.55,1533.06,100.48z M1464.92,132.66c-0.65,0.51-1.43,0.94-2.22,1.19c-1.83,0.58-3.29-0.33-3.23-2.23
		c0.05-1.78,0.36-3.62,0.95-5.3c1.65-4.66,4.33-8.76,7.1-12.56c2.31,2.05,4.58,4.05,7.1,6.29
		C1472.18,124.63,1469.3,129.22,1464.92,132.66z M1476.7,116.13c-0.13,0.3-1.16,0.51-1.59,0.33c-4.47-1.85-5.54-7.12-2.18-10.6
		c0.54-0.56,1.14-1.21,1.83-1.45c1.19-0.41,2.69-1.01,3.65-0.6c0.84,0.36,1.13,2.01,1.82,3.41
		C1479.06,110.24,1477.95,113.22,1476.7,116.13z M1526.75,106.11c-4.99,8.23-9.98,16.45-15.09,24.61c-0.74,1.18-2.01,2.09-3.18,2.93
		c-0.49,0.35-1.47,0.47-2,0.21c-0.49-0.23-0.68-1.1-0.98-1.65c0.47-1.6,0.72-3.06,1.32-4.36c3.77-8.29,8.61-15.85,15.43-22
		c0.86-0.78,1.99-1.43,3.11-1.72C1526.72,103.78,1527.48,104.9,1526.75,106.11z"/>
	<path class="st2" d="M1454.09,104.35c-0.81-3.83-3.25-5.41-7.06-4.58c-3.03,0.65-5.66,2.11-8.01,4.11
		c-4.86,4.14-7.45,9.62-9.14,15.61c-0.56,1.99-0.84,4.06-1.25,6.09c0.25,0.16,0.5,0.32,0.74,0.48c0.27-0.47,0.43-1.08,0.82-1.39
		c2.66-2.09,5.32-4.2,8.1-6.11c0.96-0.66,1.58-1.26,1.85-2.42c1-4.22,2.93-7.95,6.2-10.88c1.13-1.01,2.71-1.84,3.95-0.92
		c0.84,0.62,0.96,2.27,1.31,3.49c0.11,0.38-0.06,0.84-0.12,1.26c-0.74,5.22-2.93,9.84-5.88,14.14c-3.15,4.59-6.71,8.81-11.77,11.4
		c-5.61,2.87-10.7,0.1-11.23-6.16c-0.48-5.69,1.09-11.09,3.2-16.26c6.67-16.33,16.94-30.18,30-41.94c3.29-2.96,7.31-5.16,11.11-7.51
		c1.78-1.1,3.85-1.65,6.27-0.78c-0.65,0.45-1.09,0.75-1.52,1.05c-5.88,4.04-10.95,8.88-14.24,15.28c-1.28,2.5-2.42,5.2-2.95,7.95
		c-0.9,4.65,2.44,7.23,6.84,5.51c1.34-0.52,2.66-1.23,3.8-2.1c4.44-3.38,7.54-7.86,9.91-12.83c1.69-3.57,2.98-7.29,2.98-11.33
		c0-2.47,0.16-2.67,2.67-2.54c4.17,0.21,7.88,1.88,11.39,3.97c3.65,2.17,7.17,4.54,10.76,6.81c1.47,0.92,2.96,1.8,4.46,2.7
		c2.25-2.42,4.33-4.65,6.57-7.05c-4.14-2.37-8.14-4.53-12.01-6.89c-7.77-4.75-15.84-6.15-24.48-2.58c-0.44,0.18-1.22,0.11-1.6-0.18
		c-2.39-1.82-5.1-2.25-7.94-1.76c-6.53,1.11-12.36,4-17.63,7.84c-16.68,12.17-28.74,27.99-36.38,47.15
		c-2.29,5.74-3.64,11.66-2.57,17.94c1.34,7.85,7.23,12.61,14.77,11.31c2.72-0.47,5.49-1.66,7.83-3.15
		c9.17-5.85,15.23-14.28,19.03-24.36C1454.16,111.39,1454.85,107.93,1454.09,104.35z M1475.36,64.35
		c-0.26,5.41-1.72,10.07-4.32,14.4c-2.21,3.68-4.97,6.86-8.5,9.32c-0.64,0.45-1.33,0.86-2.05,1.15c-1.94,0.77-3.48-0.27-3.36-2.33
		c0.06-1.07,0.28-2.19,0.71-3.16c3.45-7.86,8.7-14.18,16.09-18.66C1474.27,64.86,1474.65,64.7,1475.36,64.35z"/>
	<path class="st2" d="M1382.65,129.46c-7.63-2.23-15.42-2-23.07-0.46c-9.44,1.9-18.77,4.34-28.15,6.52
		c-5.26,1.22-10.54,2.67-15.98,1.97c-9.16-1.18-14.05-5.86-14.02-14.76c0.01-3.53,0.42-7.18,1.38-10.57
		c5.08-17.88,15.73-32.17,29.41-44.39c2.87-2.56,6.17-4.52,9.9-5.58c1.07-0.31,2.29-0.38,3.4-0.25c1.33,0.16,1.85,1.21,1.9,2.51
		c0.05,1.28-0.86,1.34-1.77,1.53c-2.47,0.53-3.73,2.38-4.56,4.53c-0.54,1.39-0.76,2.98,0.6,4.02c1.43,1.1,2.88,0.37,4.2-0.48
		c0.35-0.23,0.73-0.51,0.92-0.86c1.14-2.05,2.61-4.02,3.25-6.23c1.66-5.72-2.04-9.88-7.97-9.33c-4.42,0.41-8.56,1.79-12.39,3.95
		c-16.66,9.39-28.51,23.11-36.02,40.58c-2.94,6.84-4.68,14.03-3.99,21.59c0.58,6.32,2.84,11.76,8.41,15.37
		c4.12,2.67,8.76,4,13.53,3.26c7.65-1.19,15.24-2.82,22.77-4.62c6.92-1.65,13.79-3.38,20.97-3.09c6.19,0.25,11.88,1.76,16.05,6.8
		c0.6,0.73,1.13,1.51,1.79,2.42c2.92-4.55,7.21-5.95,12.14-5.82c6.19,0.17,11.92,1.97,17.2,5.21c0.44,0.27,0.88,0.53,1.7,1.03
		c-0.35-0.6-0.42-0.82-0.57-0.97C1397.61,137.27,1391.07,131.92,1382.65,129.46z"/>
	<path class="st2" d="M1547.2,64.23c-7.18,5.29-14.96,8.99-24.22,8.32c-0.33-0.02-0.81,0.04-1,0.26c-1.96,2.27-3.87,4.58-5.89,6.99
		c13.76,3.81,31.64-7.62,37.99-21.35C1551.74,60.43,1549.58,62.48,1547.2,64.23z"/>
	<path class="st2" d="M1422.25,87.02c0.42-0.01,1.03-0.2,1.23-0.52c1.4-2.15,2.73-4.35,4.27-6.85c-2.73,0-5.07-0.03-7.41,0.03
		c-0.35,0.01-0.83,0.29-1.02,0.59c-1.36,2.12-2.66,4.27-4.2,6.77C1417.78,87.04,1420.02,87.07,1422.25,87.02z"/>
	<path class="st2" d="M1412.75,81.56c0.31-0.54,0.58-1.12,0.99-1.92c-2.46,0-4.58-0.08-6.69,0.04c-0.9,0.05-1.79,0.49-3.07,0.88
		c-2.34-2.34-4.45-2.81-7.84-1.02c-2.07,1.09-4.05,2.46-5.83,3.98c-4.97,4.24-8.74,9.54-12.64,14.73
		c-3.34,4.45-6.94,8.74-10.76,12.77c-1.67,1.77-4.08,3.03-6.37,3.97c-2.25,0.93-4.32-0.61-4.42-3.08c-0.07-1.65,0.11-3.42,0.64-4.98
		c1.96-5.78,4.8-11.14,8.69-15.85c1.96-2.37,4.16-4.58,6.48-6.6c1.01-0.88,2.57-1.26,3.94-1.52c0.44-0.08,1.33,0.87,1.58,1.52
		c0.36,0.92-0.31,1.29-1.27,1.44c-2.27,0.36-3.53,2.02-4.42,3.95c-0.63,1.36-0.96,2.83,0.42,4c1.05,0.89,2.63,0.61,4.07-0.79
		c2.34-2.28,3.72-5.08,4.07-8.32c0.35-3.25-1.98-5.91-5.26-6.2c-2.94-0.26-5.57,0.71-7.81,2.44c-2.68,2.06-5.1,4.47-7.7,6.63
		c-2.55,2.13-5.17,4.18-7.82,6.18c-0.65,0.49-1.57,0.62-2.62,1c0.71-2.02,1.38-3.59,1.79-5.23c0.4-1.63,0.73-3.33,0.75-5.01
		c0.04-4.5-3.15-7.03-7.49-5.74c-2.4,0.71-4.82,1.78-6.84,3.24c-8.62,6.24-14.84,14.39-18.45,24.43c-1.15,3.21-1.77,6.55-1.12,10.01
		c0.73,3.89,3.74,6.01,7.44,4.76c2.36-0.8,4.67-2.07,6.65-3.58c5.92-4.52,10.33-10.4,13.85-16.9c1.24-2.29,2.89-3.36,5.41-3.4
		c-1.23,2.69-2.5,5.34-3.67,8.04c-1.47,3.37-1.9,6.87-0.94,10.47c1.01,3.8,3.68,6.06,7.55,5.61c2.51-0.29,5.16-1.09,7.3-2.39
		c2.82-1.71,5.21-4.12,7.77-6.25c0.66-0.55,1.26-1.2,2.04-1.95c-0.27,1.87-0.63,3.41-0.7,4.97c-0.2,4.45,2.92,6.88,7.1,5.25
		c2.2-0.86,4.11-2.49,6.1-3.84c0.71-0.48,1.27-1.18,2.09-1.96c0,0.7,0.01,1.05,0,1.4c-0.11,3.92,2.37,5.83,5.99,4.38
		c1.77-0.71,3.46-1.78,4.95-2.98c6.07-4.88,10.7-11.02,14.97-17.47c0.04-0.06-0.05-0.21-0.08-0.31c-1.67-0.48-2.72,0.11-3.84,1.48
		c-2.66,3.29-5.51,6.44-8.46,9.47c-0.75,0.77-2.17,0.88-3.28,1.3c0.27-1.11,0.3-2.35,0.84-3.31
		C1402.06,100.02,1407.42,90.8,1412.75,81.56z M1341,103.05c-2.28,2.89-4.67,5.7-7.21,8.36c-1.16,1.22-2.91,2.25-4.58,1.12
		c-1.6-1.08-1.34-2.94-0.93-4.67c1.41-5.91,4.79-10.79,7.84-15.36c2.64,1.96,5.08,3.76,7.81,5.78
		C1343.13,99.62,1342.24,101.47,1341,103.05z M1346.08,94.19c-0.12,0.3-0.87,0.58-1.28,0.52c-4.69-0.63-6.6-5.08-3.78-8.86
		c0.71-0.95,1.59-1.95,2.62-2.43c1.04-0.49,2.58-0.81,3.52-0.38c0.83,0.38,1.15,1.9,1.81,3.14
		C1348,88.91,1347.09,91.57,1346.08,94.19z M1389.07,107.04c-1.37,2.19-3.45,4.01-5.45,5.71c-1.34,1.14-2.78,0.33-2.77-1.82
		c0.45-1.27,0.97-3.08,1.72-4.78c3.48-7.83,8.76-14.46,14.34-20.85c0.9-1.04,2.33-1.68,3.62-2.29c0.45-0.21,1.34,0.07,1.77,0.43
		c0.23,0.19,0.06,1.13-0.2,1.58C1397.8,92.39,1393.58,99.81,1389.07,107.04z"/>
</g>
<g>
	<path class="st2" d="M1679.15,95.48c-5.38,0-10.76-0.08-16.13,0.04c-1.88,0.04-2.32-0.58-2.35-2.38c-0.1-7.02-0.16-7.02,6.96-7.02
		c6.97,0,13.94-0.07,20.92,0.04c1.91,0.03,3.01-0.49,3.99-2.24c12.37-22.17,30.87-36.05,56.14-40.03
		c19.24-3.03,36.9,1.63,52.95,12.54c1.2,0.81,2.11,1.67,3.97,0.94c4.75-1.87,9.29-0.99,12.96,2.61c3.71,3.63,4.9,8.2,3.3,13.14
		c-0.64,1.98-0.38,3.34,0.73,4.89c0.98,1.37,2.04,2.78,2.58,4.34c1.11,3.22,3.27,3.76,6.4,3.67c7.66-0.23,15.34-0.02,23-0.11
		c1.88-0.02,2.56,0.4,2.56,2.44c0.01,7.14,0.1,7.14-7.04,7.14c-8.76,0-17.53-0.09-26.29,0.06c-2.11,0.04-2.98-0.76-3.69-2.54
		c-1.4-3.51-3.34-6.75-5.41-9.92c-0.6-0.91-1.08-1.31-2.36-1.13c-8.92,1.25-15.75-5.26-14.6-14.09c0.3-2.28-0.6-3.19-2.16-4.26
		c-23.94-16.39-56.95-14.45-78.99,4.61c-8.04,6.95-14.23,15.23-18.43,24.95c-0.83,1.93-1.85,2.4-3.78,2.36
		C1689.31,95.4,1684.23,95.48,1679.15,95.48z M1810.01,62.5c-3.55,0-6.57,3.03-6.64,6.66c-0.07,3.52,3,6.79,6.46,6.88
		c3.68,0.1,6.71-3.01,6.67-6.85C1816.48,65.45,1813.62,62.5,1810.01,62.5z"/>
	<path class="st2" d="M1758.23,123.33c1.73,2.11,3.4,4.17,5.1,6.21c1.64,1.98,3.3,3.94,5.15,6.14c-3.88,0.6-7.3,0.91-9.36-3.03
		c-0.14-0.26-0.37-0.47-0.55-0.7c-6.79-8.45-6.79-8.42-17.5-7.97c-1.54,0.06-2.1,0.47-2.04,2.03c0.1,2.68-0.09,5.37,0.06,8.05
		c0.13,2.37-1.44,1.86-2.75,1.88c-1.26,0.02-2.54,0.35-2.51-1.79c0.1-9.14,0.08-18.29,0.01-27.43c-0.01-1.71,0.74-1.91,2.15-1.9
		c6.27,0.06,12.55-0.03,18.82,0.09c5.8,0.11,9.25,2.54,10.17,6.89C1766.1,117.17,1764.11,120.68,1758.23,123.33z M1747.92,109.63
		c-9.3-0.02-9.3-0.02-8.94,7.61c0.01,0.3,0.01,0.6,0.02,0.89c0.01,0.88,0.51,1.21,1.33,1.2c5.07-0.05,10.15,0.06,15.21-0.22
		c2.87-0.16,4.35-2.32,4.19-5.15c-0.16-2.77-1.62-4.19-4.65-4.31C1752.7,109.55,1750.31,109.63,1747.92,109.63z"/>
	<path class="st2" d="M1711.75,136.63c-9.45,0-15.62-4.12-17.53-11.7c-2.67-10.6,4.62-20.32,15.55-20.66
		c2.18-0.07,4.42-0.11,6.54,0.3c9.26,1.8,14.32,8.83,13.46,18.42c-0.7,7.83-7.58,13.51-16.53,13.63
		C1712.75,136.64,1712.25,136.63,1711.75,136.63z M1710.36,131.86c6.42,0.07,10.63-1.23,13-5.9c3.09-6.1,0.67-13.29-5.24-15.85
		c-7.28-3.15-15.91-0.36-18.34,5.93C1696.48,124.59,1702.05,131.85,1710.36,131.86z"/>
	<path class="st2" d="M1660.72,120.44c0-4.47,0.06-8.93-0.03-13.4c-0.03-1.63,0.41-2.27,2.16-2.24c6.16,0.12,12.34-0.07,18.49,0.17
		c7,0.27,11.12,6.03,9.25,12.52c-1.13,3.92-4.12,6.19-9.01,6.42c-4.37,0.2-8.75,0.21-13.12,0.06c-2.16-0.08-2.74,0.64-2.6,2.68
		c0.17,2.47-0.08,4.97,0.08,7.44c0.13,2.08-1.12,1.94-2.44,1.85c-1.25-0.08-2.88,0.62-2.82-1.81
		C1660.8,129.58,1660.72,125.01,1660.72,120.44z M1674.07,109.69c-8.64-0.07-8.64-0.07-8.16,7.7c0.01,0.2,0.02,0.4,0.01,0.59
		c-0.04,0.86,0.36,1.27,1.23,1.26c4.77-0.05,9.54,0.09,14.29-0.22c2.64-0.17,4.26-2.53,3.99-5.04c-0.29-2.65-1.88-4.12-4.51-4.27
		C1678.64,109.58,1676.35,109.69,1674.07,109.69z"/>
	<path class="st2" d="M1829.09,135.6c-4.37,1.31-6.44-0.28-8.07-3.99c-2.87-6.51-6.36-12.75-9.6-19.14
		c-1.12,0.18-1.16,1.24-1.51,1.93c-2.84,5.67-5.62,11.36-8.4,17.05c-2.28,4.66-2.27,4.67-7.46,4.4c-0.62-0.74,0.09-1.3,0.36-1.83
		c4.52-9.14,9.1-18.26,13.6-27.41c0.58-1.19,1.16-2.05,2.62-1.76c1.34,0.26,3.01-0.75,3.94,1.15
		C1819.37,115.85,1824.22,125.68,1829.09,135.6z"/>
	<path class="st2" d="M1783.41,104.84c4.08,0,8.16,0.09,12.23-0.04c1.95-0.06,2.04,0.94,2,2.38c-0.04,1.36,0.1,2.58-1.94,2.46
		c-2.48-0.15-4.98,0.1-7.45-0.08c-2.05-0.15-2.46,0.68-2.43,2.54c0.09,7.15-0.07,14.29,0.1,21.44c0.05,2.37-1.03,2.44-2.84,2.46
		c-1.82,0.02-2.6-0.29-2.56-2.39c0.14-7.24-0.01-14.49,0.1-21.73c0.03-1.86-0.52-2.43-2.34-2.31c-2.28,0.15-4.58-0.09-6.86,0.07
		c-1.94,0.14-2.55-0.48-2.59-2.46c-0.04-2.13,0.86-2.42,2.66-2.38C1775.45,104.91,1779.43,104.84,1783.41,104.84z"/>
	<path class="st2" d="M1832.56,120.28c0-4.17,0.07-8.35-0.03-12.52c-0.04-1.9,0.01-3.01,2.58-3.03c2.68-0.02,2.8,1.13,2.78,3.19
		c-0.09,6.86,0.08,13.72-0.09,20.57c-0.06,2.32,0.68,2.81,2.85,2.74c4.67-0.16,9.36,0.03,14.04-0.09c1.84-0.05,2.38,0.49,2.37,2.33
		c-0.01,1.89-0.44,2.57-2.47,2.53c-6.57-0.13-13.14-0.11-19.71-0.01c-1.82,0.03-2.4-0.43-2.34-2.3
		C1832.65,129.22,1832.56,124.75,1832.56,120.28z"/>
	<path class="st2" d="M1668.14,158.42c-2.47,0-5.74,0.96-7.19-0.25c-1.72-1.44-0.54-4.82-0.57-7.35c-0.08-6.53-0.03-6.55,6.64-6.52
		c2.87,0.01,6.71-0.99,8.34,0.46c1.88,1.66,0.54,5.58,0.6,8.51c0.09,5.34,0.03,5.34-5.43,5.34c-0.8,0-1.59,0-2.39,0
		C1668.14,158.55,1668.14,158.49,1668.14,158.42z"/>
	<path class="st2" d="M1848.8,158.61c-1.98-0.25-5.15,1.08-6.7-0.49c-1.54-1.56-0.44-4.7-0.46-7.15c-0.07-6.68-0.02-6.68,6.79-6.68
		c2.28,0,4.56,0.05,6.84-0.02c1.29-0.04,1.73,0.44,1.71,1.72c-0.06,3.66-0.07,7.32,0,10.98c0.02,1.35-0.57,1.69-1.78,1.65
		C1853.23,158.57,1851.25,158.61,1848.8,158.61z"/>
	<path class="st2" d="M1713.51,158.71c-5.45,0.03-9.74-3.49-9.45-7.75c0.28-4.15,5.17-7.48,10.25-6.99c4.98,0.48,8.7,3.72,8.6,7.48
		C1722.8,155.51,1718.69,158.68,1713.51,158.71z M1713.54,145.51c-4.17-0.02-7.63,2.73-7.55,6c0.07,2.98,3.77,5.82,7.55,5.79
		c3.94-0.02,7.33-2.77,7.33-5.93C1720.86,148.17,1717.56,145.53,1713.54,145.51z"/>
	<path class="st2" d="M1826.71,158.71c-3.17-0.16-6.52-1.31-8.16-5.01c-1.09-2.44-0.55-4.86,1.41-6.84
		c2.92-2.94,8.16-3.76,12.21-1.89c4.88,2.25,6.21,7.39,2.75,10.88C1832.85,157.92,1830.22,158.73,1826.71,158.71z M1827.54,145.51
		c-4.23-0.03-7.56,2.63-7.5,5.98c0.05,3.11,3.58,5.86,7.45,5.81c3.9-0.05,7.42-2.84,7.43-5.91
		C1834.92,148.26,1831.51,145.54,1827.54,145.51z"/>
	<path class="st2" d="M1688.85,153.44c0.85,0.97,1.49,1.72,2.15,2.45c0.66,0.73,1.34,1.44,1.8,2.39c-3.91-0.24-4.98-4.02-8.06-6.01
		c1.93-0.32,3.21-0.45,4.44-0.76c1.35-0.34,2.37-1.13,2.35-2.67c-0.02-1.5-0.95-2.4-2.32-2.71c-1.25-0.29-2.55-0.36-3.82-0.52
		c-1.42-0.18-1.94,0.46-1.91,1.87c0.06,3.08,0.03,6.15,0.01,9.23c-0.01,0.75,0.2,1.74-1.01,1.77c-1.22,0.03-1.05-0.95-1.05-1.71
		c-0.02-3.57,0.05-7.15-0.04-10.72c-0.04-1.53,0.64-1.86,1.97-1.79c1.29,0.08,2.59-0.01,3.88,0.02c3.63,0.08,5.85,1.42,6.23,3.89
		C1693.96,151.4,1691.61,152.43,1688.85,153.44z"/>
	<path class="st2" d="M1738.57,158.71c-1.97-0.01-3.75-0.5-4.94-2.22c-0.37-0.54-0.87-1.35-0.23-1.84c0.7-0.53,1.36-0.25,1.85,0.69
		c0.97,1.86,2.61,2.26,4.55,1.64c1.12-0.36,1.98-1.02,2.08-2.26c0.1-1.28-0.76-2.04-1.82-2.44c-1.38-0.53-2.85-0.83-4.25-1.32
		c-1.44-0.51-2.36-1.6-2.33-3.12c0.03-1.47,0.89-2.58,2.25-3.25c2.55-1.26,5.98-0.57,7.22,1.51c0.32,0.53,1.04,1.22,0.16,1.77
		c-0.64,0.4-1.32,0.14-1.71-0.62c-0.8-1.55-2.15-1.98-3.76-1.65c-1.02,0.22-1.85,0.82-2.03,1.93c-0.21,1.23,0.62,1.79,1.63,2.12
		c0.85,0.28,1.72,0.46,2.58,0.71c2.35,0.67,4.34,1.77,4.12,4.62C1743.78,157.15,1741.39,158.69,1738.57,158.71z"/>
	<path class="st2" d="M1788.67,153.53c1.54,1.71,2.85,3.16,4.65,5.15c-4.67-0.59-5.67-4.42-8.77-6.4c2-0.51,3.44-0.2,4.74-0.84
		c1.15-0.56,2.06-1.31,2.05-2.67c-0.01-1.35-0.88-2.17-2.1-2.6c-0.56-0.2-1.15-0.31-1.74-0.41c-4.15-0.71-4.43-0.48-4.43,3.62
		c0,2.48,0.02,4.97-0.02,7.45c-0.01,0.63,0.25,1.53-0.79,1.62c-1.02,0.09-1.02-0.73-1.02-1.43c-0.01-3.77,0-7.55-0.01-11.32
		c0-0.78,0.15-1.41,1.1-1.4c2.28,0.04,4.6-0.1,6.84,0.23c2.17,0.32,3.96,1.53,4.13,4.03c0.16,2.34-1.25,3.62-3.32,4.34
		C1789.62,153.03,1789.27,153.23,1788.67,153.53z"/>
	<path class="st2" d="M1770.32,157.69c0.12,0.71-0.32,0.82-0.87,0.83c-0.7,0.01-1.2-0.43-1.35-0.98c-1.37-5.13-5.52-3.56-8.95-3.77
		c-1.32-0.08-1.58,0.95-2.08,1.78c-0.56,0.93-1.08,1.9-1.74,2.75c-0.29,0.38-0.93,0.38-1.36,0.03c-0.4-0.33-0.1-0.72,0.08-1.05
		c2.13-4.03,4.2-8.1,6.44-12.08c0.8-1.42,2.23-1.52,3.06-0.08c2.28,3.95,4.36,8.01,6.52,12.03
		C1770.16,157.32,1770.24,157.51,1770.32,157.69z M1761.91,145.97c-0.75,2.64-3.08,4.23-2.35,6.02c0.44,1.09,3.24,0.34,4.98,0.27
		c0.12-0.01,0.23-0.27,0.42-0.5C1764.08,150.09,1763.19,148.4,1761.91,145.97z"/>
	<path class="st2" d="M1806.62,151.6c0,1.78,0.01,3.57,0,5.35c-0.01,0.69,0.03,1.46-0.96,1.53c-0.99,0.07-1.1-0.63-1.1-1.37
		c0-3.87,0-7.73,0-11.6c0-0.65,0.14-1.17,0.94-1.21c1-0.05,1.12,0.6,1.12,1.35C1806.62,147.64,1806.62,149.62,1806.62,151.6z"/>
</g>
<g>
	<g>
		<path class="st2" d="M658.79,120.95c2.59,0,4.09,1.24,4.09,3.36c0,2.12-1.5,3.36-4.09,3.36h-16.34c-2.43,0-3.57-0.36-4.65-1.5
			c-1.14-1.19-1.5-2.17-1.5-4.65V93.5c0-3.88,1.86-6.15,5.07-6.15c3.15,0,5.02,2.27,5.02,6.15v27.45L658.79,120.95L658.79,120.95z"
			/>
		<path class="st2" d="M670.84,128.4c-6.88,0-11.58-6.31-11.58-15.51c0-9.15,4.91-15.56,11.94-15.56c3.15,0,5.79,1.34,7.86,4.03
			c1.29-3.1,2.43-4.03,4.91-4.03c3,0,4.5,1.91,4.5,5.74v19.54c0,3.77-1.6,5.79-4.6,5.79c-2.43,0-3.77-1.14-4.81-3.98
			C675.8,127.36,673.73,128.4,670.84,128.4L670.84,128.4z M674.04,121.62c3.21,0,4.96-3.15,4.96-9.05c0-5.38-1.86-8.53-5.01-8.53
			c-3.15,0-4.96,3.26-4.96,8.79C669.03,118.47,670.84,121.62,674.04,121.62z M712.35,114.7l9.36-24.3c0.78-2.07,1.86-3,3.57-3
			c1.86,0,3.52,1.55,3.52,3.31c0,0.62-0.16,1.4-0.47,2.22l-11.58,30.24c-1.45,3.77-3.15,5.22-6.15,5.22c-2.84,0-4.45-1.45-5.89-5.22
			l-10.8-28.43c-0.41-1.08-0.62-2.12-0.62-2.95c0-2.38,2.17-4.39,4.65-4.39c2.27,0,3.67,1.19,4.76,3.98l8.94,23.32L712.35,114.7
			L712.35,114.7z M735.2,84.87c2.84,0,5.12,2.28,5.12,5.12c0,2.79-2.27,5.12-5.12,5.12c-2.79,0-5.12-2.33-5.12-5.12
			C730.08,87.14,732.41,84.87,735.2,84.87z M735.2,97.33c3,0,4.7,2.07,4.7,5.74v19.54c0,3.67-1.71,5.79-4.7,5.79
			c-2.95,0-4.71-2.12-4.71-5.79v-19.54C730.49,99.39,732.25,97.33,735.2,97.33z M761.1,97.33c2.79,0,4.14,1.4,4.14,4.29
			c0,2.53-1.29,4.14-3.26,4.14c-0.42,0-0.98-0.05-1.6-0.21c-0.57-0.1-1.03-0.16-1.34-0.16c-3.93,0-7.29,5.79-7.29,12.56v4.65
			c0,3.67-1.71,5.79-4.7,5.79c-2.95,0-4.7-2.12-4.7-5.79v-19.75c0-3.57,1.71-5.53,4.81-5.53c2.9,0,4.19,1.5,4.45,5.43l0.15,2.48
			C753.55,100.17,756.91,97.33,761.1,97.33L761.1,97.33z M775.47,128.4c-6.88,0-11.58-6.31-11.58-15.51
			c0-9.15,4.91-15.56,11.94-15.56c3.15,0,5.79,1.34,7.86,4.03v-0.05c0.26-2.22,2.38-4.03,4.71-4.03c3,0,4.7,2.12,4.7,5.79V127
			c0,9.67-4.81,14.48-14.53,14.48c-2.89,0-6-0.47-8.32-1.19c-3.05-0.98-4.24-2.02-4.24-3.83c0-1.96,1.4-3.41,3.31-3.41
			c0.46,0,0.93,0.1,1.34,0.26l2.12,0.78c1.14,0.41,2.84,0.67,4.08,0.67c1.14,0,2.17-0.15,3.15-0.57c2.64-1.08,3.67-3.1,3.67-7.18
			v-2.59C780.43,127.36,778.36,128.4,775.47,128.4L775.47,128.4z M778.67,121.62c3.21,0,4.96-3.15,4.96-9.05
			c0-5.38-1.86-8.53-5.02-8.53c-3.15,0-4.96,3.26-4.96,8.79C773.66,118.47,775.47,121.62,778.67,121.62z M799.61,84.87
			c2.84,0,5.12,2.28,5.12,5.12c0,2.79-2.27,5.12-5.12,5.12c-2.79,0-5.12-2.33-5.12-5.12C794.5,87.14,796.82,84.87,799.61,84.87z
			 M799.61,97.33c3,0,4.7,2.07,4.7,5.74v19.54c0,3.67-1.71,5.79-4.7,5.79c-2.95,0-4.71-2.12-4.71-5.79v-19.54
			C794.91,99.39,796.67,97.33,799.61,97.33z M817.27,100.22c4.03-2.12,6.72-2.89,10.03-2.89c3.57,0,6.31,1.5,7.39,4.13
			c0.72,1.65,0.93,3.26,0.93,7.19v13.96c0,3.67-1.71,5.79-4.7,5.79c-3,0-4.7-2.12-4.7-5.79v-14.37c0-3.15-0.67-4.19-2.74-4.19
			c-1.91,0-4.45,0.62-7.65,1.91v16.65c0,3.67-1.71,5.79-4.71,5.79c-2.95,0-4.7-2.12-4.7-5.79v-19.75c0-3.98,1.4-5.53,4.86-5.53
			c2.33,0,4.14,1.4,4.55,3.67C816.5,100.63,816.96,100.38,817.27,100.22L817.27,100.22z M842.43,84.87c2.84,0,5.12,2.28,5.12,5.12
			c0,2.79-2.27,5.12-5.12,5.12c-2.79,0-5.12-2.33-5.12-5.12C837.31,87.14,839.64,84.87,842.43,84.87z M842.43,97.33
			c3,0,4.71,2.07,4.71,5.74v19.54c0,3.67-1.71,5.79-4.71,5.79c-2.95,0-4.7-2.12-4.7-5.79v-19.54
			C837.73,99.39,839.48,97.33,842.43,97.33z M860.06,128.4c-6.88,0-11.58-6.31-11.58-15.51c0-9.15,4.91-15.56,11.94-15.56
			c3.15,0,5.79,1.34,7.86,4.03c1.29-3.1,2.43-4.03,4.91-4.03c3,0,4.5,1.91,4.5,5.74v19.54c0,3.77-1.6,5.79-4.6,5.79
			c-2.43,0-3.77-1.14-4.81-3.98C865.03,127.36,862.96,128.4,860.06,128.4L860.06,128.4z M863.27,121.62c3.2,0,4.96-3.15,4.96-9.05
			c0-5.38-1.86-8.53-5.01-8.53c-3.15,0-4.96,3.26-4.96,8.79C858.26,118.47,860.06,121.62,863.27,121.62L863.27,121.62z"/>
		<path class="st2" d="M726.99,67.05c0,0,2.25-11.15,9.3-18.41c1.25-1.45,0.22-3.77-1.71-4.16c-2.32-0.26-4.74,0.87-8.53,4.1
			c-2.44,2.29-4.02,4.5-5.32,4.19c-1.31-0.31-2.05-4.73-4.15-10.13c-1.81-4.67-4.39-4.93-5.07-4.91c-0.68-0.02-3.26,0.24-5.17,4.91
			c-2.21,5.41-3.05,9.83-4.36,10.14c-1.31,0.31-2.85-1.9-5.24-4.19c-3.74-3.23-6.14-4.36-8.47-4.1c-1.94,0.4-3.02,2.72-1.8,4.17
			c6.92,7.27,8.94,18.42,8.94,18.42s0-0.01,0-0.02c0.15,1,0.33,2.41,0.36,3.49c0.05,1.88-0.2,4.31-0.2,4.31s-0.23,3.2,1.85,2.35
			c6.01-2.47,8.84-3.7,14.74-5.26c5.91-1.56,7.3-1.75,8.87-2.05c0.83-0.16,1.3,0.36,1.33,0.93c0.08,0.49-0.17,1.06-0.83,1.29
			c-1.44,0.49-12.26,4.42-15.48,6.12c-1.54,0.81-2.74,1.47-3.51,2.13c-0.46,0.36-0.81,0.72-1.15,1.22
			c-0.27,0.39-0.38,0.92-0.28,1.37c0.12,0.5,0.45,0.9,0.92,1.16c0.65,0.4,1.73,0.47,3.53-0.14c1.45-0.49,3.63-1.25,5.86-2.01
			c2.77-0.89,5.97-1.85,7.26-2.13c1.9-0.41,2.98-0.85,3.3-0.15l0.03-0.01l-0.03,0.01c0.02,0.05,0.03,0.1,0.04,0.16
			c0.15,0.71-1.46,0.95-3.04,1.42c-1.05,0.31-8.04,2.59-10.37,6.3c-2.32,3.7-1.33,8.65,3.67,12.55c0,0-1.89-2.19-2.76-4.25
			c-4.94-11.98,13.24-13.87,14.89-14.39c1.34-0.42,1.85-1.01,1.89-1.69c0,0,0.05-0.39-0.07-0.77c-0.11-0.38-0.01-0.05-0.02-0.07
			c-0.37-1.2-1.5-1.36-2.91-1.3c-0.78,0.03-3.35,0.44-7.43,1.53c-3.87,1.04-6.96,2.18-7.74,2.39c-0.95,0.28-1.64-0.2-1.85-0.61
			c-0.3-0.62-0.14-1.4,0.81-1.91c0.72-0.36,1.42-0.68,2.64-1.23c0.81-0.35,1.77-0.74,2.89-1.18c2.88-1.12,9.46-3.18,12.57-4.22
			c1.79-0.6,2.62-1.28,2.91-1.98c0.23-0.48,0.26-0.98,0.07-1.44c-0.18-0.41-0.55-0.68-1-0.82c-0.58-0.18-1.37-0.2-2.35-0.15
			c-1.26,0.07-7.03,0.89-13.98,3.03c-6.56,2.02-10.05,3.49-11.96,4.23c-1.9,0.73-1.13-1.73-1.22-2.78
			c0.04-8.21-1.99-14.56-7.37-22.39c-3.61-4.05-0.97-4.37,2.11-1.53c2.07,2.06,2.59,2.74,4.33,4.94c1.4,1.74,3.83,5.27,5.83,5.27
			c2,0,2.82-4.41,3.88-7.68c1.35-4.19,1.91-7.54,5.02-7.58c3.11,0.04,3.59,3.39,4.86,7.57c0.99,3.26,1.71,7.67,3.71,7.67
			c2,0,4.49-3.53,5.93-5.27c1.78-2.19,2.31-2.88,4.42-4.94c3.13-2.83,5.75-2.52,2.07,1.53C726.11,58.76,726.99,67.05,726.99,67.05
			L726.99,67.05z"/>
	</g>
	<g>
		<path class="st3" d="M662.6,158.79l0.49-3.61l0.6,0.04c-0.08,1.64,0.64,3.35,2.51,3.35c1.38,0,2.44-1.12,2.44-2.5
			c0-2.8-5.01-2.57-5.01-6.31c0-2.25,1.51-3.7,3.76-3.7c1.21,0,2.36,0.49,2.66,0.49c0.21,0,0.38-0.09,0.51-0.25l0.43,0.15
			l-0.74,3.31l-0.55-0.09c0-0.28,0.04-0.55,0.04-0.81c0-1.25-0.81-2.27-2.12-2.27c-1.13,0-2.23,0.79-2.23,1.98
			c0,3.1,4.97,2.48,4.97,6.39c0,2.42-1.85,4.14-4.16,4.14c-0.76,0-1.8-0.43-2.55-0.43c-0.17,0-0.43,0.11-0.53,0.26L662.6,158.79
			L662.6,158.79z M673.81,157.22c0-1.44,1.47-6.26,3.36-6.26c0.49,0,0.85,0.25,0.85,0.81c0,0.51-0.42,2.31-0.91,3.71
			c-0.32,0.93-1.1,2.78-2.4,2.78C674.09,158.26,673.81,157.9,673.81,157.22z M680.31,156.01c-0.28,0.51-0.95,1.89-1.57,1.89
			c-0.17,0-0.26-0.21-0.26-0.34c0-0.28,0.15-0.85,0.25-1.25l1.49-5.8h-1c-0.47,0-0.62,0.11-0.79,0.45c-0.3-0.19-0.76-0.45-1.44-0.45
			c-2.59,0-4.95,3.19-4.95,5.92c0,1.63,0.72,2.67,2.31,2.67c1.12,0,2.06-1.17,2.55-2.06l0.11,0.06c-0.09,0.3-0.13,0.43-0.13,0.95
			c0,0.6,0.21,1.06,0.87,1.06c1.25,0,2.68-2.17,2.91-2.93L680.31,156.01L680.31,156.01z M683.75,157.49c0-1.81,2.38-6.18,4.35-6.18
			c0.68,0,0.85,0.6,0.85,1.19c0,1.87-1.47,6.14-3.95,6.14C684.24,158.64,683.75,158.22,683.75,157.49L683.75,157.49z M682.67,145.43
			c1.27,0.02,1.78,0.06,1.78,0.32c0,0.19-0.06,0.4-0.09,0.59l-2.76,12.1c1.25,0.13,2.44,0.66,3.7,0.66c2.82,0,5.56-3.27,5.56-6.07
			c0-1.21-0.72-2.51-2.06-2.51c-2.02,0-3.35,2.08-4.2,3.18l-0.08-0.06l1.89-7.47c0.09-0.34,0.23-0.93,0.23-1.19
			c0-0.13-0.08-0.21-0.38-0.21c-0.25,0-2.4,0.17-3.59,0.25L682.67,145.43L682.67,145.43z M697.11,150.97c1.15,0,1.42,1.29,1.42,2.15
			c0,1.36-1,5.52-3.19,5.52c-1.15,0-1.42-1.29-1.42-2.15C693.92,155.12,694.92,150.97,697.11,150.97z M697.11,150.51
			c-2.8,0-4.97,2.44-4.97,5.25c0,2,1.23,3.33,3.19,3.33c2.8,0,4.97-2.44,4.97-5.25C700.31,151.83,699.08,150.51,697.11,150.51z
			 M701.5,153.55c0.49-1.02,1.68-3.04,2.97-3.04c0.59,0,0.76,0.68,0.76,1.08c0,0.62-0.13,1.23-0.23,1.83l0.09,0.06
			c0.57-1.21,1.55-2.97,3.04-2.97c0.62,0,1.38,0.32,1.38,1.02c0,0.55-0.45,0.95-0.98,0.95c-0.59,0-1.08-0.43-1.4-0.89
			c-1.42,0.77-1.93,2.84-2.29,4.31l-0.72,2.89h-1.97l1.46-6.2c0.08-0.28,0.09-0.55,0.09-0.66c0-0.26-0.06-0.34-0.17-0.34
			c-0.45,0-1.51,1.81-1.72,2.17L701.5,153.55L701.5,153.55z M714.54,150.97c0.51,0,0.72,0.3,0.72,0.83c0,1.95-3.21,3.59-3.52,3.59
			c-0.11,0-0.15-0.04-0.15-0.13C711.59,154.2,712.97,150.97,714.54,150.97z M716.13,155.77c-0.68,1.1-2.14,2.63-3.42,2.63
			c-0.89,0-1.29-0.95-1.29-1.68c0-0.32,0.02-0.55,0.11-0.72l2.89-1.38c0.96-0.45,2.48-1.23,2.48-2.53c0-1.15-1.27-1.57-2.23-1.57
			c-2.8,0-5.12,2.59-5.12,5.44c0,1.8,0.87,3.14,2.93,3.14c1.85,0,3.25-1.66,4.05-3.1L716.13,155.77L716.13,155.77z M720.49,159.09
			c-1.1,0-2.8-0.85-2.8-2.1c0-0.51,0.28-1.27,0.89-1.27c0.49,0,0.79,0.45,0.79,0.91c0,0.83-0.49,1.32-0.49,1.49
			c0,0.32,1.02,0.51,1.29,0.51c0.96,0,1.7-0.55,1.7-1.57c0-1.51-3.14-2.19-3.14-4.06c0-1.51,1.34-2.5,2.95-2.5
			c0.89,0,2.55,0.72,2.55,1.93c0,0.53-0.26,1.15-0.89,1.15c-0.49,0-0.79-0.36-0.79-0.83c0-1.02,0.47-1.23,0.47-1.42
			c0-0.21-0.85-0.38-1.12-0.38c-0.7,0-1.59,0.43-1.59,1.25c0,1.44,3.23,2.04,3.23,4.31C723.56,158.2,722.08,159.09,720.49,159.09
			L720.49,159.09z M734.82,150.97c0.83,0,1.36,0.51,1.36,1.34c0,1.66-1.23,6.11-3.52,6.11c-1.02,0-1.23-0.68-1.23-1.59
			C731.44,155.12,732.67,150.97,734.82,150.97z M735.47,164.16l3.16-13.65h-0.6l-0.81,1.38h-0.09c-0.51-0.87-1.27-1.38-2.4-1.38
			c-2.85,0-5.18,3.02-5.18,5.63c0,1.59,0.68,2.95,2.46,2.95c1.21,0,2.12-0.66,2.93-1.51l0.08,0.06l-1.57,6.52L735.47,164.16
			L735.47,164.16z M748.62,150.81l-1.38,5.73c-0.09,0.36-0.21,0.81-0.21,1.13c0,0.17,0.08,0.26,0.19,0.26
			c0.45,0,1.44-1.72,1.64-2.08l0.32,0.19c-0.38,0.68-1.55,3.04-3.01,3.04c-0.74,0-0.95-0.6-0.95-1.3c0-0.51,0.15-1.02,0.25-1.53
			h-0.11c-0.76,1.17-1.74,2.84-3.33,2.84c-1.08,0-1.68-0.93-1.68-1.91c0-0.6,0.09-1.12,0.25-1.68l0.6-2.4
			c0.11-0.43,0.19-0.81,0.19-1.06c0-0.11-0.04-0.17-0.13-0.17c-0.38,0-1.38,1.63-1.63,1.97l-0.32-0.19
			c0.74-1.17,1.76-3.14,3.36-3.14c0.6,0,0.81,0.57,0.81,1.08c0,0.3-0.06,0.7-0.17,1.1l-0.96,3.67c-0.11,0.42-0.19,0.79-0.19,1.08
			c0,0.32,0.09,0.87,0.55,0.87c1.36,0,2.97-3.21,3.5-5.56l0.43-1.93L748.62,150.81L748.62,150.81z M755.11,150.97
			c0.51,0,0.72,0.3,0.72,0.83c0,1.95-3.21,3.59-3.52,3.59c-0.11,0-0.15-0.04-0.15-0.13C752.16,154.2,753.54,150.97,755.11,150.97z
			 M756.69,155.77c-0.68,1.1-2.14,2.63-3.42,2.63c-0.89,0-1.29-0.95-1.29-1.68c0-0.32,0.02-0.55,0.11-0.72l2.89-1.38
			c0.96-0.45,2.48-1.23,2.48-2.53c0-1.15-1.27-1.57-2.23-1.57c-2.8,0-5.12,2.59-5.12,5.44c0,1.8,0.87,3.14,2.93,3.14
			c1.85,0,3.25-1.66,4.05-3.1L756.69,155.77L756.69,155.77z M769.74,156.01c-0.81,1.44-2.21,3.08-3.95,3.08
			c-1.98,0-3.08-1.27-3.08-3.21c0-2.65,2.17-5.37,5.08-5.37c1.21,0,2.29,0.7,2.29,1.89c0,0.47-0.38,0.98-0.83,0.98
			c-0.85,0-1.04-0.96-1.04-1.64c0-0.72-0.06-0.77-0.32-0.77c-2.12,0-3.27,3.8-3.27,5.61c0,0.96,0.47,1.81,1.53,1.81
			c1.3,0,2.61-1.63,3.25-2.63L769.74,156.01L769.74,156.01z M776.13,150.97c1.15,0,1.42,1.29,1.42,2.15c0,1.36-1,5.52-3.19,5.52
			c-1.15,0-1.42-1.29-1.42-2.15C772.93,155.12,773.93,150.97,776.13,150.97z M776.13,150.51c-2.8,0-4.97,2.44-4.97,5.25
			c0,2,1.23,3.33,3.19,3.33c2.8,0,4.97-2.44,4.97-5.25C779.32,151.83,778.09,150.51,776.13,150.51L776.13,150.51z M781.1,158.79
			l1.34-6.03c0.08-0.32,0.11-0.64,0.11-0.79c0-0.11,0-0.38-0.17-0.38c-0.57,0-1.32,1.76-1.51,2.15l-0.32-0.19
			c0.38-0.98,1.21-3.04,2.48-3.04c0.72,0,1.04,0.59,1.04,1.32c0,0.53-0.09,1.12-0.26,1.7l0.17,0.02c0.6-1.27,1.63-3.04,3.12-3.04
			c1,0,1.89,0.38,1.89,2.31c0,0.45-0.02,0.93-0.13,1.36l-0.6,2.44c-0.08,0.32-0.13,0.6-0.13,0.81c0,0.3,0.08,0.51,0.3,0.51
			c0.53,0,1.12-1.78,1.34-2.15l0.38,0.13c-0.45,1.08-1.17,3.18-2.63,3.18c-1.04,0-1.38-0.81-1.38-1.66c0-0.32,0.06-0.72,0.17-1.15
			l0.76-2.82c0.13-0.47,0.19-0.89,0.19-1.23c0-0.51-0.19-0.85-0.59-0.85c-1.78,0-2.68,3.33-2.99,4.59l-0.68,2.82L781.1,158.79
			L781.1,158.79z M796.39,150.97c0.83,0,1.36,0.51,1.36,1.34c0,1.66-1.23,6.11-3.52,6.11c-1.02,0-1.23-0.68-1.23-1.59
			C793.01,155.12,794.24,150.97,796.39,150.97z M797.03,164.16l3.16-13.65h-0.6l-0.81,1.38h-0.09c-0.51-0.87-1.27-1.38-2.4-1.38
			c-2.85,0-5.18,3.02-5.18,5.63c0,1.59,0.68,2.95,2.46,2.95c1.21,0,2.12-0.66,2.93-1.51l0.08,0.06l-1.57,6.52L797.03,164.16
			L797.03,164.16z M810.19,150.81l-1.38,5.73c-0.09,0.36-0.21,0.81-0.21,1.13c0,0.17,0.08,0.26,0.19,0.26
			c0.45,0,1.44-1.72,1.64-2.08l0.32,0.19c-0.38,0.68-1.55,3.04-3.01,3.04c-0.74,0-0.94-0.6-0.94-1.3c0-0.51,0.15-1.02,0.25-1.53
			h-0.11c-0.76,1.17-1.74,2.84-3.33,2.84c-1.08,0-1.68-0.93-1.68-1.91c0-0.6,0.09-1.12,0.25-1.68l0.6-2.4
			c0.11-0.43,0.19-0.81,0.19-1.06c0-0.11-0.04-0.17-0.13-0.17c-0.38,0-1.38,1.63-1.63,1.97l-0.32-0.19
			c0.74-1.17,1.76-3.14,3.36-3.14c0.6,0,0.81,0.57,0.81,1.08c0,0.3-0.06,0.7-0.17,1.1l-0.96,3.67c-0.11,0.42-0.19,0.79-0.19,1.08
			c0,0.32,0.09,0.87,0.55,0.87c1.36,0,2.97-3.21,3.5-5.56l0.43-1.93L810.19,150.81L810.19,150.81z M816.16,155.96
			c-0.36,1.04-1.29,3.14-2.68,3.14c-0.95,0-1.3-0.7-1.3-1.61c0-0.47,0.04-0.96,0.15-1.32l1.08-3.59c0.09-0.28,0.11-0.43,0.11-0.72
			c0-0.11-0.09-0.26-0.19-0.26c-0.59,0-1.42,1.63-1.57,2.14l-0.34-0.19c0.43-1.04,1.4-3.02,2.78-3.02c0.83,0,1.17,0.81,1.17,1.61
			c0,0.17-0.04,0.49-0.17,0.95l-0.91,3.33c-0.09,0.32-0.19,0.7-0.19,1c0,0.47,0.11,0.53,0.28,0.53c0.6,0,1.21-1.61,1.4-2.1
			L816.16,155.96L816.16,155.96z M814.71,149.19c-0.47,0-0.76-0.85-0.76-1.34c0-1.04,0.47-1.53,1.13-1.53
			c0.64,0,0.98,0.55,0.98,1.08C816.07,148.41,815.1,149.19,814.71,149.19L814.71,149.19z M819.49,159.09c-1.1,0-2.8-0.85-2.8-2.1
			c0-0.51,0.28-1.27,0.89-1.27c0.49,0,0.79,0.45,0.79,0.91c0,0.83-0.49,1.32-0.49,1.49c0,0.32,1.02,0.51,1.29,0.51
			c0.96,0,1.7-0.55,1.7-1.57c0-1.51-3.14-2.19-3.14-4.06c0-1.51,1.34-2.5,2.95-2.5c0.89,0,2.55,0.72,2.55,1.93
			c0,0.53-0.26,1.15-0.89,1.15c-0.49,0-0.79-0.36-0.79-0.83c0-1.02,0.47-1.23,0.47-1.42c0-0.21-0.85-0.38-1.12-0.38
			c-0.7,0-1.59,0.43-1.59,1.25c0,1.44,3.23,2.04,3.23,4.31C822.55,158.2,821.08,159.09,819.49,159.09L819.49,159.09z M824.37,151.78
			v-0.6l1.81-0.08l0.79-2.97l2.08-0.23l-0.81,3.1l1.72-0.08v0.6l-1.93,0.08l-1.38,5.31c-0.04,0.17-0.13,0.6-0.13,0.77
			c0,0.26,0.09,0.51,0.4,0.51c0.6,0,1.83-1.85,2.16-2.36l0.34,0.15c-0.62,1.12-1.78,3.1-3.25,3.1c-1.02,0-1.4-0.85-1.4-1.74
			c0-0.43,0.13-0.81,0.23-1.21l1.04-4.44L824.37,151.78L824.37,151.78z M832.3,157.22c0-1.44,1.47-6.26,3.36-6.26
			c0.49,0,0.85,0.25,0.85,0.81c0,0.51-0.42,2.31-0.91,3.71c-0.32,0.93-1.1,2.78-2.4,2.78C832.59,158.26,832.3,157.9,832.3,157.22
			L832.3,157.22z M838.81,156.01c-0.28,0.51-0.94,1.89-1.57,1.89c-0.17,0-0.26-0.21-0.26-0.34c0-0.28,0.15-0.85,0.25-1.25l1.49-5.8
			h-1c-0.47,0-0.62,0.11-0.79,0.45c-0.3-0.19-0.76-0.45-1.44-0.45c-2.59,0-4.95,3.19-4.95,5.92c0,1.63,0.72,2.67,2.31,2.67
			c1.11,0,2.06-1.17,2.55-2.06l0.11,0.06c-0.09,0.3-0.13,0.43-0.13,0.95c0,0.6,0.21,1.06,0.87,1.06c1.25,0,2.68-2.17,2.91-2.93
			L838.81,156.01L838.81,156.01z M840.62,158.79l1.34-6.03c0.08-0.32,0.11-0.64,0.11-0.79c0-0.11,0-0.38-0.17-0.38
			c-0.57,0-1.32,1.76-1.51,2.15l-0.32-0.19c0.38-0.98,1.21-3.04,2.48-3.04c0.72,0,1.04,0.59,1.04,1.32c0,0.53-0.09,1.12-0.26,1.7
			l0.17,0.02c0.6-1.27,1.63-3.04,3.12-3.04c1,0,1.89,0.38,1.89,2.31c0,0.45-0.02,0.93-0.13,1.36l-0.61,2.44
			c-0.08,0.32-0.13,0.6-0.13,0.81c0,0.3,0.08,0.51,0.3,0.51c0.53,0,1.11-1.78,1.34-2.15l0.38,0.13c-0.45,1.08-1.17,3.18-2.63,3.18
			c-1.04,0-1.38-0.81-1.38-1.66c0-0.32,0.06-0.72,0.17-1.15l0.76-2.82c0.13-0.47,0.19-0.89,0.19-1.23c0-0.51-0.19-0.85-0.59-0.85
			c-1.78,0-2.68,3.33-2.99,4.59l-0.68,2.82L840.62,158.79L840.62,158.79z"/>
	</g>
</g>
</svg>
